%TF.GenerationSoftware,KiCad,Pcbnew,9.0.7+1*%
%TF.CreationDate,Date%
%TF.ProjectId,FIC-100A,4649432d-3130-4304-912e-6b696361645f,0.1.0*%
%TF.SameCoordinates,Original*%
%TF.FileFunction,Copper,L1,Top*%
%TF.FilePolarity,Positive*%
%FSLAX46Y46*%
G04 Gerber Fmt 4.6, Leading zero omitted, Abs format (unit mm)*
G04 Created by KiCad*
%MOMM*%
%LPD*%
G01*
G04 APERTURE LIST*
G04 Aperture macros list*
%AMRoundRect*
0 Rectangle with rounded corners*
0 $1 Rounding radius*
0 $2 $3 $4 $5 $6 $7 $8 $9 X,Y pos of 4 corners*
0 Add a 4 corners polygon primitive as box body*
4,1,4,$2,$3,$4,$5,$6,$7,$8,$9,$2,$3,0*
0 Add four circle primitives for the rounded corners*
1,1,$1+$1,$2,$3*
1,1,$1+$1,$4,$5*
1,1,$1+$1,$6,$7*
1,1,$1+$1,$8,$9*
0 Add four rect primitives between the rounded corners*
20,1,$1+$1,$2,$3,$4,$5,0*
20,1,$1+$1,$4,$5,$6,$7,0*
20,1,$1+$1,$6,$7,$8,$9,0*
20,1,$1+$1,$8,$9,$2,$3,0*%
G04 Aperture macros list end*
%ADD10C,0.250000*%
%TA.AperFunction,NonConductor*%
%ADD11C,0.250000*%
%TD*%
%TA.AperFunction,EtchedComponent*%
%ADD12C,0.000000*%
%TD*%
%TA.AperFunction,EtchedComponent*%
%ADD13C,0.200000*%
%TD*%
%TA.AperFunction,SMDPad,CuDef*%
%ADD14R,1.200000X0.400000*%
%TD*%
%TA.AperFunction,SMDPad,CuDef*%
%ADD15C,1.000000*%
%TD*%
%TA.AperFunction,SMDPad,CuDef*%
%ADD16R,1.500000X1.000000*%
%TD*%
%TA.AperFunction,SMDPad,CuDef*%
%ADD17RoundRect,0.243750X0.243750X0.456250X-0.243750X0.456250X-0.243750X-0.456250X0.243750X-0.456250X0*%
%TD*%
%TA.AperFunction,ComponentPad*%
%ADD18C,4.500000*%
%TD*%
%TA.AperFunction,SMDPad,CuDef*%
%ADD19R,1.000000X1.000000*%
%TD*%
%TA.AperFunction,SMDPad,CuDef*%
%ADD20RoundRect,0.200000X0.200000X0.275000X-0.200000X0.275000X-0.200000X-0.275000X0.200000X-0.275000X0*%
%TD*%
%TA.AperFunction,SMDPad,CuDef*%
%ADD21RoundRect,0.200000X0.275000X-0.200000X0.275000X0.200000X-0.275000X0.200000X-0.275000X-0.200000X0*%
%TD*%
%TA.AperFunction,SMDPad,CuDef*%
%ADD22RoundRect,0.250000X0.900000X-1.000000X0.900000X1.000000X-0.900000X1.000000X-0.900000X-1.000000X0*%
%TD*%
%TA.AperFunction,SMDPad,CuDef*%
%ADD23RoundRect,0.200000X-0.200000X-0.275000X0.200000X-0.275000X0.200000X0.275000X-0.200000X0.275000X0*%
%TD*%
%TA.AperFunction,SMDPad,CuDef*%
%ADD24RoundRect,0.225000X0.250000X-0.225000X0.250000X0.225000X-0.250000X0.225000X-0.250000X-0.225000X0*%
%TD*%
%TA.AperFunction,SMDPad,CuDef*%
%ADD25RoundRect,0.218750X0.218750X0.256250X-0.218750X0.256250X-0.218750X-0.256250X0.218750X-0.256250X0*%
%TD*%
%TA.AperFunction,SMDPad,CuDef*%
%ADD26RoundRect,0.250000X-0.457500X-0.445000X0.457500X-0.445000X0.457500X0.445000X-0.457500X0.445000X0*%
%TD*%
%TA.AperFunction,SMDPad,CuDef*%
%ADD27RoundRect,0.225000X0.225000X0.250000X-0.225000X0.250000X-0.225000X-0.250000X0.225000X-0.250000X0*%
%TD*%
%TA.AperFunction,SMDPad,CuDef*%
%ADD28RoundRect,0.150000X-0.825000X-0.150000X0.825000X-0.150000X0.825000X0.150000X-0.825000X0.150000X0*%
%TD*%
%TA.AperFunction,SMDPad,CuDef*%
%ADD29RoundRect,0.150000X0.150000X0.425000X-0.150000X0.425000X-0.150000X-0.425000X0.150000X-0.425000X0*%
%TD*%
%TA.AperFunction,SMDPad,CuDef*%
%ADD30RoundRect,0.075000X0.075000X0.500000X-0.075000X0.500000X-0.075000X-0.500000X0.075000X-0.500000X0*%
%TD*%
%TA.AperFunction,HeatsinkPad*%
%ADD31O,1.000000X2.100000*%
%TD*%
%TA.AperFunction,HeatsinkPad*%
%ADD32O,1.000000X1.800000*%
%TD*%
%TA.AperFunction,SMDPad,CuDef*%
%ADD33RoundRect,0.150000X-0.150000X0.512500X-0.150000X-0.512500X0.150000X-0.512500X0.150000X0.512500X0*%
%TD*%
%TA.AperFunction,ComponentPad*%
%ADD34R,1.800000X1.800000*%
%TD*%
%TA.AperFunction,ComponentPad*%
%ADD35C,1.800000*%
%TD*%
%TA.AperFunction,ViaPad*%
%ADD36C,0.600000*%
%TD*%
%TA.AperFunction,Conductor*%
%ADD37C,0.300000*%
%TD*%
%TA.AperFunction,Conductor*%
%ADD38C,0.200000*%
%TD*%
G04 APERTURE END LIST*
D10*
D11*
X157535714Y-79949619D02*
X156964286Y-79949619D01*
X157250000Y-79949619D02*
X157250000Y-78949619D01*
X157250000Y-78949619D02*
X157154762Y-79092476D01*
X157154762Y-79092476D02*
X157059524Y-79187714D01*
X157059524Y-79187714D02*
X156964286Y-79235333D01*
D12*
%TA.AperFunction,EtchedComponent*%
%TO.C,JP1*%
G36*
X141300000Y-82899999D02*
G01*
X140700000Y-82899999D01*
X140700000Y-82399999D01*
X141300000Y-82399999D01*
X141300000Y-82899999D01*
G37*
%TD.AperFunction*%
%TO.C,ID1*%
D13*
X156500000Y-78500000D02*
X158000000Y-78500000D01*
X158000000Y-80500000D01*
X156500000Y-80500000D01*
X156500000Y-78500000D01*
%TD*%
D14*
%TO.P,U3,1,~{DTR}*%
%TO.N,unconnected-(U3-~{DTR}-Pad1)*%
X132900001Y-87642500D03*
%TO.P,U3,2,~{RTS}*%
%TO.N,unconnected-(U3-~{RTS}-Pad2)*%
X132900001Y-88277500D03*
%TO.P,U3,3,VCCIO*%
%TO.N,+3V3*%
X132900000Y-88912500D03*
%TO.P,U3,4,RXD*%
%TO.N,/CIRCUIT/RX*%
X132900001Y-89547500D03*
%TO.P,U3,5,~{RI}*%
%TO.N,unconnected-(U3-~{RI}-Pad5)*%
X132900001Y-90182500D03*
%TO.P,U3,6,GND*%
%TO.N,GND*%
X132900001Y-90817500D03*
%TO.P,U3,7,~{DSR}*%
%TO.N,unconnected-(U3-~{DSR}-Pad7)*%
X132900001Y-91452500D03*
%TO.P,U3,8,~{DCD}*%
%TO.N,unconnected-(U3-~{DCD}-Pad8)*%
X132900000Y-92087500D03*
%TO.P,U3,9,~{CTS}*%
%TO.N,unconnected-(U3-~{CTS}-Pad9)*%
X132900001Y-92722500D03*
%TO.P,U3,10,CBUS2*%
%TO.N,unconnected-(U3-CBUS2-Pad10)*%
X132900001Y-93357500D03*
%TO.P,U3,11,USBDP*%
%TO.N,/CIRCUIT/A+*%
X138100001Y-93357500D03*
%TO.P,U3,12,USBDM*%
%TO.N,/CIRCUIT/A-*%
X138100001Y-92722500D03*
%TO.P,U3,13,3V3OUT*%
%TO.N,+3V3*%
X138100002Y-92087500D03*
%TO.P,U3,14,~{RESET}*%
X138100001Y-91452500D03*
%TO.P,U3,15,VCC*%
%TO.N,/CIRCUIT/VCC*%
X138100001Y-90817500D03*
%TO.P,U3,16,GND*%
%TO.N,GND*%
X138100001Y-90182500D03*
%TO.P,U3,17,CBUS1*%
%TO.N,/CIRCUIT/RX_LED*%
X138100001Y-89547500D03*
%TO.P,U3,18,CBUS0*%
%TO.N,/CIRCUIT/TX_LED*%
X138100002Y-88912500D03*
%TO.P,U3,19,CBUS3*%
%TO.N,unconnected-(U3-CBUS3-Pad19)*%
X138100001Y-88277500D03*
%TO.P,U3,20,TXD*%
%TO.N,/CIRCUIT/TX*%
X138100001Y-87642500D03*
%TD*%
D15*
%TO.P,TP2,1,1*%
%TO.N,+3V3*%
X130500000Y-94500000D03*
%TD*%
D16*
%TO.P,JP1,1,A*%
%TO.N,/CIRCUIT/VBUS*%
X141000000Y-82000000D03*
%TO.P,JP1,2,B*%
%TO.N,VUSB*%
X141000000Y-83299998D03*
%TD*%
D17*
%TO.P,D3,1,K*%
%TO.N,/CIRCUIT/TX_LED*%
X161437501Y-99500000D03*
%TO.P,D3,2,A*%
%TO.N,Net-(D3-A)*%
X159562499Y-99500000D03*
%TD*%
D18*
%TO.P,H3,1,1*%
%TO.N,GND*%
X165500000Y-99500000D03*
%TD*%
D19*
%TO.P,TP1,1,1*%
%TO.N,GND*%
X148500000Y-99250000D03*
%TD*%
D20*
%TO.P,R12,1*%
%TO.N,VUSB*%
X137325000Y-97500000D03*
%TO.P,R12,2*%
%TO.N,/CIRCUIT/PWR_LED*%
X135675000Y-97500000D03*
%TD*%
D18*
%TO.P,H4,1,1*%
%TO.N,GND*%
X131500000Y-99500000D03*
%TD*%
%TO.P,H1,1,1*%
%TO.N,GND*%
X131500000Y-80500000D03*
%TD*%
D21*
%TO.P,R9,1*%
%TO.N,/CIRCUIT/A+*%
X147550000Y-92507500D03*
%TO.P,R9,2*%
%TO.N,Net-(R9-Pad2)*%
X147550000Y-90857500D03*
%TD*%
D15*
%TO.P,FID2,*%
%TO.N,*%
X165500000Y-84500000D03*
%TD*%
D22*
%TO.P,D1,1,A1*%
%TO.N,VUSB*%
X137500000Y-84076001D03*
%TO.P,D1,2,A2*%
%TO.N,GND*%
X137500000Y-79775999D03*
%TD*%
D23*
%TO.P,R3,1*%
%TO.N,Net-(U1A-+)*%
X157250000Y-93500000D03*
%TO.P,R3,2*%
%TO.N,GND*%
X158900000Y-93500000D03*
%TD*%
D20*
%TO.P,R10,1*%
%TO.N,+3V3*%
X161325000Y-97500000D03*
%TO.P,R10,2*%
%TO.N,Net-(D3-A)*%
X159675000Y-97500000D03*
%TD*%
D24*
%TO.P,C1,1*%
%TO.N,GND*%
X146000000Y-89550000D03*
%TO.P,C1,2*%
%TO.N,VUSB*%
X146000000Y-88000000D03*
%TD*%
D17*
%TO.P,D5,1,K*%
%TO.N,GND*%
X137437501Y-99500000D03*
%TO.P,D5,2,A*%
%TO.N,/CIRCUIT/PWR_LED*%
X135562499Y-99500000D03*
%TD*%
D21*
%TO.P,R8,1*%
%TO.N,/CIRCUIT/A-*%
X149455000Y-92507500D03*
%TO.P,R8,2*%
%TO.N,Net-(R8-Pad2)*%
X149455000Y-90857500D03*
%TD*%
D25*
%TO.P,FB1,1*%
%TO.N,/CIRCUIT/VCC*%
X142287501Y-85250000D03*
%TO.P,FB1,2*%
%TO.N,VUSB*%
X140712499Y-85250000D03*
%TD*%
D20*
%TO.P,R2,1*%
%TO.N,VUSB*%
X164150000Y-90750000D03*
%TO.P,R2,2*%
%TO.N,Net-(U1A-+)*%
X162500000Y-90750000D03*
%TD*%
D15*
%TO.P,FID3,*%
%TO.N,*%
X165500000Y-95500000D03*
%TD*%
D26*
%TO.P,C6,1*%
%TO.N,/CIRCUIT/VCC*%
X140000002Y-87500000D03*
%TO.P,C6,2*%
%TO.N,GND*%
X142705002Y-87500000D03*
%TD*%
D27*
%TO.P,C4,1*%
%TO.N,GND*%
X141300000Y-91000001D03*
%TO.P,C4,2*%
%TO.N,/CIRCUIT/VCC*%
X139750000Y-91000001D03*
%TD*%
D24*
%TO.P,C3,1*%
%TO.N,GND*%
X139750000Y-96050000D03*
%TO.P,C3,2*%
%TO.N,+3V3*%
X139750000Y-94500000D03*
%TD*%
D20*
%TO.P,R5,1*%
%TO.N,VUSB*%
X164150000Y-89250000D03*
%TO.P,R5,2*%
%TO.N,/CIRCUIT/RX*%
X162500000Y-89250000D03*
%TD*%
D28*
%TO.P,U1,1*%
%TO.N,Net-(D2-K)*%
X155525000Y-88095000D03*
%TO.P,U1,2,-*%
%TO.N,/CIRCUIT/TX*%
X155525000Y-89365000D03*
%TO.P,U1,3,+*%
%TO.N,Net-(U1A-+)*%
X155525000Y-90635000D03*
%TO.P,U1,4,V-*%
%TO.N,GND*%
X155525000Y-91905000D03*
%TO.P,U1,5,+*%
%TO.N,Net-(Q1-C)*%
X160475000Y-91905000D03*
%TO.P,U1,6,-*%
%TO.N,Net-(U1A-+)*%
X160475000Y-90635000D03*
%TO.P,U1,7*%
%TO.N,/CIRCUIT/RX*%
X160475000Y-89365000D03*
%TO.P,U1,8,V+*%
%TO.N,VUSB*%
X160475000Y-88095000D03*
%TD*%
D23*
%TO.P,R4,1*%
%TO.N,VUSB*%
X142100000Y-99500000D03*
%TO.P,R4,2*%
%TO.N,Net-(D2-A)*%
X143750000Y-99500000D03*
%TD*%
D27*
%TO.P,C5,1*%
%TO.N,GND*%
X141300001Y-89500000D03*
%TO.P,C5,2*%
%TO.N,/CIRCUIT/VCC*%
X139750001Y-89500000D03*
%TD*%
D20*
%TO.P,R11,1*%
%TO.N,+3V3*%
X157325000Y-97500000D03*
%TO.P,R11,2*%
%TO.N,Net-(D4-A)*%
X155675000Y-97500000D03*
%TD*%
%TO.P,R1,1*%
%TO.N,VUSB*%
X164150000Y-92250000D03*
%TO.P,R1,2*%
%TO.N,Net-(Q1-C)*%
X162500000Y-92250000D03*
%TD*%
D15*
%TO.P,FID1,*%
%TO.N,*%
X131500000Y-84500000D03*
%TD*%
D23*
%TO.P,R7,1*%
%TO.N,GND*%
X144675000Y-85500000D03*
%TO.P,R7,2*%
%TO.N,/CIRCUIT/CC2*%
X146325000Y-85500000D03*
%TD*%
D29*
%TO.P,J1,A1,GND*%
%TO.N,GND*%
X151700000Y-83680000D03*
%TO.P,J1,A4,VBUS*%
%TO.N,/CIRCUIT/VBUS*%
X150900000Y-83680000D03*
D30*
%TO.P,J1,A5,CC1*%
%TO.N,/CIRCUIT/CC1*%
X149750000Y-83679999D03*
%TO.P,J1,A6,D+*%
%TO.N,/CIRCUIT/D+*%
X148750000Y-83680000D03*
%TO.P,J1,A7,D-*%
%TO.N,/CIRCUIT/D-*%
X148250000Y-83680000D03*
%TO.P,J1,A8,SBU1*%
%TO.N,unconnected-(J1-SBU1-PadA8)*%
X147250000Y-83679999D03*
D29*
%TO.P,J1,A9,VBUS*%
%TO.N,/CIRCUIT/VBUS*%
X146100000Y-83680000D03*
%TO.P,J1,A12,GND*%
%TO.N,GND*%
X145300000Y-83680000D03*
%TO.P,J1,B1,GND*%
X145300000Y-83680000D03*
%TO.P,J1,B4,VBUS*%
%TO.N,/CIRCUIT/VBUS*%
X146100000Y-83680000D03*
D30*
%TO.P,J1,B5,CC2*%
%TO.N,/CIRCUIT/CC2*%
X146750000Y-83680000D03*
%TO.P,J1,B6,D+*%
%TO.N,/CIRCUIT/D+*%
X147750000Y-83680000D03*
%TO.P,J1,B7,D-*%
%TO.N,/CIRCUIT/D-*%
X149250000Y-83680000D03*
%TO.P,J1,B8,SBU2*%
%TO.N,unconnected-(J1-SBU2-PadB8)*%
X150250000Y-83680000D03*
D29*
%TO.P,J1,B9,VBUS*%
%TO.N,/CIRCUIT/VBUS*%
X150900000Y-83680000D03*
%TO.P,J1,B12,GND*%
%TO.N,GND*%
X151700000Y-83680000D03*
D31*
%TO.P,J1,S1,SHIELD*%
X152820000Y-83105000D03*
D32*
X152820000Y-78925000D03*
D31*
X144180000Y-83105000D03*
D32*
X144180000Y-78925000D03*
%TD*%
D20*
%TO.P,R6,1*%
%TO.N,GND*%
X152325000Y-85500000D03*
%TO.P,R6,2*%
%TO.N,/CIRCUIT/CC1*%
X150675000Y-85500000D03*
%TD*%
D18*
%TO.P,H2,1,1*%
%TO.N,GND*%
X165500000Y-80500000D03*
%TD*%
D33*
%TO.P,U2,1,I/O1*%
%TO.N,/CIRCUIT/D-*%
X149449999Y-86862500D03*
%TO.P,U2,2,GND*%
%TO.N,GND*%
X148500000Y-86862500D03*
%TO.P,U2,3,I/O2*%
%TO.N,/CIRCUIT/D+*%
X147550001Y-86862500D03*
%TO.P,U2,4,I/O2*%
%TO.N,Net-(R9-Pad2)*%
X147550001Y-89137500D03*
%TO.P,U2,5,VBUS*%
%TO.N,VUSB*%
X148500000Y-89137500D03*
%TO.P,U2,6,I/O1*%
%TO.N,Net-(R8-Pad2)*%
X149449999Y-89137500D03*
%TD*%
D17*
%TO.P,D4,1,K*%
%TO.N,/CIRCUIT/RX_LED*%
X157437501Y-99500000D03*
%TO.P,D4,2,A*%
%TO.N,Net-(D4-A)*%
X155562499Y-99500000D03*
%TD*%
D24*
%TO.P,C2,1*%
%TO.N,VUSB*%
X161000000Y-86750000D03*
%TO.P,C2,2*%
%TO.N,GND*%
X161000000Y-85200000D03*
%TD*%
D34*
%TO.P,D2,1,K*%
%TO.N,Net-(D2-K)*%
X146275000Y-97000000D03*
D35*
%TO.P,D2,2,A*%
%TO.N,Net-(D2-A)*%
X143735000Y-97000000D03*
%TD*%
D34*
%TO.P,Q1,1,C*%
%TO.N,Net-(Q1-C)*%
X153275000Y-97000000D03*
D35*
%TO.P,Q1,2,E*%
%TO.N,GND*%
X150735000Y-97000000D03*
%TD*%
D36*
%TO.N,GND*%
X134250001Y-92249999D03*
X160500000Y-84000000D03*
X161500000Y-93750000D03*
X135500000Y-87499999D03*
X155000000Y-84500000D03*
X139000000Y-99000000D03*
X135250000Y-91250001D03*
X161500000Y-84000000D03*
X131249999Y-90000000D03*
X153800000Y-91400000D03*
X139000000Y-100000000D03*
X145000000Y-90105000D03*
X161500000Y-83000000D03*
X135500000Y-78250000D03*
X145000000Y-91105000D03*
X162500000Y-93750000D03*
X161500000Y-94750000D03*
X134250000Y-84500000D03*
X136500000Y-87500000D03*
X156000000Y-85500000D03*
X144000000Y-90105000D03*
X140000000Y-99000000D03*
X130250000Y-90000000D03*
X149000000Y-93500000D03*
X153800000Y-92400000D03*
X135500000Y-79250000D03*
X160500000Y-83000000D03*
X148500000Y-96500000D03*
X133250001Y-84500000D03*
X139500000Y-78250000D03*
X136500000Y-86500000D03*
X139500000Y-79250000D03*
X135500000Y-86499999D03*
X150750000Y-86500000D03*
X162500000Y-94750000D03*
X135250001Y-92250000D03*
X158500000Y-91750000D03*
X155000000Y-85500000D03*
X131250000Y-90999999D03*
X138500000Y-96000000D03*
X143750000Y-93500000D03*
X148500000Y-97500000D03*
X134250001Y-91250001D03*
X148000000Y-93500000D03*
X148500000Y-85604000D03*
X144000000Y-91105000D03*
X156000000Y-84500000D03*
X135250000Y-89000000D03*
X140000000Y-100000000D03*
X130250000Y-90999998D03*
X141750000Y-92000000D03*
X152800000Y-91400000D03*
%TO.N,Net-(D2-K)*%
X152500000Y-89965000D03*
X152500000Y-88765000D03*
X151000000Y-93750000D03*
X151250000Y-95150000D03*
%TO.N,/CIRCUIT/TX_LED*%
X136000000Y-88500000D03*
X137900000Y-101500000D03*
%TO.N,/CIRCUIT/RX_LED*%
X136750000Y-89500000D03*
X138500000Y-100750000D03*
%TO.N,Net-(Q1-C)*%
X153250000Y-95500000D03*
X160250000Y-95000000D03*
%TO.N,/CIRCUIT/RX*%
X151875000Y-87625000D03*
X134750000Y-85500000D03*
%TO.N,/CIRCUIT/TX*%
X150500000Y-89500000D03*
X138500000Y-86500000D03*
%TD*%
D37*
%TO.N,VUSB*%
X143250000Y-84499998D02*
X143250000Y-85750000D01*
X152834774Y-86250000D02*
X160500000Y-86250000D01*
X130250000Y-96000000D02*
X129250000Y-95000000D01*
X146000000Y-88000000D02*
X147750000Y-88000000D01*
X142050000Y-83299998D02*
X143250000Y-84499998D01*
X137325000Y-97500000D02*
X137325000Y-96325000D01*
X160500000Y-86250000D02*
X161000000Y-86750000D01*
X151924000Y-86326000D02*
X152758774Y-86326000D01*
X143250000Y-85750000D02*
X145500000Y-88000000D01*
X129250000Y-95000000D02*
X129250000Y-84250000D01*
X137325000Y-97500000D02*
X140100000Y-97500000D01*
X130251000Y-83249000D02*
X136672999Y-83249000D01*
X137325000Y-96325000D02*
X137000000Y-96000000D01*
X150250000Y-88000000D02*
X151924000Y-86326000D01*
X148024999Y-88000000D02*
X148500000Y-88475001D01*
X145500000Y-88000000D02*
X146000000Y-88000000D01*
X147750000Y-88000000D02*
X150250000Y-88000000D01*
X147750000Y-88000000D02*
X148024999Y-88000000D01*
X136672999Y-83249000D02*
X137500000Y-84076001D01*
X148500000Y-88475001D02*
X148500000Y-89137500D01*
X137000000Y-96000000D02*
X130250000Y-96000000D01*
X141000000Y-83299998D02*
X142050000Y-83299998D01*
X129250000Y-84250000D02*
X130251000Y-83249000D01*
X152758774Y-86326000D02*
X152834774Y-86250000D01*
X140100000Y-97500000D02*
X142100000Y-99500000D01*
%TO.N,+3V3*%
X158325000Y-94500000D02*
X161325000Y-97500000D01*
X130500000Y-94500000D02*
X137250000Y-94500000D01*
X133912501Y-88912500D02*
X132900000Y-88912500D01*
X139250000Y-94500000D02*
X137250000Y-94500000D01*
X139750000Y-94500000D02*
X139250000Y-94500000D01*
X138100001Y-91452500D02*
X136452500Y-91452500D01*
X154325000Y-94500000D02*
X158325000Y-94500000D01*
X137250000Y-94500000D02*
X136452500Y-93702500D01*
X136452500Y-91452500D02*
X133912501Y-88912500D01*
X154325000Y-94500000D02*
X157325000Y-97500000D01*
X139250000Y-94500000D02*
X154325000Y-94500000D01*
X136452500Y-93702500D02*
X136452500Y-91452500D01*
D38*
%TO.N,Net-(D2-K)*%
X152500000Y-88765000D02*
X152500000Y-88500000D01*
X151000000Y-92000000D02*
X152500000Y-90500000D01*
X148125000Y-95150000D02*
X146275000Y-97000000D01*
X152500000Y-90500000D02*
X152500000Y-89965000D01*
X152500000Y-88500000D02*
X152905000Y-88095000D01*
X151000000Y-93750000D02*
X151000000Y-92000000D01*
X151250000Y-95150000D02*
X148125000Y-95150000D01*
X152905000Y-88095000D02*
X155525000Y-88095000D01*
%TO.N,Net-(D2-A)*%
X143750000Y-97015000D02*
X143735000Y-97000000D01*
X143750000Y-99500000D02*
X143750000Y-97015000D01*
%TO.N,Net-(D3-A)*%
X159675000Y-97500000D02*
X159675000Y-99387499D01*
X159675000Y-99387499D02*
X159562499Y-99500000D01*
%TO.N,/CIRCUIT/TX_LED*%
X137250000Y-89000000D02*
X138012502Y-89000000D01*
X159437501Y-101500000D02*
X161437501Y-99500000D01*
X136750000Y-88500000D02*
X137250000Y-89000000D01*
X137900000Y-101500000D02*
X159437501Y-101500000D01*
X136000000Y-88500000D02*
X136750000Y-88500000D01*
X138012502Y-89000000D02*
X138100002Y-88912500D01*
%TO.N,Net-(D4-A)*%
X155675000Y-97500000D02*
X155675000Y-99387499D01*
X155675000Y-99387499D02*
X155562499Y-99500000D01*
%TO.N,/CIRCUIT/RX_LED*%
X138052501Y-89500000D02*
X138100001Y-89547500D01*
X156187501Y-100750000D02*
X157437501Y-99500000D01*
X138500000Y-100750000D02*
X156187501Y-100750000D01*
X136750000Y-89500000D02*
X138052501Y-89500000D01*
%TO.N,/CIRCUIT/D+*%
X147750000Y-86662501D02*
X147750000Y-83680000D01*
X148000000Y-82500000D02*
X148500000Y-82500000D01*
X147750000Y-82750000D02*
X148000000Y-82500000D01*
X147750000Y-83680000D02*
X147750000Y-82750000D01*
X148500000Y-82500000D02*
X148750000Y-82750000D01*
X147550001Y-86862500D02*
X147750000Y-86662501D01*
X148750000Y-82750000D02*
X148750000Y-83680000D01*
D37*
%TO.N,/CIRCUIT/VBUS*%
X146100000Y-83680000D02*
X146100000Y-83147376D01*
X146100000Y-83147376D02*
X147747376Y-81500000D01*
X149252624Y-81500000D02*
X147747376Y-81500000D01*
X150900000Y-83680000D02*
X150900000Y-83147376D01*
X150900000Y-83147376D02*
X149252624Y-81500000D01*
D38*
%TO.N,/CIRCUIT/D-*%
X148250000Y-84649000D02*
X148500000Y-84899000D01*
X149250000Y-84656513D02*
X149250000Y-83680000D01*
X148250000Y-83680000D02*
X148250000Y-84649000D01*
X149250000Y-86662501D02*
X149250000Y-83680000D01*
X148500000Y-84899000D02*
X149007513Y-84899000D01*
X149007513Y-84899000D02*
X149250000Y-84656513D01*
X149449999Y-86862500D02*
X149250000Y-86662501D01*
%TO.N,/CIRCUIT/CC1*%
X149750000Y-84575000D02*
X150675000Y-85500000D01*
X149750000Y-83679999D02*
X149750000Y-84575000D01*
%TO.N,/CIRCUIT/CC2*%
X146750000Y-83680000D02*
X146750000Y-85075000D01*
X146750000Y-85075000D02*
X146325000Y-85500000D01*
%TO.N,Net-(Q1-C)*%
X160475000Y-91905000D02*
X160250000Y-92130000D01*
X162155000Y-91905000D02*
X162500000Y-92250000D01*
X160475000Y-91905000D02*
X162155000Y-91905000D01*
X153250000Y-95500000D02*
X153250000Y-96975000D01*
X160250000Y-92130000D02*
X160250000Y-95000000D01*
X153250000Y-96975000D02*
X153275000Y-97000000D01*
%TO.N,Net-(U1A-+)*%
X160475000Y-90635000D02*
X162385000Y-90635000D01*
X155525000Y-90635000D02*
X157250000Y-90635000D01*
X162385000Y-90635000D02*
X162500000Y-90750000D01*
X157250000Y-90635000D02*
X160475000Y-90635000D01*
X157250000Y-93500000D02*
X157250000Y-90635000D01*
%TO.N,/CIRCUIT/RX*%
X152250000Y-87250000D02*
X157500000Y-87250000D01*
X157500000Y-87250000D02*
X159615000Y-89365000D01*
X132133000Y-89547500D02*
X131500000Y-88914500D01*
X162385000Y-89365000D02*
X162500000Y-89250000D01*
X131500000Y-86750000D02*
X132750000Y-85500000D01*
X132900001Y-89547500D02*
X132133000Y-89547500D01*
X132750000Y-85500000D02*
X134750000Y-85500000D01*
X160475000Y-89365000D02*
X162385000Y-89365000D01*
X151875000Y-87625000D02*
X152250000Y-87250000D01*
X131500000Y-88914500D02*
X131500000Y-86750000D01*
X159615000Y-89365000D02*
X160475000Y-89365000D01*
%TO.N,/CIRCUIT/A-*%
X148339064Y-92107500D02*
X148038064Y-91806500D01*
X139117502Y-92840000D02*
X139000002Y-92722500D01*
X139000002Y-92722500D02*
X138100001Y-92722500D01*
X149455000Y-92507500D02*
X149055000Y-92107500D01*
X149055000Y-92107500D02*
X148339064Y-92107500D01*
X146760936Y-92107500D02*
X143609656Y-92107500D01*
X143609656Y-92107500D02*
X142877156Y-92840000D01*
X147061936Y-91806500D02*
X146760936Y-92107500D01*
X142877156Y-92840000D02*
X139117502Y-92840000D01*
X148038064Y-91806500D02*
X147061936Y-91806500D01*
%TO.N,Net-(R8-Pad2)*%
X149449999Y-89137500D02*
X149449999Y-90852499D01*
X149449999Y-90852499D02*
X149455000Y-90857500D01*
%TO.N,Net-(R9-Pad2)*%
X147550001Y-89137500D02*
X147550000Y-90857500D01*
%TO.N,/CIRCUIT/A+*%
X144123903Y-92507500D02*
X144029529Y-92507500D01*
X143042844Y-93240000D02*
X139117502Y-93240000D01*
X145443903Y-92507500D02*
X145323903Y-92507500D01*
X145083903Y-92747500D02*
X145083903Y-93053534D01*
X144483903Y-93053534D02*
X144483903Y-92747500D01*
X144243903Y-92507500D02*
X144123903Y-92507500D01*
X139000002Y-93357500D02*
X138100001Y-93357500D01*
X145683903Y-93053534D02*
X145683903Y-92747500D01*
X143775344Y-92507500D02*
X143042844Y-93240000D01*
X146043903Y-93293534D02*
X145923903Y-93293534D01*
X144029529Y-92507500D02*
X143775344Y-92507500D01*
X147550000Y-92507500D02*
X146523903Y-92507500D01*
X144843903Y-93293534D02*
X144723903Y-93293534D01*
X139117502Y-93240000D02*
X139000002Y-93357500D01*
X146283903Y-92747500D02*
X146283903Y-93053534D01*
X144483903Y-92747500D02*
G75*
G03*
X144243903Y-92507497I-240003J0D01*
G01*
X145323903Y-92507500D02*
G75*
G03*
X145083900Y-92747500I-3J-240000D01*
G01*
X145083903Y-93053534D02*
G75*
G02*
X144843903Y-93293503I-240003J34D01*
G01*
X146523903Y-92507500D02*
G75*
G03*
X146283900Y-92747500I-3J-240000D01*
G01*
X146283903Y-93053534D02*
G75*
G02*
X146043903Y-93293503I-240003J34D01*
G01*
X145683903Y-92747500D02*
G75*
G03*
X145443903Y-92507497I-240003J0D01*
G01*
X144723903Y-93293534D02*
G75*
G02*
X144483866Y-93053534I-3J240034D01*
G01*
X145923903Y-93293534D02*
G75*
G02*
X145683866Y-93053534I-3J240034D01*
G01*
%TO.N,/CIRCUIT/TX*%
X155525000Y-89365000D02*
X150635000Y-89365000D01*
X150635000Y-89365000D02*
X150500000Y-89500000D01*
X138100001Y-87642500D02*
X138100001Y-86899999D01*
X138100001Y-86899999D02*
X138500000Y-86500000D01*
X138000000Y-87542499D02*
X138100001Y-87642500D01*
%TO.N,/CIRCUIT/PWR_LED*%
X135675000Y-99387499D02*
X135562499Y-99500000D01*
X135675000Y-97500000D02*
X135675000Y-99387499D01*
%TD*%
%TA.AperFunction,Conductor*%
%TO.N,+3V3*%
G36*
X160564630Y-96951762D02*
G01*
X160649186Y-97044250D01*
X160739727Y-97162029D01*
X160808200Y-97269707D01*
X160866200Y-97385254D01*
X160899519Y-97476580D01*
X160920156Y-97568675D01*
X160925000Y-97665685D01*
X161325707Y-97500707D01*
X161415685Y-97025000D01*
X161303737Y-97031144D01*
X161172451Y-97000670D01*
X161020370Y-96927968D01*
X160857701Y-96812907D01*
X160776762Y-96739630D01*
X160564630Y-96951762D01*
G37*
%TD.AperFunction*%
%TD*%
%TA.AperFunction,Conductor*%
%TO.N,Net-(R8-Pad2)*%
G36*
X149349999Y-90057500D02*
G01*
X149329974Y-90186621D01*
X149302223Y-90267532D01*
X149262563Y-90346807D01*
X149220951Y-90405804D01*
X149171236Y-90454857D01*
X149126126Y-90484004D01*
X149075922Y-90502441D01*
X149052795Y-90506579D01*
X149455000Y-90858500D01*
X149852791Y-90503631D01*
X149765977Y-90475139D01*
X149686753Y-90409902D01*
X149616304Y-90304333D01*
X149564708Y-90164297D01*
X149549999Y-90057500D01*
X149349999Y-90057500D01*
G37*
%TD.AperFunction*%
%TD*%
%TA.AperFunction,Conductor*%
%TO.N,/CIRCUIT/VBUS*%
G36*
X150539426Y-82998934D02*
G01*
X150608692Y-83096357D01*
X150656708Y-83235320D01*
X150668754Y-83317499D01*
X150671168Y-83405977D01*
X150663274Y-83497638D01*
X150644322Y-83593277D01*
X150600000Y-83725904D01*
X150900707Y-83680707D01*
X151029559Y-83105000D01*
X150984644Y-83086868D01*
X150918465Y-83017593D01*
X150842052Y-82908944D01*
X150751558Y-82786802D01*
X150539426Y-82998934D01*
G37*
%TD.AperFunction*%
%TD*%
%TA.AperFunction,Conductor*%
%TO.N,/CIRCUIT/D+*%
G36*
X147650000Y-85909945D02*
G01*
X147629644Y-86010583D01*
X147602637Y-86067898D01*
X147564004Y-86121416D01*
X147523833Y-86158265D01*
X147475624Y-86185926D01*
X147431390Y-86199382D01*
X147381880Y-86203604D01*
X147550001Y-86863500D01*
X147850001Y-86350000D01*
X147831491Y-86293222D01*
X147829895Y-86165594D01*
X147840413Y-86041688D01*
X147850000Y-85909945D01*
X147650000Y-85909945D01*
G37*
%TD.AperFunction*%
%TD*%
%TA.AperFunction,Conductor*%
%TO.N,/CIRCUIT/VCC*%
G36*
X142693039Y-84769685D02*
G01*
X142738794Y-84822489D01*
X142750000Y-84874000D01*
X142750000Y-86198638D01*
X142730315Y-86265677D01*
X142713681Y-86286319D01*
X142536319Y-86463681D01*
X142474996Y-86497166D01*
X142448638Y-86500000D01*
X141749999Y-86500000D01*
X140750000Y-87499999D01*
X140750000Y-88924107D01*
X140730315Y-88991146D01*
X140726503Y-88996721D01*
X140665280Y-89116878D01*
X140649501Y-89216506D01*
X140649501Y-89783493D01*
X140665280Y-89883121D01*
X140665281Y-89883124D01*
X140665282Y-89883126D01*
X140726473Y-90003220D01*
X140726474Y-90003221D01*
X140730904Y-90011915D01*
X140729713Y-90012521D01*
X140749798Y-90068816D01*
X140750000Y-90075892D01*
X140750000Y-90424107D01*
X140730315Y-90491146D01*
X140726500Y-90496726D01*
X140665279Y-90616879D01*
X140649500Y-90716507D01*
X140649500Y-91283494D01*
X140661079Y-91356602D01*
X140652124Y-91425896D01*
X140607128Y-91479348D01*
X140540376Y-91499987D01*
X140538606Y-91500000D01*
X139124000Y-91500000D01*
X139056961Y-91480315D01*
X139011206Y-91427511D01*
X139000000Y-91376000D01*
X139000000Y-91000000D01*
X137624000Y-91000000D01*
X137615314Y-90997449D01*
X137606353Y-90998738D01*
X137582312Y-90987759D01*
X137556961Y-90980315D01*
X137551033Y-90973474D01*
X137542797Y-90969713D01*
X137528507Y-90947478D01*
X137511206Y-90927511D01*
X137508918Y-90916996D01*
X137505023Y-90910935D01*
X137500000Y-90876000D01*
X137500000Y-90707000D01*
X137519685Y-90639961D01*
X137572489Y-90594206D01*
X137624000Y-90583000D01*
X138719751Y-90583000D01*
X138719752Y-90582999D01*
X138734569Y-90580052D01*
X138778230Y-90571368D01*
X138778230Y-90571367D01*
X138778232Y-90571367D01*
X138815280Y-90546611D01*
X138853764Y-90520898D01*
X138920441Y-90500020D01*
X138922655Y-90500000D01*
X139000000Y-90500000D01*
X139000000Y-86798234D01*
X139019685Y-86731195D01*
X139032593Y-86714444D01*
X139650641Y-86040210D01*
X139710452Y-86004093D01*
X139742048Y-86000000D01*
X141500000Y-86000000D01*
X141750000Y-85750000D01*
X141750000Y-84874000D01*
X141769685Y-84806961D01*
X141822489Y-84761206D01*
X141874000Y-84750000D01*
X142626000Y-84750000D01*
X142693039Y-84769685D01*
G37*
%TD.AperFunction*%
%TD*%
%TA.AperFunction,Conductor*%
%TO.N,/CIRCUIT/CC2*%
G36*
X146850000Y-84405000D02*
G01*
X146847822Y-84369185D01*
X146847388Y-84274198D01*
X146861763Y-84233507D01*
X146894291Y-84208701D01*
X146750000Y-83679000D01*
X146605709Y-84208701D01*
X146641225Y-84238490D01*
X146654929Y-84297060D01*
X146652179Y-84369185D01*
X146650000Y-84405000D01*
X146850000Y-84405000D01*
G37*
%TD.AperFunction*%
%TD*%
%TA.AperFunction,Conductor*%
%TO.N,VUSB*%
G36*
X141339630Y-98951762D02*
G01*
X141424186Y-99044250D01*
X141514727Y-99162029D01*
X141583200Y-99269707D01*
X141641200Y-99385254D01*
X141674519Y-99476580D01*
X141695156Y-99568675D01*
X141700000Y-99665685D01*
X142100707Y-99500707D01*
X142190685Y-99025000D01*
X142078737Y-99031144D01*
X141947451Y-99000670D01*
X141795370Y-98927968D01*
X141632701Y-98812907D01*
X141551762Y-98739630D01*
X141339630Y-98951762D01*
G37*
%TD.AperFunction*%
%TD*%
%TA.AperFunction,Conductor*%
%TO.N,/CIRCUIT/TX*%
G36*
X138259997Y-86339597D02*
G01*
X138446953Y-86463767D01*
X138495942Y-86496305D01*
X138500938Y-86503737D01*
X138500946Y-86503776D01*
X138532361Y-86662245D01*
X138554134Y-86772078D01*
X138556042Y-86781700D01*
X138554289Y-86790481D01*
X138546840Y-86795452D01*
X138545821Y-86795607D01*
X138471079Y-86803676D01*
X138469757Y-86803744D01*
X138388755Y-86803288D01*
X138388640Y-86803287D01*
X138351103Y-86802704D01*
X138338335Y-86802506D01*
X138338333Y-86802506D01*
X138338325Y-86802506D01*
X138261846Y-86812499D01*
X138261845Y-86812500D01*
X138218814Y-86845343D01*
X138204853Y-86879784D01*
X138201050Y-86918009D01*
X138196820Y-86925903D01*
X138189407Y-86928551D01*
X138012341Y-86928551D01*
X138004068Y-86925124D01*
X138000641Y-86916851D01*
X138000658Y-86916228D01*
X138004439Y-86845343D01*
X138008291Y-86773126D01*
X138008589Y-86771057D01*
X138034149Y-86663609D01*
X138035112Y-86660998D01*
X138079638Y-86574040D01*
X138080500Y-86572619D01*
X138146618Y-86479478D01*
X138146619Y-86479479D01*
X138146621Y-86479473D01*
X138243992Y-86342562D01*
X138251579Y-86337807D01*
X138259997Y-86339597D01*
G37*
%TD.AperFunction*%
%TD*%
%TA.AperFunction,Conductor*%
%TO.N,Net-(D2-A)*%
G36*
X143650000Y-98625000D02*
G01*
X143629852Y-98772471D01*
X143602079Y-98864468D01*
X143562280Y-98955493D01*
X143520357Y-99024406D01*
X143470099Y-99083297D01*
X143424567Y-99119876D01*
X143373772Y-99145532D01*
X143365224Y-99148463D01*
X143750000Y-99501000D01*
X144134776Y-99148463D01*
X144051401Y-99102329D01*
X143974087Y-99016456D01*
X143906155Y-98886145D01*
X143859569Y-98722068D01*
X143850000Y-98625000D01*
X143650000Y-98625000D01*
G37*
%TD.AperFunction*%
%TD*%
%TA.AperFunction,Conductor*%
%TO.N,VUSB*%
G36*
X148181801Y-88368934D02*
G01*
X148247285Y-88462260D01*
X148289468Y-88593424D01*
X148300168Y-88762027D01*
X148290868Y-88859152D01*
X148270844Y-88961590D01*
X148200000Y-89171247D01*
X148500707Y-89138207D01*
X148648188Y-88475000D01*
X148609156Y-88456873D01*
X148547730Y-88384179D01*
X148487137Y-88290170D01*
X148438088Y-88213351D01*
X148393933Y-88156802D01*
X148181801Y-88368934D01*
G37*
%TD.AperFunction*%
%TD*%
%TA.AperFunction,Conductor*%
%TO.N,Net-(Q1-C)*%
G36*
X160350000Y-92505000D02*
G01*
X160369776Y-92415123D01*
X160396716Y-92363211D01*
X160434784Y-92313460D01*
X160479397Y-92272612D01*
X160533063Y-92239188D01*
X160587449Y-92218101D01*
X160648558Y-92206596D01*
X160682647Y-92205000D01*
X160475000Y-91904000D01*
X160041979Y-92205000D01*
X160087688Y-92223100D01*
X160121292Y-92277376D01*
X160144022Y-92381618D01*
X160150000Y-92505000D01*
X160350000Y-92505000D01*
G37*
%TD.AperFunction*%
%TD*%
%TA.AperFunction,Conductor*%
%TO.N,/CIRCUIT/D-*%
G36*
X149350000Y-84405000D02*
G01*
X149347822Y-84369185D01*
X149347388Y-84274198D01*
X149361763Y-84233507D01*
X149394291Y-84208701D01*
X149250000Y-83679000D01*
X149105709Y-84208701D01*
X149141225Y-84238490D01*
X149154929Y-84297060D01*
X149152179Y-84369185D01*
X149150000Y-84405000D01*
X149350000Y-84405000D01*
G37*
%TD.AperFunction*%
%TD*%
%TA.AperFunction,Conductor*%
%TO.N,/CIRCUIT/TX_LED*%
G36*
X160681183Y-100397740D02*
G01*
X160798542Y-100308047D01*
X160886316Y-100259915D01*
X160984067Y-100218284D01*
X161081132Y-100188227D01*
X161179892Y-100169804D01*
X161261594Y-100165413D01*
X161340046Y-100172930D01*
X161426930Y-100200000D01*
X161438208Y-99499293D01*
X160950001Y-99298070D01*
X160932721Y-99478215D01*
X160874010Y-99691698D01*
X160771135Y-99925453D01*
X160635331Y-100143739D01*
X160539761Y-100256318D01*
X160681183Y-100397740D01*
G37*
%TD.AperFunction*%
%TD*%
%TA.AperFunction,Conductor*%
%TO.N,/CIRCUIT/A+*%
G36*
X146675000Y-92607500D02*
G01*
X146822471Y-92627648D01*
X146914468Y-92655421D01*
X147005493Y-92695220D01*
X147074406Y-92737143D01*
X147133297Y-92787401D01*
X147169876Y-92832933D01*
X147195532Y-92883728D01*
X147198463Y-92892276D01*
X147551000Y-92507500D01*
X147198463Y-92122724D01*
X147152329Y-92206099D01*
X147066456Y-92283413D01*
X146936145Y-92351345D01*
X146772068Y-92397931D01*
X146675000Y-92407500D01*
X146675000Y-92607500D01*
G37*
%TD.AperFunction*%
%TD*%
%TA.AperFunction,Conductor*%
%TO.N,+3V3*%
G36*
X133700000Y-88762500D02*
G01*
X133655171Y-88767534D01*
X133603825Y-88773997D01*
X133553496Y-88772971D01*
X133515212Y-88755468D01*
X133500000Y-88712500D01*
X132899000Y-88912500D01*
X133500000Y-89112500D01*
X133504708Y-89085528D01*
X133517665Y-89067232D01*
X133562027Y-89050885D01*
X133655171Y-89057466D01*
X133700000Y-89062500D01*
X133700000Y-88762500D01*
G37*
%TD.AperFunction*%
%TD*%
%TA.AperFunction,Conductor*%
%TO.N,+3V3*%
G36*
X156564630Y-96951762D02*
G01*
X156649186Y-97044250D01*
X156739727Y-97162029D01*
X156808200Y-97269707D01*
X156866200Y-97385254D01*
X156899519Y-97476580D01*
X156920156Y-97568675D01*
X156925000Y-97665685D01*
X157325707Y-97500707D01*
X157415685Y-97025000D01*
X157303737Y-97031144D01*
X157172451Y-97000670D01*
X157020370Y-96927968D01*
X156857701Y-96812907D01*
X156776762Y-96739630D01*
X156564630Y-96951762D01*
G37*
%TD.AperFunction*%
%TD*%
%TA.AperFunction,Conductor*%
%TO.N,/CIRCUIT/RX_LED*%
G36*
X156681183Y-100397740D02*
G01*
X156798542Y-100308047D01*
X156886316Y-100259915D01*
X156984067Y-100218284D01*
X157081132Y-100188227D01*
X157179892Y-100169804D01*
X157261594Y-100165413D01*
X157340046Y-100172930D01*
X157426930Y-100200000D01*
X157438208Y-99499293D01*
X156950001Y-99298070D01*
X156932721Y-99478215D01*
X156874010Y-99691698D01*
X156771135Y-99925453D01*
X156635331Y-100143739D01*
X156539761Y-100256318D01*
X156681183Y-100397740D01*
G37*
%TD.AperFunction*%
%TD*%
%TA.AperFunction,Conductor*%
%TO.N,Net-(R9-Pad2)*%
G36*
X147650000Y-90100000D02*
G01*
X147655407Y-90024459D01*
X147673253Y-89933898D01*
X147699707Y-89856312D01*
X147738157Y-89786350D01*
X147773174Y-89746212D01*
X147815354Y-89716883D01*
X147838583Y-89707403D01*
X147550001Y-89136501D01*
X147261419Y-89707403D01*
X147328985Y-89748212D01*
X147385969Y-89826048D01*
X147429857Y-89946023D01*
X147450001Y-90099999D01*
X147650000Y-90100000D01*
G37*
%TD.AperFunction*%
%TD*%
%TA.AperFunction,Conductor*%
%TO.N,/CIRCUIT/VBUS*%
G36*
X150539426Y-82998934D02*
G01*
X150608692Y-83096357D01*
X150656708Y-83235320D01*
X150668754Y-83317499D01*
X150671168Y-83405977D01*
X150663274Y-83497638D01*
X150644322Y-83593277D01*
X150600000Y-83725904D01*
X150900707Y-83680707D01*
X151029559Y-83105000D01*
X150984644Y-83086868D01*
X150918465Y-83017593D01*
X150842052Y-82908944D01*
X150751558Y-82786802D01*
X150539426Y-82998934D01*
G37*
%TD.AperFunction*%
%TD*%
%TA.AperFunction,Conductor*%
%TO.N,VUSB*%
G36*
X162265677Y-86269685D02*
G01*
X162286319Y-86286319D01*
X164463681Y-88463681D01*
X164497166Y-88525004D01*
X164500000Y-88551362D01*
X164500000Y-92626000D01*
X164480315Y-92693039D01*
X164427511Y-92738794D01*
X164376000Y-92750000D01*
X163874000Y-92750000D01*
X163806961Y-92730315D01*
X163761206Y-92677511D01*
X163750000Y-92626000D01*
X163750000Y-89000000D01*
X163250000Y-88500000D01*
X159624000Y-88500000D01*
X159556961Y-88480315D01*
X159511206Y-88427511D01*
X159500000Y-88376000D01*
X159500000Y-87301362D01*
X159519685Y-87234323D01*
X159536319Y-87213681D01*
X160463681Y-86286319D01*
X160525004Y-86252834D01*
X160551362Y-86250000D01*
X162198638Y-86250000D01*
X162265677Y-86269685D01*
G37*
%TD.AperFunction*%
%TD*%
%TA.AperFunction,Conductor*%
%TO.N,Net-(U1A-+)*%
G36*
X157150000Y-92625000D02*
G01*
X157129852Y-92772471D01*
X157102079Y-92864468D01*
X157062280Y-92955493D01*
X157020357Y-93024406D01*
X156970099Y-93083297D01*
X156924567Y-93119876D01*
X156873772Y-93145532D01*
X156865224Y-93148463D01*
X157250000Y-93501000D01*
X157634776Y-93148463D01*
X157551401Y-93102329D01*
X157474087Y-93016456D01*
X157406155Y-92886145D01*
X157359569Y-92722068D01*
X157350000Y-92625000D01*
X157150000Y-92625000D01*
G37*
%TD.AperFunction*%
%TD*%
%TA.AperFunction,Conductor*%
%TO.N,Net-(Q1-C)*%
G36*
X161750000Y-91805000D02*
G01*
X161674458Y-91799593D01*
X161583896Y-91781747D01*
X161506310Y-91755293D01*
X161436348Y-91716843D01*
X161396211Y-91681825D01*
X161366882Y-91639646D01*
X161357403Y-91616418D01*
X160474000Y-91905000D01*
X161357403Y-92193582D01*
X161398212Y-92126016D01*
X161476048Y-92069032D01*
X161596023Y-92025144D01*
X161750000Y-92005000D01*
X161750000Y-91805000D01*
G37*
%TD.AperFunction*%
%TD*%
%TA.AperFunction,Conductor*%
%TO.N,/CIRCUIT/RX*%
G36*
X161750000Y-89265000D02*
G01*
X161674458Y-89259593D01*
X161583896Y-89241747D01*
X161506310Y-89215293D01*
X161436348Y-89176843D01*
X161396211Y-89141825D01*
X161366882Y-89099646D01*
X161357403Y-89076418D01*
X160474000Y-89365000D01*
X161357403Y-89653582D01*
X161398212Y-89586016D01*
X161476048Y-89529032D01*
X161596023Y-89485144D01*
X161750000Y-89465000D01*
X161750000Y-89265000D01*
G37*
%TD.AperFunction*%
%TD*%
%TA.AperFunction,Conductor*%
%TO.N,/CIRCUIT/D+*%
G36*
X148650000Y-82955000D02*
G01*
X148652179Y-82990815D01*
X148652612Y-83085803D01*
X148638237Y-83126494D01*
X148605709Y-83151299D01*
X148750000Y-83681000D01*
X148894291Y-83151299D01*
X148858776Y-83121511D01*
X148845071Y-83062940D01*
X148847822Y-82990815D01*
X148850000Y-82955000D01*
X148650000Y-82955000D01*
G37*
%TD.AperFunction*%
%TD*%
%TA.AperFunction,Conductor*%
%TO.N,/CIRCUIT/CC2*%
G36*
X146650000Y-84750714D02*
G01*
X146618474Y-84834858D01*
X146541538Y-84923873D01*
X146487370Y-84963115D01*
X146424352Y-84995564D01*
X146357386Y-85018234D01*
X146284099Y-85031378D01*
X146211557Y-85033612D01*
X146134915Y-85025000D01*
X146325000Y-85501000D01*
X146725000Y-85606420D01*
X146731698Y-85425074D01*
X146777083Y-85135769D01*
X146805006Y-84994350D01*
X146850000Y-84750714D01*
X146650000Y-84750714D01*
G37*
%TD.AperFunction*%
%TD*%
%TA.AperFunction,Conductor*%
%TO.N,Net-(D3-A)*%
G36*
X159575000Y-98312500D02*
G01*
X159555526Y-98435781D01*
X159527628Y-98515876D01*
X159488271Y-98597426D01*
X159440479Y-98672667D01*
X159383269Y-98741331D01*
X159327225Y-98791947D01*
X159264984Y-98832494D01*
X159207694Y-98857153D01*
X159146392Y-98871393D01*
X159562499Y-99501000D01*
X160031445Y-98950471D01*
X159961415Y-98900763D01*
X159893855Y-98805392D01*
X159831791Y-98653262D01*
X159786367Y-98450521D01*
X159775000Y-98312500D01*
X159575000Y-98312500D01*
G37*
%TD.AperFunction*%
%TD*%
%TA.AperFunction,Conductor*%
%TO.N,Net-(D4-A)*%
G36*
X155775000Y-98375000D02*
G01*
X155795148Y-98227529D01*
X155822921Y-98135532D01*
X155862720Y-98044508D01*
X155904643Y-97975594D01*
X155954902Y-97916704D01*
X156000433Y-97880124D01*
X156051228Y-97854468D01*
X156059776Y-97851537D01*
X155675000Y-97499000D01*
X155290224Y-97851537D01*
X155373599Y-97897671D01*
X155450913Y-97983546D01*
X155518845Y-98113856D01*
X155565431Y-98277933D01*
X155575000Y-98375000D01*
X155775000Y-98375000D01*
G37*
%TD.AperFunction*%
%TD*%
%TA.AperFunction,Conductor*%
%TO.N,/CIRCUIT/TX_LED*%
G36*
X137300002Y-89100000D02*
G01*
X137357432Y-89093271D01*
X137452205Y-89083883D01*
X137486533Y-89090817D01*
X137500002Y-89112500D01*
X138101002Y-88912500D01*
X137500002Y-88776962D01*
X137495289Y-88809872D01*
X137482297Y-88836385D01*
X137434389Y-88874911D01*
X137354552Y-88896647D01*
X137300002Y-88900000D01*
X137300002Y-89100000D01*
G37*
%TD.AperFunction*%
%TD*%
%TA.AperFunction,Conductor*%
%TO.N,Net-(D2-K)*%
G36*
X154250000Y-88195000D02*
G01*
X154325542Y-88200407D01*
X154416104Y-88218253D01*
X154493691Y-88244707D01*
X154563652Y-88283157D01*
X154603789Y-88318174D01*
X154633118Y-88360354D01*
X154642597Y-88383582D01*
X155526000Y-88095000D01*
X154642597Y-87806418D01*
X154601788Y-87873983D01*
X154523953Y-87930967D01*
X154403979Y-87974855D01*
X154250000Y-87995000D01*
X154250000Y-88195000D01*
G37*
%TD.AperFunction*%
%TD*%
%TA.AperFunction,Conductor*%
%TO.N,VUSB*%
G36*
X145093414Y-87805546D02*
G01*
X145183528Y-87884183D01*
X145299616Y-87985209D01*
X145414371Y-88096228D01*
X145503243Y-88207400D01*
X145530302Y-88259968D01*
X145541685Y-88308885D01*
X146000707Y-88000707D01*
X145750000Y-87550000D01*
X145721137Y-87597014D01*
X145688085Y-87632859D01*
X145612093Y-87675492D01*
X145521688Y-87684913D01*
X145417649Y-87660425D01*
X145317857Y-87603985D01*
X145305546Y-87593414D01*
X145093414Y-87805546D01*
G37*
%TD.AperFunction*%
%TD*%
%TA.AperFunction,Conductor*%
%TO.N,/CIRCUIT/VBUS*%
G36*
X149015677Y-81019685D02*
G01*
X149036319Y-81036319D01*
X149713681Y-81713681D01*
X149728384Y-81740608D01*
X149744977Y-81766427D01*
X149745868Y-81772627D01*
X149747166Y-81775004D01*
X149750000Y-81801362D01*
X149750000Y-81876000D01*
X149730315Y-81943039D01*
X149677511Y-81988794D01*
X149626000Y-82000000D01*
X144647865Y-82000000D01*
X144580826Y-81980315D01*
X144578974Y-81979102D01*
X144511816Y-81934228D01*
X144511804Y-81934221D01*
X144384332Y-81881421D01*
X144384322Y-81881418D01*
X144248995Y-81854500D01*
X144248993Y-81854500D01*
X144111007Y-81854500D01*
X144111005Y-81854500D01*
X143975677Y-81881418D01*
X143975667Y-81881421D01*
X143848195Y-81934221D01*
X143848183Y-81934228D01*
X143781026Y-81979102D01*
X143714349Y-81999980D01*
X143712135Y-82000000D01*
X142499999Y-82000000D01*
X142036319Y-82463681D01*
X141974996Y-82497166D01*
X141948638Y-82500000D01*
X140124000Y-82500000D01*
X140056961Y-82480315D01*
X140011206Y-82427511D01*
X140000000Y-82376000D01*
X140000000Y-81124000D01*
X140019685Y-81056961D01*
X140072489Y-81011206D01*
X140124000Y-81000000D01*
X148948638Y-81000000D01*
X149015677Y-81019685D01*
G37*
%TD.AperFunction*%
%TD*%
%TA.AperFunction,Conductor*%
%TO.N,/CIRCUIT/TX*%
G36*
X154250000Y-89465000D02*
G01*
X154325542Y-89470407D01*
X154416104Y-89488253D01*
X154493691Y-89514707D01*
X154563652Y-89553157D01*
X154603789Y-89588174D01*
X154633118Y-89630354D01*
X154642597Y-89653582D01*
X155526000Y-89365000D01*
X154642597Y-89076418D01*
X154601788Y-89143983D01*
X154523953Y-89200967D01*
X154403979Y-89244855D01*
X154250000Y-89265000D01*
X154250000Y-89465000D01*
G37*
%TD.AperFunction*%
%TD*%
%TA.AperFunction,Conductor*%
%TO.N,/CIRCUIT/A+*%
G36*
X138900001Y-93257500D02*
G01*
X138845168Y-93255938D01*
X138779038Y-93245000D01*
X138723390Y-93215313D01*
X138706302Y-93190508D01*
X138700001Y-93157500D01*
X138099001Y-93357500D01*
X138700001Y-93557500D01*
X138704712Y-93528582D01*
X138717689Y-93505857D01*
X138765956Y-93474291D01*
X138849534Y-93458763D01*
X138900001Y-93457500D01*
X138900001Y-93257500D01*
G37*
%TD.AperFunction*%
%TD*%
%TA.AperFunction,Conductor*%
%TO.N,GND*%
G36*
X166003736Y-77750726D02*
G01*
X166263662Y-77766448D01*
X166278524Y-77768253D01*
X166349528Y-77781264D01*
X166530969Y-77814515D01*
X166545498Y-77818096D01*
X166790523Y-77894449D01*
X166804516Y-77899755D01*
X167038562Y-78005091D01*
X167051808Y-78012044D01*
X167271449Y-78144821D01*
X167283760Y-78153319D01*
X167407164Y-78250000D01*
X167485792Y-78311601D01*
X167497000Y-78321531D01*
X167678468Y-78502999D01*
X167688398Y-78514207D01*
X167846676Y-78716233D01*
X167855182Y-78728556D01*
X167987952Y-78948185D01*
X167994911Y-78961444D01*
X168100242Y-79195480D01*
X168105551Y-79209480D01*
X168181901Y-79454494D01*
X168185485Y-79469034D01*
X168231746Y-79721475D01*
X168233551Y-79736339D01*
X168249274Y-79996263D01*
X168249500Y-80003750D01*
X168249500Y-99996249D01*
X168249274Y-100003736D01*
X168233551Y-100263660D01*
X168231746Y-100278524D01*
X168185485Y-100530965D01*
X168181901Y-100545505D01*
X168105551Y-100790519D01*
X168100242Y-100804519D01*
X167994911Y-101038555D01*
X167987952Y-101051814D01*
X167855182Y-101271443D01*
X167846676Y-101283766D01*
X167688398Y-101485792D01*
X167678468Y-101497000D01*
X167497000Y-101678468D01*
X167485792Y-101688398D01*
X167283766Y-101846676D01*
X167271443Y-101855182D01*
X167051814Y-101987952D01*
X167038555Y-101994911D01*
X166804519Y-102100242D01*
X166790519Y-102105551D01*
X166545505Y-102181901D01*
X166530965Y-102185485D01*
X166278524Y-102231746D01*
X166263660Y-102233551D01*
X166003736Y-102249274D01*
X165996249Y-102249500D01*
X131003751Y-102249500D01*
X130996264Y-102249274D01*
X130736339Y-102233551D01*
X130721475Y-102231746D01*
X130469034Y-102185485D01*
X130454494Y-102181901D01*
X130209480Y-102105551D01*
X130195480Y-102100242D01*
X129961444Y-101994911D01*
X129948185Y-101987952D01*
X129912519Y-101966391D01*
X129728553Y-101855180D01*
X129716233Y-101846676D01*
X129665991Y-101807314D01*
X129514207Y-101688398D01*
X129502999Y-101678468D01*
X129321531Y-101497000D01*
X129311601Y-101485792D01*
X129171380Y-101306814D01*
X129153319Y-101283760D01*
X129144821Y-101271449D01*
X129012044Y-101051808D01*
X129005091Y-101038562D01*
X128899755Y-100804516D01*
X128894448Y-100790519D01*
X128818096Y-100545498D01*
X128814514Y-100530965D01*
X128806238Y-100485806D01*
X128768253Y-100278524D01*
X128766448Y-100263660D01*
X128761115Y-100175500D01*
X128750726Y-100003736D01*
X128750500Y-99996249D01*
X128750500Y-98990231D01*
X134874499Y-98990231D01*
X134874499Y-100009768D01*
X134877312Y-100039769D01*
X134877314Y-100039781D01*
X134921543Y-100166178D01*
X134921544Y-100166180D01*
X135001068Y-100273930D01*
X135108818Y-100353454D01*
X135108820Y-100353455D01*
X135235217Y-100397684D01*
X135235221Y-100397684D01*
X135235225Y-100397686D01*
X135250230Y-100399093D01*
X135265231Y-100400500D01*
X135265235Y-100400500D01*
X135859767Y-100400500D01*
X135873435Y-100399218D01*
X135889773Y-100397686D01*
X135889777Y-100397684D01*
X135889780Y-100397684D01*
X135960844Y-100372816D01*
X136016178Y-100353455D01*
X136123929Y-100273930D01*
X136203454Y-100166179D01*
X136225544Y-100103050D01*
X136247683Y-100039781D01*
X136247683Y-100039778D01*
X136247685Y-100039774D01*
X136250163Y-100013347D01*
X136250499Y-100009768D01*
X136250499Y-98990231D01*
X136247685Y-98960230D01*
X136247685Y-98960226D01*
X136247683Y-98960222D01*
X136247683Y-98960218D01*
X136203454Y-98833821D01*
X136203453Y-98833819D01*
X136123929Y-98726069D01*
X136094014Y-98703991D01*
X136083559Y-98690553D01*
X136070681Y-98681509D01*
X136052835Y-98651060D01*
X136032478Y-98601160D01*
X136026291Y-98581431D01*
X136025840Y-98579418D01*
X135991880Y-98427844D01*
X135989302Y-98410937D01*
X135985976Y-98370547D01*
X135986698Y-98343595D01*
X135995239Y-98281084D01*
X135999388Y-98262042D01*
X136013984Y-98213690D01*
X136019073Y-98199866D01*
X136028742Y-98177755D01*
X136073637Y-98124218D01*
X136086061Y-98116950D01*
X136087661Y-98116135D01*
X136113342Y-98103050D01*
X136203050Y-98013342D01*
X136260646Y-97900304D01*
X136260646Y-97900302D01*
X136260647Y-97900301D01*
X136275499Y-97806524D01*
X136275500Y-97806519D01*
X136275499Y-97193482D01*
X136260646Y-97099696D01*
X136203050Y-96986658D01*
X136203046Y-96986654D01*
X136203045Y-96986652D01*
X136113347Y-96896954D01*
X136113344Y-96896952D01*
X136113342Y-96896950D01*
X136019771Y-96849273D01*
X136000301Y-96839352D01*
X135906524Y-96824500D01*
X135443482Y-96824500D01*
X135368083Y-96836442D01*
X135349696Y-96839354D01*
X135236658Y-96896950D01*
X135236657Y-96896951D01*
X135236652Y-96896954D01*
X135146954Y-96986652D01*
X135146951Y-96986657D01*
X135089352Y-97099698D01*
X135074500Y-97193475D01*
X135074500Y-97806517D01*
X135084584Y-97870185D01*
X135089354Y-97900304D01*
X135146950Y-98013342D01*
X135146952Y-98013344D01*
X135146954Y-98013347D01*
X135236652Y-98103045D01*
X135236654Y-98103046D01*
X135236658Y-98103050D01*
X135262341Y-98116136D01*
X135277405Y-98130364D01*
X135295400Y-98140645D01*
X135310436Y-98161560D01*
X135313136Y-98164110D01*
X135316002Y-98169302D01*
X135321037Y-98178961D01*
X135330365Y-98202411D01*
X135357591Y-98298303D01*
X135360787Y-98351518D01*
X135357143Y-98374587D01*
X135351762Y-98396028D01*
X135339771Y-98430453D01*
X135334346Y-98443560D01*
X135311528Y-98490841D01*
X135304523Y-98503431D01*
X135278408Y-98544545D01*
X135269005Y-98557434D01*
X135252074Y-98577755D01*
X135197762Y-98615422D01*
X135108820Y-98646544D01*
X135108818Y-98646545D01*
X135001068Y-98726069D01*
X134921544Y-98833819D01*
X134921543Y-98833821D01*
X134877314Y-98960218D01*
X134877312Y-98960230D01*
X134874499Y-98990231D01*
X128750500Y-98990231D01*
X128750500Y-95295058D01*
X128770185Y-95228019D01*
X128822989Y-95182264D01*
X128892147Y-95172320D01*
X128955703Y-95201345D01*
X128963561Y-95209686D01*
X128963783Y-95209465D01*
X128969530Y-95215212D01*
X130034788Y-96280470D01*
X130107713Y-96322573D01*
X130114712Y-96326614D01*
X130203856Y-96350500D01*
X130203857Y-96350500D01*
X130296144Y-96350500D01*
X136803455Y-96350500D01*
X136832891Y-96359143D01*
X136862881Y-96365667D01*
X136867897Y-96369422D01*
X136870494Y-96370185D01*
X136891135Y-96386818D01*
X136938180Y-96433862D01*
X136971666Y-96495185D01*
X136974500Y-96521544D01*
X136974500Y-96588105D01*
X136970547Y-96619164D01*
X136969205Y-96624350D01*
X136969204Y-96624354D01*
X136969204Y-96624357D01*
X136966370Y-96674142D01*
X136965027Y-96697737D01*
X136963497Y-96711329D01*
X136949046Y-96796937D01*
X136945572Y-96811844D01*
X136941337Y-96825997D01*
X136903260Y-96884580D01*
X136894161Y-96890676D01*
X136894552Y-96891214D01*
X136886657Y-96896950D01*
X136796954Y-96986652D01*
X136796951Y-96986657D01*
X136739352Y-97099698D01*
X136724500Y-97193475D01*
X136724500Y-97806517D01*
X136734584Y-97870185D01*
X136739354Y-97900304D01*
X136796950Y-98013342D01*
X136796952Y-98013344D01*
X136796954Y-98013347D01*
X136886652Y-98103045D01*
X136886654Y-98103046D01*
X136886658Y-98103050D01*
X136999694Y-98160645D01*
X136999698Y-98160647D01*
X137093475Y-98175499D01*
X137093481Y-98175500D01*
X137556518Y-98175499D01*
X137650304Y-98160646D01*
X137763342Y-98103050D01*
X137853050Y-98013342D01*
X137886358Y-97947969D01*
X137909688Y-97923265D01*
X137932684Y-97898151D01*
X137933890Y-97897639D01*
X137934330Y-97897174D01*
X137965172Y-97884376D01*
X138035039Y-97865923D01*
X138055937Y-97862282D01*
X138132123Y-97855656D01*
X138135645Y-97854713D01*
X138167695Y-97850500D01*
X139903456Y-97850500D01*
X139970495Y-97870185D01*
X139991137Y-97886819D01*
X141173403Y-99069085D01*
X141179609Y-99075764D01*
X141186413Y-99083650D01*
X141195508Y-99098678D01*
X141264244Y-99173863D01*
X141265411Y-99175215D01*
X141265567Y-99175559D01*
X141269832Y-99180643D01*
X141342862Y-99275642D01*
X141349190Y-99284678D01*
X141400833Y-99365891D01*
X141407018Y-99376799D01*
X141449010Y-99460454D01*
X141454668Y-99473563D01*
X141474150Y-99526960D01*
X141478657Y-99542337D01*
X141488470Y-99586127D01*
X141491317Y-99607057D01*
X141493930Y-99659384D01*
X141493932Y-99659408D01*
X141498372Y-99692103D01*
X141499500Y-99708787D01*
X141499500Y-99806517D01*
X141504294Y-99836784D01*
X141514354Y-99900304D01*
X141571950Y-100013342D01*
X141571952Y-100013344D01*
X141571954Y-100013347D01*
X141661652Y-100103045D01*
X141661654Y-100103046D01*
X141661658Y-100103050D01*
X141774694Y-100160645D01*
X141774698Y-100160647D01*
X141868475Y-100175499D01*
X141868481Y-100175500D01*
X142331518Y-100175499D01*
X142425304Y-100160646D01*
X142538342Y-100103050D01*
X142628050Y-100013342D01*
X142685646Y-99900304D01*
X142685646Y-99900302D01*
X142685647Y-99900301D01*
X142700499Y-99806524D01*
X142700500Y-99806519D01*
X142700499Y-99193482D01*
X142685646Y-99099696D01*
X142628050Y-98986658D01*
X142628046Y-98986654D01*
X142628045Y-98986652D01*
X142538347Y-98896954D01*
X142538344Y-98896952D01*
X142538342Y-98896950D01*
X142461517Y-98857805D01*
X142425301Y-98839352D01*
X142331524Y-98824500D01*
X142331519Y-98824500D01*
X142200482Y-98824500D01*
X142199237Y-98824494D01*
X142191076Y-98824412D01*
X142164510Y-98820627D01*
X142110316Y-98823601D01*
X142106288Y-98823561D01*
X142102254Y-98822332D01*
X142079495Y-98820356D01*
X142029013Y-98808638D01*
X142003570Y-98799723D01*
X141909287Y-98754651D01*
X141891161Y-98744012D01*
X141767544Y-98656573D01*
X141759021Y-98649970D01*
X141757450Y-98648640D01*
X141697933Y-98594757D01*
X141682848Y-98585471D01*
X141675700Y-98579418D01*
X141674345Y-98577362D01*
X141668149Y-98572467D01*
X140315213Y-97219531D01*
X140315208Y-97219527D01*
X140235290Y-97173387D01*
X140235289Y-97173386D01*
X140235288Y-97173386D01*
X140146144Y-97149500D01*
X140146143Y-97149500D01*
X138163714Y-97149500D01*
X138150721Y-97148817D01*
X138140965Y-97147789D01*
X138127723Y-97144227D01*
X138071876Y-97140509D01*
X138069480Y-97140257D01*
X138068786Y-97139971D01*
X138059407Y-97138776D01*
X137998706Y-97127284D01*
X137982811Y-97123168D01*
X137958778Y-97115214D01*
X137901319Y-97075463D01*
X137887257Y-97053794D01*
X137853050Y-96986658D01*
X137853048Y-96986656D01*
X137853045Y-96986652D01*
X137779782Y-96913389D01*
X142634500Y-96913389D01*
X142634500Y-97086611D01*
X142636573Y-97099697D01*
X142657427Y-97231371D01*
X142661598Y-97257701D01*
X142715127Y-97422445D01*
X142793768Y-97576788D01*
X142793771Y-97576792D01*
X142812672Y-97602807D01*
X142824374Y-97622519D01*
X142829118Y-97632513D01*
X142829120Y-97632516D01*
X142829122Y-97632520D01*
X143009923Y-97875607D01*
X143012837Y-97879372D01*
X143014775Y-97881875D01*
X143015300Y-97882526D01*
X143020285Y-97888484D01*
X143164566Y-98054439D01*
X143165263Y-98055248D01*
X143292168Y-98203905D01*
X143299727Y-98213714D01*
X143335768Y-98265653D01*
X143343281Y-98277948D01*
X143371002Y-98329876D01*
X143377822Y-98345014D01*
X143400171Y-98405064D01*
X143404777Y-98420405D01*
X143423281Y-98500506D01*
X143425601Y-98513820D01*
X143438601Y-98623493D01*
X143439396Y-98634022D01*
X143439432Y-98635119D01*
X143438358Y-98655969D01*
X143429762Y-98718896D01*
X143425612Y-98737950D01*
X143411019Y-98786289D01*
X143405924Y-98800130D01*
X143396255Y-98822243D01*
X143351361Y-98875781D01*
X143338939Y-98883048D01*
X143311657Y-98896949D01*
X143311657Y-98896950D01*
X143221954Y-98986652D01*
X143221951Y-98986657D01*
X143221950Y-98986658D01*
X143220127Y-98990236D01*
X143164352Y-99099698D01*
X143149500Y-99193475D01*
X143149500Y-99806517D01*
X143154294Y-99836784D01*
X143164354Y-99900304D01*
X143221950Y-100013342D01*
X143221952Y-100013344D01*
X143221954Y-100013347D01*
X143311652Y-100103045D01*
X143311654Y-100103046D01*
X143311658Y-100103050D01*
X143424694Y-100160645D01*
X143424698Y-100160647D01*
X143518475Y-100175499D01*
X143518481Y-100175500D01*
X143981518Y-100175499D01*
X144075304Y-100160646D01*
X144188342Y-100103050D01*
X144278050Y-100013342D01*
X144335646Y-99900304D01*
X144335646Y-99900302D01*
X144335647Y-99900301D01*
X144350499Y-99806524D01*
X144350500Y-99806519D01*
X144350499Y-99193482D01*
X144335646Y-99099696D01*
X144278050Y-98986658D01*
X144278046Y-98986654D01*
X144278045Y-98986652D01*
X144188343Y-98896950D01*
X144162657Y-98883862D01*
X144147592Y-98869633D01*
X144129598Y-98859353D01*
X144114559Y-98838435D01*
X144111861Y-98835887D01*
X144109019Y-98830741D01*
X144103955Y-98821026D01*
X144094632Y-98797585D01*
X144081150Y-98750102D01*
X144065304Y-98694291D01*
X144061189Y-98672596D01*
X144060207Y-98662639D01*
X144059664Y-98646766D01*
X144059991Y-98635850D01*
X144060621Y-98626558D01*
X144072403Y-98515221D01*
X144074126Y-98503938D01*
X144088819Y-98430544D01*
X144091982Y-98418120D01*
X144096035Y-98405064D01*
X144107250Y-98368939D01*
X144114796Y-98350190D01*
X144165821Y-98248301D01*
X144177642Y-98229233D01*
X144275493Y-98099340D01*
X144279945Y-98093773D01*
X144329586Y-98035228D01*
X144329600Y-98035210D01*
X144329663Y-98035137D01*
X144331080Y-98033448D01*
X144474562Y-97860501D01*
X144478751Y-97855281D01*
X144479205Y-97854696D01*
X144483005Y-97849641D01*
X144642308Y-97630787D01*
X144644556Y-97627636D01*
X144644819Y-97627260D01*
X144646830Y-97622552D01*
X144660542Y-97598381D01*
X144676232Y-97576788D01*
X144754873Y-97422445D01*
X144808402Y-97257701D01*
X144835500Y-97086611D01*
X144835500Y-96913389D01*
X144808402Y-96742299D01*
X144754873Y-96577555D01*
X144676232Y-96423212D01*
X144574414Y-96283072D01*
X144451928Y-96160586D01*
X144311788Y-96058768D01*
X144157445Y-95980127D01*
X143992701Y-95926598D01*
X143992699Y-95926597D01*
X143992698Y-95926597D01*
X143833026Y-95901308D01*
X143821611Y-95899500D01*
X143648389Y-95899500D01*
X143636974Y-95901308D01*
X143477302Y-95926597D01*
X143312552Y-95980128D01*
X143158211Y-96058768D01*
X143087993Y-96109785D01*
X143018072Y-96160586D01*
X143018070Y-96160588D01*
X143018069Y-96160588D01*
X142895588Y-96283069D01*
X142895588Y-96283070D01*
X142895586Y-96283072D01*
X142866887Y-96322573D01*
X142793768Y-96423211D01*
X142715128Y-96577552D01*
X142661597Y-96742302D01*
X142637103Y-96896954D01*
X142634500Y-96913389D01*
X137779782Y-96913389D01*
X137763344Y-96896951D01*
X137756214Y-96891771D01*
X137739018Y-96869473D01*
X137719404Y-96849273D01*
X137715935Y-96839539D01*
X137713547Y-96836442D01*
X137707557Y-96816026D01*
X137706711Y-96811844D01*
X137687794Y-96718285D01*
X137685569Y-96701307D01*
X137680788Y-96623395D01*
X137679122Y-96616654D01*
X137675500Y-96586903D01*
X137675500Y-96278858D01*
X137675500Y-96278856D01*
X137651614Y-96189712D01*
X137650022Y-96186954D01*
X137605473Y-96109794D01*
X137605470Y-96109791D01*
X137605469Y-96109788D01*
X137540212Y-96044531D01*
X137215212Y-95719530D01*
X137215211Y-95719529D01*
X137215208Y-95719527D01*
X137135288Y-95673386D01*
X137125478Y-95670757D01*
X137125477Y-95670757D01*
X137079979Y-95658566D01*
X137046144Y-95649500D01*
X137046143Y-95649500D01*
X130446544Y-95649500D01*
X130379505Y-95629815D01*
X130358863Y-95613181D01*
X130093902Y-95348220D01*
X130060417Y-95286897D01*
X130065401Y-95217205D01*
X130107273Y-95161272D01*
X130172737Y-95136855D01*
X130229033Y-95145977D01*
X130295672Y-95173580D01*
X130295676Y-95173580D01*
X130295677Y-95173581D01*
X130431004Y-95200500D01*
X130431007Y-95200500D01*
X130568993Y-95200500D01*
X130620877Y-95190179D01*
X130639644Y-95187917D01*
X130658222Y-95187108D01*
X130750201Y-95164608D01*
X130750215Y-95164604D01*
X130750224Y-95164602D01*
X130754640Y-95163409D01*
X130759676Y-95162049D01*
X130760744Y-95161733D01*
X130770022Y-95158747D01*
X130855787Y-95128880D01*
X130869835Y-95123402D01*
X130871406Y-95122722D01*
X130884955Y-95116260D01*
X131029502Y-95040720D01*
X131040202Y-95034715D01*
X131041403Y-95033993D01*
X131051803Y-95027307D01*
X131128642Y-94974573D01*
X131129125Y-94974244D01*
X131197392Y-94928023D01*
X131211067Y-94919991D01*
X131260315Y-94895161D01*
X131283563Y-94886241D01*
X131346072Y-94869225D01*
X131369296Y-94865226D01*
X131495046Y-94855733D01*
X131500034Y-94854444D01*
X131531060Y-94850500D01*
X137203856Y-94850500D01*
X139010408Y-94850500D01*
X139077447Y-94870185D01*
X139120892Y-94918205D01*
X139151469Y-94978216D01*
X139151476Y-94978225D01*
X139246774Y-95073523D01*
X139246778Y-95073526D01*
X139246780Y-95073528D01*
X139366874Y-95134719D01*
X139366876Y-95134719D01*
X139366878Y-95134720D01*
X139466507Y-95150500D01*
X139466512Y-95150500D01*
X140033493Y-95150500D01*
X140133121Y-95134720D01*
X140133121Y-95134719D01*
X140133126Y-95134719D01*
X140253220Y-95073528D01*
X140348528Y-94978220D01*
X140369662Y-94936743D01*
X140379108Y-94918205D01*
X140427082Y-94867409D01*
X140489592Y-94850500D01*
X147700167Y-94850500D01*
X147721415Y-94856739D01*
X147743501Y-94858319D01*
X147754283Y-94866390D01*
X147767206Y-94870185D01*
X147781704Y-94886917D01*
X147799435Y-94900190D01*
X147804142Y-94912811D01*
X147812961Y-94922989D01*
X147816112Y-94944905D01*
X147823851Y-94965655D01*
X147820988Y-94978815D01*
X147822905Y-94992147D01*
X147813706Y-95012289D01*
X147808999Y-95033928D01*
X147795728Y-95051654D01*
X147793880Y-95055703D01*
X147787868Y-95062159D01*
X147667764Y-95182264D01*
X147628957Y-95221071D01*
X147605217Y-95238893D01*
X147605301Y-95239016D01*
X147602492Y-95240939D01*
X147601007Y-95242055D01*
X147600284Y-95242451D01*
X147600277Y-95242457D01*
X147494038Y-95331718D01*
X147454620Y-95364836D01*
X147440919Y-95374832D01*
X147225600Y-95510392D01*
X147213369Y-95517161D01*
X146919958Y-95658566D01*
X146911069Y-95662430D01*
X146752451Y-95724117D01*
X146746277Y-95726332D01*
X146579469Y-95781241D01*
X146572994Y-95783178D01*
X146449513Y-95816488D01*
X146449509Y-95816489D01*
X146411504Y-95826740D01*
X146404459Y-95828422D01*
X146245506Y-95861478D01*
X146237795Y-95862829D01*
X146098520Y-95882725D01*
X146089908Y-95883649D01*
X145954688Y-95893406D01*
X145947831Y-95893710D01*
X145940125Y-95893839D01*
X145915954Y-95894241D01*
X145875360Y-95898744D01*
X145861691Y-95899500D01*
X145355247Y-95899500D01*
X145296770Y-95911131D01*
X145296769Y-95911132D01*
X145230447Y-95955447D01*
X145186132Y-96021769D01*
X145186131Y-96021770D01*
X145174500Y-96080247D01*
X145174500Y-97919752D01*
X145186131Y-97978229D01*
X145186132Y-97978230D01*
X145230447Y-98044552D01*
X145296769Y-98088867D01*
X145296770Y-98088868D01*
X145355247Y-98100499D01*
X145355250Y-98100500D01*
X145355252Y-98100500D01*
X147194750Y-98100500D01*
X147194751Y-98100499D01*
X147209568Y-98097552D01*
X147253229Y-98088868D01*
X147253229Y-98088867D01*
X147253231Y-98088867D01*
X147319552Y-98044552D01*
X147363867Y-97978231D01*
X147363867Y-97978229D01*
X147363868Y-97978229D01*
X147375499Y-97919752D01*
X147375500Y-97919750D01*
X147375500Y-97408297D01*
X147379884Y-97375615D01*
X147381131Y-97371053D01*
X147397646Y-97136717D01*
X147399613Y-97121803D01*
X147400893Y-97115214D01*
X147453782Y-96842831D01*
X147456998Y-96829982D01*
X147458688Y-96824494D01*
X147553491Y-96516585D01*
X147557843Y-96504665D01*
X147692657Y-96186946D01*
X147696981Y-96177813D01*
X147732645Y-96109788D01*
X147768826Y-96040777D01*
X147772496Y-96034264D01*
X147848585Y-95908393D01*
X147853200Y-95901319D01*
X147922884Y-95802071D01*
X147928915Y-95794178D01*
X148000927Y-95707430D01*
X148022803Y-95684531D01*
X148032944Y-95668773D01*
X148037691Y-95663044D01*
X148039649Y-95661723D01*
X148045490Y-95654479D01*
X148213153Y-95486817D01*
X148274476Y-95453334D01*
X148300833Y-95450500D01*
X150791324Y-95450500D01*
X150858363Y-95470185D01*
X150879004Y-95486818D01*
X150942686Y-95550500D01*
X151056814Y-95616392D01*
X151184108Y-95650500D01*
X151184110Y-95650500D01*
X151315890Y-95650500D01*
X151315892Y-95650500D01*
X151443186Y-95616392D01*
X151557314Y-95550500D01*
X151650500Y-95457314D01*
X151716392Y-95343186D01*
X151750500Y-95215892D01*
X151750500Y-95084108D01*
X151729730Y-95006592D01*
X151731393Y-94936743D01*
X151770556Y-94878881D01*
X151834784Y-94851377D01*
X151849505Y-94850500D01*
X152911192Y-94850500D01*
X152978231Y-94870185D01*
X153023986Y-94922989D01*
X153033930Y-94992147D01*
X153004905Y-95055703D01*
X152973194Y-95081886D01*
X152942686Y-95099500D01*
X152942683Y-95099502D01*
X152849502Y-95192683D01*
X152849500Y-95192686D01*
X152783608Y-95306812D01*
X152749500Y-95434108D01*
X152749500Y-95565892D01*
X152772665Y-95652345D01*
X152772099Y-95676094D01*
X152775968Y-95699532D01*
X152771283Y-95710380D01*
X152771002Y-95722195D01*
X152757686Y-95741868D01*
X152748269Y-95763677D01*
X152734513Y-95776105D01*
X152731839Y-95780057D01*
X152722082Y-95787338D01*
X152704566Y-95799116D01*
X152692969Y-95806029D01*
X152640836Y-95833372D01*
X152628314Y-95839077D01*
X152571820Y-95861120D01*
X152558553Y-95865453D01*
X152504826Y-95879711D01*
X152490961Y-95882555D01*
X152431854Y-95891198D01*
X152419286Y-95892387D01*
X152392660Y-95893541D01*
X152380930Y-95896272D01*
X152361275Y-95898529D01*
X152361312Y-95898903D01*
X152355247Y-95899500D01*
X152296770Y-95911131D01*
X152296769Y-95911132D01*
X152230447Y-95955447D01*
X152186132Y-96021769D01*
X152186131Y-96021770D01*
X152174500Y-96080247D01*
X152174500Y-97919752D01*
X152186131Y-97978229D01*
X152186132Y-97978230D01*
X152230447Y-98044552D01*
X152296769Y-98088867D01*
X152296770Y-98088868D01*
X152355247Y-98100499D01*
X152355250Y-98100500D01*
X152355252Y-98100500D01*
X154194750Y-98100500D01*
X154194751Y-98100499D01*
X154209568Y-98097552D01*
X154253229Y-98088868D01*
X154253229Y-98088867D01*
X154253231Y-98088867D01*
X154319552Y-98044552D01*
X154363867Y-97978231D01*
X154363867Y-97978229D01*
X154363868Y-97978229D01*
X154375499Y-97919752D01*
X154375500Y-97919750D01*
X154375500Y-96080249D01*
X154375499Y-96080247D01*
X154363868Y-96021770D01*
X154363867Y-96021769D01*
X154319552Y-95955447D01*
X154253230Y-95911132D01*
X154253229Y-95911131D01*
X154194752Y-95899500D01*
X154191899Y-95899219D01*
X154181360Y-95898574D01*
X154170450Y-95897233D01*
X154157013Y-95893090D01*
X154030987Y-95880094D01*
X154029742Y-95879941D01*
X154028731Y-95879504D01*
X154007468Y-95875093D01*
X153894414Y-95839330D01*
X153871546Y-95829473D01*
X153789272Y-95783714D01*
X153740254Y-95733927D01*
X153725933Y-95665540D01*
X153729768Y-95643265D01*
X153750500Y-95565892D01*
X153750500Y-95434108D01*
X153716392Y-95306814D01*
X153650500Y-95192686D01*
X153557314Y-95099500D01*
X153526806Y-95081886D01*
X153478592Y-95031319D01*
X153465370Y-94962712D01*
X153491338Y-94897848D01*
X153548252Y-94857320D01*
X153588808Y-94850500D01*
X154128456Y-94850500D01*
X154195495Y-94870185D01*
X154216137Y-94886819D01*
X155942137Y-96612819D01*
X155975622Y-96674142D01*
X155970638Y-96743834D01*
X155928766Y-96799767D01*
X155863302Y-96824184D01*
X155854456Y-96824500D01*
X155443482Y-96824500D01*
X155368083Y-96836442D01*
X155349696Y-96839354D01*
X155236658Y-96896950D01*
X155236657Y-96896951D01*
X155236652Y-96896954D01*
X155146954Y-96986652D01*
X155146951Y-96986657D01*
X155089352Y-97099698D01*
X155074500Y-97193475D01*
X155074500Y-97806517D01*
X155084584Y-97870185D01*
X155089354Y-97900304D01*
X155146950Y-98013342D01*
X155146952Y-98013344D01*
X155146954Y-98013347D01*
X155236652Y-98103045D01*
X155236654Y-98103046D01*
X155236658Y-98103050D01*
X155262341Y-98116136D01*
X155277405Y-98130364D01*
X155295400Y-98140645D01*
X155310436Y-98161560D01*
X155313136Y-98164110D01*
X155316002Y-98169302D01*
X155321037Y-98178961D01*
X155330365Y-98202411D01*
X155357591Y-98298303D01*
X155360787Y-98351518D01*
X155357143Y-98374587D01*
X155351762Y-98396028D01*
X155339771Y-98430453D01*
X155334346Y-98443560D01*
X155311528Y-98490841D01*
X155304523Y-98503431D01*
X155278408Y-98544545D01*
X155269005Y-98557434D01*
X155252074Y-98577755D01*
X155197762Y-98615422D01*
X155108820Y-98646544D01*
X155108818Y-98646545D01*
X155001068Y-98726069D01*
X154921544Y-98833819D01*
X154921543Y-98833821D01*
X154877314Y-98960218D01*
X154877312Y-98960230D01*
X154874499Y-98990231D01*
X154874499Y-100009768D01*
X154877312Y-100039769D01*
X154877314Y-100039781D01*
X154921543Y-100166178D01*
X154921544Y-100166180D01*
X154984784Y-100251866D01*
X155008755Y-100317495D01*
X154993440Y-100385665D01*
X154943700Y-100434734D01*
X154885014Y-100449500D01*
X138958676Y-100449500D01*
X138891637Y-100429815D01*
X138870995Y-100413181D01*
X138807316Y-100349502D01*
X138807314Y-100349500D01*
X138750250Y-100316554D01*
X138693187Y-100283608D01*
X138618738Y-100263660D01*
X138565892Y-100249500D01*
X138434108Y-100249500D01*
X138306812Y-100283608D01*
X138192686Y-100349500D01*
X138192683Y-100349502D01*
X138099502Y-100442683D01*
X138099500Y-100442686D01*
X138033608Y-100556812D01*
X137999500Y-100684108D01*
X137999500Y-100815891D01*
X138006873Y-100843407D01*
X138005210Y-100913256D01*
X137966048Y-100971119D01*
X137901819Y-100998623D01*
X137887098Y-100999500D01*
X137834108Y-100999500D01*
X137706812Y-101033608D01*
X137592686Y-101099500D01*
X137592683Y-101099502D01*
X137499502Y-101192683D01*
X137499500Y-101192686D01*
X137433608Y-101306812D01*
X137399500Y-101434108D01*
X137399500Y-101565891D01*
X137433608Y-101693187D01*
X137460902Y-101740460D01*
X137499500Y-101807314D01*
X137592686Y-101900500D01*
X137706814Y-101966392D01*
X137834108Y-102000500D01*
X137834110Y-102000500D01*
X137965890Y-102000500D01*
X137965892Y-102000500D01*
X138093186Y-101966392D01*
X138207314Y-101900500D01*
X138270995Y-101836819D01*
X138332318Y-101803334D01*
X138358676Y-101800500D01*
X159477061Y-101800500D01*
X159477063Y-101800500D01*
X159553490Y-101780021D01*
X159622012Y-101740460D01*
X159677961Y-101684511D01*
X160787056Y-100575414D01*
X160800295Y-100563928D01*
X160809359Y-100557124D01*
X160814103Y-100554797D01*
X160903981Y-100486105D01*
X160904381Y-100485806D01*
X160904715Y-100485680D01*
X160919189Y-100476257D01*
X160970843Y-100447932D01*
X160981843Y-100442589D01*
X161049072Y-100413957D01*
X161060941Y-100409605D01*
X161078314Y-100404225D01*
X161126568Y-100399218D01*
X161140237Y-100400500D01*
X161397531Y-100400500D01*
X161400468Y-100400841D01*
X161402691Y-100400500D01*
X161734765Y-100400500D01*
X161734769Y-100400500D01*
X161748437Y-100399218D01*
X161764775Y-100397686D01*
X161764779Y-100397684D01*
X161764782Y-100397684D01*
X161835846Y-100372816D01*
X161891180Y-100353455D01*
X161998931Y-100273930D01*
X162078456Y-100166179D01*
X162100546Y-100103050D01*
X162122685Y-100039781D01*
X162122685Y-100039778D01*
X162122687Y-100039774D01*
X162125165Y-100013347D01*
X162125501Y-100009768D01*
X162125501Y-98990231D01*
X162122687Y-98960230D01*
X162122687Y-98960226D01*
X162122685Y-98960222D01*
X162122685Y-98960218D01*
X162078456Y-98833821D01*
X162078455Y-98833819D01*
X161998931Y-98726069D01*
X161891181Y-98646545D01*
X161891179Y-98646544D01*
X161764782Y-98602315D01*
X161764770Y-98602313D01*
X161734769Y-98599500D01*
X161734765Y-98599500D01*
X161140237Y-98599500D01*
X161140233Y-98599500D01*
X161110231Y-98602313D01*
X161110219Y-98602315D01*
X160983822Y-98646544D01*
X160983820Y-98646545D01*
X160876070Y-98726069D01*
X160796546Y-98833819D01*
X160796545Y-98833821D01*
X160752316Y-98960218D01*
X160752314Y-98960230D01*
X160749501Y-98990231D01*
X160749501Y-99257403D01*
X160748728Y-99271223D01*
X160747477Y-99282369D01*
X160743932Y-99294163D01*
X160730791Y-99431148D01*
X160730677Y-99432171D01*
X160730395Y-99432842D01*
X160727011Y-99451232D01*
X160682265Y-99613937D01*
X160676199Y-99631005D01*
X160592481Y-99821230D01*
X160584273Y-99836784D01*
X160479786Y-100004733D01*
X160427659Y-100051257D01*
X160358653Y-100062213D01*
X160294679Y-100034123D01*
X160256047Y-99975905D01*
X160250499Y-99939230D01*
X160250499Y-98990231D01*
X160247685Y-98960230D01*
X160247685Y-98960226D01*
X160247683Y-98960222D01*
X160247683Y-98960218D01*
X160203454Y-98833821D01*
X160203453Y-98833819D01*
X160123929Y-98726069D01*
X160094014Y-98703991D01*
X160083559Y-98690553D01*
X160070681Y-98681509D01*
X160052835Y-98651060D01*
X160032478Y-98601160D01*
X160026291Y-98581431D01*
X160025840Y-98579418D01*
X159991880Y-98427844D01*
X159989302Y-98410937D01*
X159985976Y-98370547D01*
X159986698Y-98343595D01*
X159995239Y-98281084D01*
X159999388Y-98262042D01*
X160013984Y-98213690D01*
X160019073Y-98199866D01*
X160028742Y-98177755D01*
X160073637Y-98124218D01*
X160086061Y-98116950D01*
X160087661Y-98116135D01*
X160113342Y-98103050D01*
X160203050Y-98013342D01*
X160260646Y-97900304D01*
X160260646Y-97900302D01*
X160260647Y-97900301D01*
X160275499Y-97806524D01*
X160275500Y-97806519D01*
X160275499Y-97260085D01*
X160283930Y-97231371D01*
X160289916Y-97202056D01*
X160293667Y-97198206D01*
X160295183Y-97193047D01*
X160317800Y-97173448D01*
X160338685Y-97152023D01*
X160343923Y-97150813D01*
X160347987Y-97147292D01*
X160377607Y-97143032D01*
X160406763Y-97136299D01*
X160411823Y-97138113D01*
X160417146Y-97137348D01*
X160444368Y-97149779D01*
X160472534Y-97159877D01*
X160477873Y-97165081D01*
X160480702Y-97166373D01*
X160497800Y-97184504D01*
X160567869Y-97275651D01*
X160574190Y-97284678D01*
X160625833Y-97365891D01*
X160632018Y-97376799D01*
X160674010Y-97460454D01*
X160679668Y-97473563D01*
X160699150Y-97526960D01*
X160703657Y-97542337D01*
X160713470Y-97586127D01*
X160716317Y-97607057D01*
X160718930Y-97659384D01*
X160718932Y-97659408D01*
X160723372Y-97692103D01*
X160724500Y-97708787D01*
X160724500Y-97806517D01*
X160734584Y-97870185D01*
X160739354Y-97900304D01*
X160796950Y-98013342D01*
X160796952Y-98013344D01*
X160796954Y-98013347D01*
X160886652Y-98103045D01*
X160886654Y-98103046D01*
X160886658Y-98103050D01*
X160999694Y-98160645D01*
X160999698Y-98160647D01*
X161093475Y-98175499D01*
X161093481Y-98175500D01*
X161556518Y-98175499D01*
X161650304Y-98160646D01*
X161763342Y-98103050D01*
X161853050Y-98013342D01*
X161910646Y-97900304D01*
X161910646Y-97900302D01*
X161910647Y-97900301D01*
X161925499Y-97806524D01*
X161925500Y-97806519D01*
X161925499Y-97193482D01*
X161910646Y-97099696D01*
X161853050Y-96986658D01*
X161853046Y-96986654D01*
X161853045Y-96986652D01*
X161763347Y-96896954D01*
X161763344Y-96896952D01*
X161763342Y-96896950D01*
X161669771Y-96849273D01*
X161650301Y-96839352D01*
X161556524Y-96824500D01*
X161556519Y-96824500D01*
X161425482Y-96824500D01*
X161424237Y-96824494D01*
X161416076Y-96824412D01*
X161389510Y-96820627D01*
X161335316Y-96823601D01*
X161331288Y-96823561D01*
X161327254Y-96822332D01*
X161304495Y-96820356D01*
X161254013Y-96808638D01*
X161228570Y-96799723D01*
X161134287Y-96754651D01*
X161116161Y-96744012D01*
X160992544Y-96656573D01*
X160984021Y-96649970D01*
X160982450Y-96648640D01*
X160922933Y-96594757D01*
X160907848Y-96585471D01*
X160900700Y-96579418D01*
X160899345Y-96577362D01*
X160893149Y-96572467D01*
X160015572Y-95694890D01*
X159982087Y-95633567D01*
X159987071Y-95563875D01*
X160028943Y-95507942D01*
X160094407Y-95483525D01*
X160135343Y-95487433D01*
X160184108Y-95500500D01*
X160184110Y-95500500D01*
X160315890Y-95500500D01*
X160315892Y-95500500D01*
X160443186Y-95466392D01*
X160534990Y-95413389D01*
X164399500Y-95413389D01*
X164399500Y-95586610D01*
X164422832Y-95733927D01*
X164426598Y-95757701D01*
X164480127Y-95922445D01*
X164558768Y-96076788D01*
X164660586Y-96216928D01*
X164783072Y-96339414D01*
X164923212Y-96441232D01*
X165077555Y-96519873D01*
X165242299Y-96573402D01*
X165413389Y-96600500D01*
X165413390Y-96600500D01*
X165586610Y-96600500D01*
X165586611Y-96600500D01*
X165757701Y-96573402D01*
X165922445Y-96519873D01*
X166076788Y-96441232D01*
X166216928Y-96339414D01*
X166339414Y-96216928D01*
X166441232Y-96076788D01*
X166519873Y-95922445D01*
X166573402Y-95757701D01*
X166600500Y-95586611D01*
X166600500Y-95413389D01*
X166573402Y-95242299D01*
X166519873Y-95077555D01*
X166441232Y-94923212D01*
X166339414Y-94783072D01*
X166216928Y-94660586D01*
X166076788Y-94558768D01*
X165922445Y-94480127D01*
X165757701Y-94426598D01*
X165757699Y-94426597D01*
X165757698Y-94426597D01*
X165626271Y-94405781D01*
X165586611Y-94399500D01*
X165413389Y-94399500D01*
X165373728Y-94405781D01*
X165242302Y-94426597D01*
X165077552Y-94480128D01*
X164923211Y-94558768D01*
X164872565Y-94595565D01*
X164783072Y-94660586D01*
X164783070Y-94660588D01*
X164783069Y-94660588D01*
X164660588Y-94783069D01*
X164660588Y-94783070D01*
X164660586Y-94783072D01*
X164625175Y-94831811D01*
X164558768Y-94923211D01*
X164480128Y-95077552D01*
X164426597Y-95242302D01*
X164399500Y-95413389D01*
X160534990Y-95413389D01*
X160557314Y-95400500D01*
X160650500Y-95307314D01*
X160716392Y-95193186D01*
X160750500Y-95065892D01*
X160750500Y-94934108D01*
X160716392Y-94806814D01*
X160650500Y-94692686D01*
X160586818Y-94629004D01*
X160553334Y-94567680D01*
X160550500Y-94541323D01*
X160550500Y-92563541D01*
X160553397Y-92536895D01*
X160553448Y-92536666D01*
X160559489Y-92509206D01*
X160593119Y-92447964D01*
X160654521Y-92414625D01*
X160657627Y-92413998D01*
X160673722Y-92410968D01*
X160691398Y-92407641D01*
X160714339Y-92405500D01*
X161333261Y-92405500D01*
X161355971Y-92402191D01*
X161401393Y-92395573D01*
X161506483Y-92344198D01*
X161589198Y-92261483D01*
X161589198Y-92261481D01*
X161591832Y-92258848D01*
X161611937Y-92247869D01*
X161629441Y-92233088D01*
X161649062Y-92227596D01*
X161653155Y-92225362D01*
X161663430Y-92223576D01*
X161681822Y-92221170D01*
X161750848Y-92231992D01*
X161762054Y-92238004D01*
X161774435Y-92245489D01*
X161795882Y-92261890D01*
X161803726Y-92269375D01*
X161815631Y-92282484D01*
X161828747Y-92299184D01*
X161832617Y-92304111D01*
X161842435Y-92318616D01*
X161856064Y-92342181D01*
X161863805Y-92358088D01*
X161875102Y-92386249D01*
X161880490Y-92403053D01*
X161887088Y-92430124D01*
X161890019Y-92447344D01*
X161895415Y-92502186D01*
X161895426Y-92502292D01*
X161898904Y-92537641D01*
X161899500Y-92549773D01*
X161899500Y-92556510D01*
X161899500Y-92556516D01*
X161899501Y-92556518D01*
X161914354Y-92650304D01*
X161971950Y-92763342D01*
X161971952Y-92763344D01*
X161971954Y-92763347D01*
X162061652Y-92853045D01*
X162061654Y-92853046D01*
X162061658Y-92853050D01*
X162174694Y-92910645D01*
X162174698Y-92910647D01*
X162268475Y-92925499D01*
X162268481Y-92925500D01*
X162731518Y-92925499D01*
X162825304Y-92910646D01*
X162938342Y-92853050D01*
X163028050Y-92763342D01*
X163085646Y-92650304D01*
X163085646Y-92650302D01*
X163085647Y-92650301D01*
X163097749Y-92573886D01*
X163100500Y-92556519D01*
X163100499Y-91943482D01*
X163085646Y-91849696D01*
X163028050Y-91736658D01*
X163028046Y-91736654D01*
X163028045Y-91736652D01*
X162938347Y-91646954D01*
X162938343Y-91646951D01*
X162938342Y-91646950D01*
X162936161Y-91645839D01*
X162866773Y-91610483D01*
X162815978Y-91562508D01*
X162799183Y-91494687D01*
X162821721Y-91428553D01*
X162866771Y-91389517D01*
X162938342Y-91353050D01*
X163028050Y-91263342D01*
X163085646Y-91150304D01*
X163085646Y-91150302D01*
X163085647Y-91150301D01*
X163099373Y-91063632D01*
X163100500Y-91056519D01*
X163100499Y-90443482D01*
X163085646Y-90349696D01*
X163028050Y-90236658D01*
X163028046Y-90236654D01*
X163028045Y-90236652D01*
X162938347Y-90146954D01*
X162938343Y-90146951D01*
X162938342Y-90146950D01*
X162933388Y-90144426D01*
X162866773Y-90110483D01*
X162815978Y-90062508D01*
X162799183Y-89994687D01*
X162821721Y-89928553D01*
X162866771Y-89889517D01*
X162938342Y-89853050D01*
X163028050Y-89763342D01*
X163085646Y-89650304D01*
X163085646Y-89650302D01*
X163085647Y-89650301D01*
X163099015Y-89565892D01*
X163100500Y-89556519D01*
X163100499Y-88943482D01*
X163100499Y-88940481D01*
X163120183Y-88873442D01*
X163172987Y-88827687D01*
X163242146Y-88817743D01*
X163305702Y-88846768D01*
X163312180Y-88852800D01*
X163508181Y-89048801D01*
X163541666Y-89110124D01*
X163544500Y-89136482D01*
X163544500Y-92626007D01*
X163549197Y-92669686D01*
X163560397Y-92721174D01*
X163562210Y-92728590D01*
X163562890Y-92731373D01*
X163605900Y-92812085D01*
X163619463Y-92827737D01*
X163651660Y-92864895D01*
X163669242Y-92882839D01*
X163669246Y-92882843D01*
X163669247Y-92882844D01*
X163669249Y-92882845D01*
X163745505Y-92925500D01*
X163749063Y-92927490D01*
X163816102Y-92947175D01*
X163874000Y-92955500D01*
X163874004Y-92955500D01*
X164375991Y-92955500D01*
X164376000Y-92955500D01*
X164419684Y-92950803D01*
X164448875Y-92944452D01*
X164471174Y-92939602D01*
X164471190Y-92939598D01*
X164471195Y-92939597D01*
X164481373Y-92937110D01*
X164562085Y-92894100D01*
X164614889Y-92848345D01*
X164632843Y-92830754D01*
X164652643Y-92795355D01*
X164673181Y-92768210D01*
X164678050Y-92763342D01*
X164735646Y-92650304D01*
X164735646Y-92650302D01*
X164735647Y-92650301D01*
X164747749Y-92573886D01*
X164750500Y-92556519D01*
X164750499Y-91943482D01*
X164735646Y-91849696D01*
X164735645Y-91849694D01*
X164735645Y-91849692D01*
X164719015Y-91817054D01*
X164705500Y-91760760D01*
X164705500Y-91239237D01*
X164719016Y-91182941D01*
X164719087Y-91182802D01*
X164735646Y-91150304D01*
X164735646Y-91150301D01*
X164735647Y-91150301D01*
X164749373Y-91063632D01*
X164750500Y-91056519D01*
X164750499Y-90443482D01*
X164735646Y-90349696D01*
X164735645Y-90349694D01*
X164735645Y-90349692D01*
X164719015Y-90317054D01*
X164705500Y-90260760D01*
X164705500Y-89739237D01*
X164719016Y-89682941D01*
X164719056Y-89682863D01*
X164735646Y-89650304D01*
X164735646Y-89650301D01*
X164735647Y-89650301D01*
X164749015Y-89565892D01*
X164750500Y-89556519D01*
X164750499Y-88943482D01*
X164735646Y-88849696D01*
X164735645Y-88849694D01*
X164735645Y-88849692D01*
X164719015Y-88817054D01*
X164705500Y-88760760D01*
X164705500Y-88551361D01*
X164705015Y-88542315D01*
X164704322Y-88529393D01*
X164702710Y-88514405D01*
X164701488Y-88503034D01*
X164701487Y-88503032D01*
X164677529Y-88426518D01*
X164644044Y-88365195D01*
X164637520Y-88356480D01*
X164609001Y-88318384D01*
X164608998Y-88318381D01*
X164608991Y-88318371D01*
X163521414Y-87230794D01*
X162431634Y-86141013D01*
X162431633Y-86141012D01*
X162415283Y-86126325D01*
X162415269Y-86126313D01*
X162415074Y-86126156D01*
X162409812Y-86121915D01*
X162394620Y-86109672D01*
X162323575Y-86072509D01*
X162256543Y-86052826D01*
X162255894Y-86052732D01*
X162198638Y-86044500D01*
X162198634Y-86044500D01*
X160841544Y-86044500D01*
X160774505Y-86024815D01*
X160753863Y-86008181D01*
X160715213Y-85969531D01*
X160715208Y-85969527D01*
X160635290Y-85923387D01*
X160635289Y-85923386D01*
X160635288Y-85923386D01*
X160546144Y-85899500D01*
X152788630Y-85899500D01*
X152699485Y-85923386D01*
X152637998Y-85958887D01*
X152575997Y-85975500D01*
X151877856Y-85975500D01*
X151818561Y-85991387D01*
X151818561Y-85991388D01*
X151814960Y-85992353D01*
X151788710Y-85999386D01*
X151788709Y-85999387D01*
X151708791Y-86045527D01*
X151708786Y-86045531D01*
X150143355Y-87610962D01*
X150082032Y-87644447D01*
X150012340Y-87639463D01*
X149956407Y-87597591D01*
X149931990Y-87532127D01*
X149940840Y-87486556D01*
X149937729Y-87485595D01*
X149940572Y-87476392D01*
X149947846Y-87426472D01*
X149950499Y-87408260D01*
X149950499Y-86316740D01*
X149940572Y-86248607D01*
X149889197Y-86143517D01*
X149889195Y-86143515D01*
X149889195Y-86143514D01*
X149806484Y-86060803D01*
X149701393Y-86009427D01*
X149692840Y-86008181D01*
X149662795Y-86003803D01*
X149646597Y-86000324D01*
X149644404Y-85999697D01*
X149585359Y-85962342D01*
X149561198Y-85920701D01*
X149559624Y-85916112D01*
X149557297Y-85907130D01*
X149557033Y-85907202D01*
X149554806Y-85898973D01*
X149550500Y-85866580D01*
X149550500Y-85099833D01*
X149556738Y-85078587D01*
X149558318Y-85056499D01*
X149566390Y-85045715D01*
X149570185Y-85032794D01*
X149586918Y-85018294D01*
X149600190Y-85000566D01*
X149612810Y-84995858D01*
X149622989Y-84987039D01*
X149644906Y-84983887D01*
X149665654Y-84976149D01*
X149678814Y-84979011D01*
X149692147Y-84977095D01*
X149712290Y-84986294D01*
X149733927Y-84991001D01*
X149751652Y-85004269D01*
X149755703Y-85006120D01*
X149762181Y-85012152D01*
X149775496Y-85025467D01*
X149792658Y-85048822D01*
X149793235Y-85048445D01*
X149796576Y-85053543D01*
X149894373Y-85174888D01*
X149903406Y-85187670D01*
X149948118Y-85260264D01*
X149953335Y-85269618D01*
X149996918Y-85356392D01*
X150001539Y-85366750D01*
X150031853Y-85444003D01*
X150035934Y-85456241D01*
X150056407Y-85530257D01*
X150059439Y-85544371D01*
X150066687Y-85591258D01*
X150068110Y-85607361D01*
X150069163Y-85653333D01*
X150069164Y-85653353D01*
X150073684Y-85692541D01*
X150074500Y-85706746D01*
X150074500Y-85806517D01*
X150081741Y-85852235D01*
X150089354Y-85900304D01*
X150146950Y-86013342D01*
X150146952Y-86013344D01*
X150146954Y-86013347D01*
X150236652Y-86103045D01*
X150236654Y-86103046D01*
X150236658Y-86103050D01*
X150349097Y-86160341D01*
X150349698Y-86160647D01*
X150443475Y-86175499D01*
X150443481Y-86175500D01*
X150906518Y-86175499D01*
X151000304Y-86160646D01*
X151113342Y-86103050D01*
X151203050Y-86013342D01*
X151260646Y-85900304D01*
X151260646Y-85900302D01*
X151260647Y-85900301D01*
X151271282Y-85833147D01*
X151275500Y-85806519D01*
X151275499Y-85193482D01*
X151260646Y-85099696D01*
X151203050Y-84986658D01*
X151203046Y-84986654D01*
X151203045Y-84986652D01*
X151113347Y-84896954D01*
X151113344Y-84896952D01*
X151113342Y-84896950D01*
X151036517Y-84857805D01*
X151000301Y-84839352D01*
X150906524Y-84824500D01*
X150906519Y-84824500D01*
X150763703Y-84824500D01*
X150736612Y-84821004D01*
X150685288Y-84824500D01*
X150657094Y-84824500D01*
X150634370Y-84822400D01*
X150598424Y-84815699D01*
X150565538Y-84809568D01*
X150541868Y-84802661D01*
X150427968Y-84756706D01*
X150408515Y-84746784D01*
X150330750Y-84698048D01*
X150306653Y-84682945D01*
X150260302Y-84630667D01*
X150249572Y-84561626D01*
X150277873Y-84497744D01*
X150336217Y-84459304D01*
X150348314Y-84456258D01*
X150352129Y-84455499D01*
X150352132Y-84455499D01*
X150432495Y-84439515D01*
X150459281Y-84421616D01*
X150525954Y-84400739D01*
X150582629Y-84413318D01*
X150612972Y-84428152D01*
X150648607Y-84445573D01*
X150716739Y-84455500D01*
X150716740Y-84455500D01*
X151083261Y-84455500D01*
X151107858Y-84451916D01*
X151151393Y-84445573D01*
X151217227Y-84413389D01*
X164399500Y-84413389D01*
X164399500Y-84586611D01*
X164426598Y-84757701D01*
X164480127Y-84922445D01*
X164558768Y-85076788D01*
X164660586Y-85216928D01*
X164783072Y-85339414D01*
X164923212Y-85441232D01*
X165077555Y-85519873D01*
X165242299Y-85573402D01*
X165413389Y-85600500D01*
X165413390Y-85600500D01*
X165586610Y-85600500D01*
X165586611Y-85600500D01*
X165757701Y-85573402D01*
X165922445Y-85519873D01*
X166076788Y-85441232D01*
X166216928Y-85339414D01*
X166339414Y-85216928D01*
X166441232Y-85076788D01*
X166519873Y-84922445D01*
X166573402Y-84757701D01*
X166600500Y-84586611D01*
X166600500Y-84413389D01*
X166573402Y-84242299D01*
X166519873Y-84077555D01*
X166441232Y-83923212D01*
X166339414Y-83783072D01*
X166216928Y-83660586D01*
X166076788Y-83558768D01*
X165922445Y-83480127D01*
X165757701Y-83426598D01*
X165757699Y-83426597D01*
X165757698Y-83426597D01*
X165626271Y-83405781D01*
X165586611Y-83399500D01*
X165413389Y-83399500D01*
X165373728Y-83405781D01*
X165242302Y-83426597D01*
X165077552Y-83480128D01*
X164923211Y-83558768D01*
X164860236Y-83604523D01*
X164783072Y-83660586D01*
X164783070Y-83660588D01*
X164783069Y-83660588D01*
X164660588Y-83783069D01*
X164660588Y-83783070D01*
X164660586Y-83783072D01*
X164650913Y-83796386D01*
X164558768Y-83923211D01*
X164480128Y-84077552D01*
X164426597Y-84242302D01*
X164402473Y-84394620D01*
X164399500Y-84413389D01*
X151217227Y-84413389D01*
X151256483Y-84394198D01*
X151291818Y-84358863D01*
X151329846Y-84320836D01*
X151339196Y-84311485D01*
X151339198Y-84311483D01*
X151390573Y-84206393D01*
X151400500Y-84138260D01*
X151400500Y-83241372D01*
X151420185Y-83174333D01*
X151472989Y-83128578D01*
X151492399Y-83121599D01*
X151592836Y-83094688D01*
X151712665Y-83025505D01*
X151810505Y-82927665D01*
X151879688Y-82807836D01*
X151915500Y-82674183D01*
X151915500Y-82535817D01*
X151879688Y-82402164D01*
X151810505Y-82282335D01*
X151712665Y-82184495D01*
X151712664Y-82184494D01*
X151712661Y-82184492D01*
X151592838Y-82115313D01*
X151592837Y-82115312D01*
X151592836Y-82115312D01*
X151459183Y-82079500D01*
X151320817Y-82079500D01*
X151187164Y-82115312D01*
X151187161Y-82115313D01*
X151067338Y-82184492D01*
X151067333Y-82184496D01*
X150969496Y-82282333D01*
X150969492Y-82282338D01*
X150900308Y-82402169D01*
X150898148Y-82407385D01*
X150854303Y-82461785D01*
X150788007Y-82483844D01*
X150720309Y-82466560D01*
X150695910Y-82447604D01*
X149945389Y-81697083D01*
X149925368Y-81670853D01*
X149920393Y-81662134D01*
X149917854Y-81655325D01*
X149905858Y-81636659D01*
X149904241Y-81633825D01*
X149904193Y-81633625D01*
X149903110Y-81631799D01*
X149894046Y-81615199D01*
X149894045Y-81615197D01*
X149858991Y-81568371D01*
X149858986Y-81568366D01*
X149858981Y-81568360D01*
X149181633Y-80891012D01*
X149165283Y-80876325D01*
X149165269Y-80876313D01*
X149144620Y-80859672D01*
X149073575Y-80822509D01*
X149006543Y-80802826D01*
X149005894Y-80802732D01*
X148948638Y-80794500D01*
X140124000Y-80794500D01*
X140123992Y-80794500D01*
X140080313Y-80799197D01*
X140028825Y-80810397D01*
X140018627Y-80812890D01*
X140018624Y-80812891D01*
X139937916Y-80855899D01*
X139937913Y-80855901D01*
X139885104Y-80901660D01*
X139867160Y-80919242D01*
X139867154Y-80919249D01*
X139822511Y-80999059D01*
X139822509Y-80999064D01*
X139802826Y-81066096D01*
X139802825Y-81066101D01*
X139802825Y-81066102D01*
X139794500Y-81124000D01*
X139794500Y-82376000D01*
X139797314Y-82402169D01*
X139797860Y-82407245D01*
X139785454Y-82476005D01*
X139737843Y-82527142D01*
X139674570Y-82544500D01*
X136373992Y-82544500D01*
X136330313Y-82549197D01*
X136278825Y-82560397D01*
X136268627Y-82562890D01*
X136268624Y-82562891D01*
X136187916Y-82605899D01*
X136187913Y-82605901D01*
X136135104Y-82651660D01*
X136117160Y-82669242D01*
X136117154Y-82669249D01*
X136072511Y-82749059D01*
X136072509Y-82749064D01*
X136054782Y-82809437D01*
X136017006Y-82868214D01*
X135953450Y-82897238D01*
X135935805Y-82898500D01*
X130204856Y-82898500D01*
X130115712Y-82922386D01*
X130115709Y-82922387D01*
X130035791Y-82968527D01*
X130035786Y-82968531D01*
X128963783Y-84040535D01*
X128961781Y-84038533D01*
X128916427Y-84071638D01*
X128846680Y-84075780D01*
X128785766Y-84041557D01*
X128753024Y-83979834D01*
X128750500Y-83954941D01*
X128750500Y-80003750D01*
X128750726Y-79996263D01*
X128766448Y-79736339D01*
X128768253Y-79721475D01*
X128814515Y-79469026D01*
X128818095Y-79454505D01*
X128894451Y-79209471D01*
X128899753Y-79195489D01*
X129005095Y-78961430D01*
X129012040Y-78948197D01*
X129144826Y-78728542D01*
X129153313Y-78716246D01*
X129311608Y-78514198D01*
X129321523Y-78503007D01*
X129364092Y-78460438D01*
X156199500Y-78460438D01*
X156199500Y-80539562D01*
X156219979Y-80615989D01*
X156250000Y-80667987D01*
X156250000Y-80750000D01*
X156332013Y-80750000D01*
X156384011Y-80780021D01*
X156460438Y-80800500D01*
X156460440Y-80800500D01*
X158039560Y-80800500D01*
X158039562Y-80800500D01*
X158115989Y-80780021D01*
X158139212Y-80766612D01*
X158201213Y-80750000D01*
X159750000Y-80750000D01*
X159750000Y-78250000D01*
X158201213Y-78250000D01*
X158139212Y-78233387D01*
X158115990Y-78219979D01*
X158090513Y-78213152D01*
X158039562Y-78199500D01*
X156539562Y-78199500D01*
X156460438Y-78199500D01*
X156422224Y-78209739D01*
X156384009Y-78219979D01*
X156374922Y-78225226D01*
X156374920Y-78225227D01*
X156332013Y-78250000D01*
X156250000Y-78250000D01*
X156250000Y-78332012D01*
X156225228Y-78374918D01*
X156225227Y-78374920D01*
X156219979Y-78384011D01*
X156199500Y-78460438D01*
X129364092Y-78460438D01*
X129503007Y-78321523D01*
X129514198Y-78311608D01*
X129716246Y-78153313D01*
X129728542Y-78144826D01*
X129948197Y-78012040D01*
X129961430Y-78005095D01*
X130195489Y-77899753D01*
X130209471Y-77894451D01*
X130454505Y-77818095D01*
X130469026Y-77814515D01*
X130721476Y-77768252D01*
X130736335Y-77766448D01*
X130996264Y-77750726D01*
X131003751Y-77750500D01*
X131044170Y-77750500D01*
X165955830Y-77750500D01*
X165996249Y-77750500D01*
X166003736Y-77750726D01*
G37*
%TD.AperFunction*%
%TA.AperFunction,Conductor*%
G36*
X159193157Y-90939920D02*
G01*
X159196191Y-90940752D01*
X159196195Y-90940753D01*
X159240634Y-90943933D01*
X159255739Y-90945954D01*
X159292860Y-90953269D01*
X159354828Y-90985543D01*
X159356568Y-90987248D01*
X159360801Y-90991481D01*
X159360802Y-90991483D01*
X159443517Y-91074198D01*
X159548607Y-91125573D01*
X159582673Y-91130536D01*
X159616739Y-91135500D01*
X159616740Y-91135500D01*
X161333261Y-91135500D01*
X161355971Y-91132191D01*
X161401393Y-91125573D01*
X161506483Y-91074198D01*
X161589198Y-90991483D01*
X161589198Y-90991481D01*
X161591833Y-90988847D01*
X161611938Y-90977868D01*
X161629442Y-90963087D01*
X161649063Y-90957595D01*
X161653156Y-90955361D01*
X161663412Y-90953578D01*
X161696732Y-90949219D01*
X161734892Y-90950153D01*
X161738346Y-90950778D01*
X161762861Y-90957884D01*
X161778076Y-90964055D01*
X161793583Y-90971644D01*
X161820332Y-90987135D01*
X161835283Y-90997320D01*
X161852032Y-91010618D01*
X161866790Y-91024440D01*
X161875438Y-91033978D01*
X161890635Y-91065365D01*
X161892295Y-91067720D01*
X161892345Y-91068898D01*
X161905886Y-91096865D01*
X161906049Y-91097871D01*
X161914352Y-91150300D01*
X161914353Y-91150303D01*
X161914354Y-91150304D01*
X161971950Y-91263342D01*
X161971952Y-91263344D01*
X161971954Y-91263347D01*
X162061652Y-91353045D01*
X162061656Y-91353048D01*
X162061658Y-91353050D01*
X162094956Y-91370016D01*
X162099587Y-91374390D01*
X162105699Y-91376185D01*
X162124675Y-91398084D01*
X162145751Y-91417990D01*
X162147282Y-91424174D01*
X162151454Y-91428989D01*
X162155578Y-91457676D01*
X162162546Y-91485811D01*
X162160491Y-91491840D01*
X162161398Y-91498147D01*
X162149357Y-91524511D01*
X162140009Y-91551945D01*
X162135019Y-91555907D01*
X162132373Y-91561703D01*
X162107990Y-91577372D01*
X162085294Y-91595397D01*
X162077609Y-91596897D01*
X162073595Y-91599477D01*
X162038660Y-91604500D01*
X161897710Y-91604500D01*
X161895155Y-91604474D01*
X161893213Y-91604434D01*
X161847034Y-91603481D01*
X161845788Y-91603449D01*
X161772244Y-91601192D01*
X161755115Y-91599470D01*
X161753811Y-91599246D01*
X161709377Y-91596066D01*
X161694257Y-91594042D01*
X161657136Y-91586727D01*
X161595167Y-91554453D01*
X161593428Y-91552748D01*
X161589198Y-91548518D01*
X161589198Y-91548517D01*
X161506483Y-91465802D01*
X161401393Y-91414427D01*
X161401391Y-91414426D01*
X161333261Y-91404500D01*
X161333260Y-91404500D01*
X159616740Y-91404500D01*
X159616739Y-91404500D01*
X159548608Y-91414426D01*
X159443514Y-91465803D01*
X159360803Y-91548514D01*
X159309426Y-91653608D01*
X159299500Y-91721739D01*
X159299500Y-92088260D01*
X159309426Y-92156391D01*
X159360803Y-92261485D01*
X159443514Y-92344196D01*
X159443515Y-92344196D01*
X159443517Y-92344198D01*
X159548607Y-92395573D01*
X159582673Y-92400536D01*
X159616739Y-92405500D01*
X159616740Y-92405500D01*
X159822855Y-92405500D01*
X159851236Y-92413833D01*
X159880259Y-92419587D01*
X159884391Y-92423569D01*
X159889894Y-92425185D01*
X159909261Y-92447536D01*
X159930570Y-92468071D01*
X159933503Y-92475512D01*
X159935649Y-92477989D01*
X159943513Y-92500906D01*
X159946158Y-92512067D01*
X159949500Y-92540661D01*
X159949500Y-94541323D01*
X159929815Y-94608362D01*
X159913182Y-94629004D01*
X159849500Y-94692686D01*
X159783608Y-94806812D01*
X159749500Y-94934108D01*
X159749500Y-95065893D01*
X159762565Y-95114654D01*
X159760902Y-95184504D01*
X159721738Y-95242366D01*
X159657509Y-95269869D01*
X159588607Y-95258282D01*
X159555109Y-95234427D01*
X158540213Y-94219531D01*
X158540208Y-94219527D01*
X158460286Y-94173385D01*
X158460284Y-94173384D01*
X158440894Y-94168189D01*
X158440893Y-94168188D01*
X158440893Y-94168189D01*
X158406018Y-94158844D01*
X158371144Y-94149500D01*
X158371143Y-94149500D01*
X157911023Y-94149500D01*
X157843984Y-94129815D01*
X157798229Y-94077011D01*
X157788285Y-94007853D01*
X157800539Y-93969205D01*
X157835646Y-93900304D01*
X157835646Y-93900302D01*
X157835647Y-93900301D01*
X157849015Y-93815892D01*
X157850500Y-93806519D01*
X157850499Y-93193482D01*
X157835646Y-93099696D01*
X157778050Y-92986658D01*
X157778046Y-92986654D01*
X157778045Y-92986652D01*
X157688343Y-92896950D01*
X157662657Y-92883862D01*
X157647592Y-92869633D01*
X157629598Y-92859353D01*
X157614559Y-92838435D01*
X157611861Y-92835887D01*
X157609019Y-92830741D01*
X157603955Y-92821026D01*
X157594632Y-92797585D01*
X157589741Y-92780360D01*
X157565304Y-92694291D01*
X157561188Y-92672591D01*
X157560902Y-92669686D01*
X157555549Y-92615390D01*
X157555547Y-92615381D01*
X157554995Y-92613385D01*
X157550500Y-92580303D01*
X157550500Y-91059500D01*
X157570185Y-90992461D01*
X157622989Y-90946706D01*
X157674500Y-90935500D01*
X159160347Y-90935500D01*
X159193157Y-90939920D01*
G37*
%TD.AperFunction*%
%TA.AperFunction,Conductor*%
G36*
X130617634Y-83619185D02*
G01*
X130663389Y-83671989D01*
X130673333Y-83741147D01*
X130650913Y-83796386D01*
X130558768Y-83923211D01*
X130480128Y-84077552D01*
X130426597Y-84242302D01*
X130402473Y-84394620D01*
X130399500Y-84413389D01*
X130399500Y-84586611D01*
X130426598Y-84757701D01*
X130480127Y-84922445D01*
X130558768Y-85076788D01*
X130660586Y-85216928D01*
X130783072Y-85339414D01*
X130923212Y-85441232D01*
X131077555Y-85519873D01*
X131242299Y-85573402D01*
X131413389Y-85600500D01*
X131413390Y-85600500D01*
X131586610Y-85600500D01*
X131586611Y-85600500D01*
X131757701Y-85573402D01*
X131922445Y-85519873D01*
X132005158Y-85477728D01*
X132073827Y-85464832D01*
X132138567Y-85491108D01*
X132178825Y-85548214D01*
X132181817Y-85618020D01*
X132149134Y-85675894D01*
X131315489Y-86509540D01*
X131259541Y-86565487D01*
X131259535Y-86565495D01*
X131219982Y-86634004D01*
X131219979Y-86634009D01*
X131214994Y-86652614D01*
X131199500Y-86710438D01*
X131199500Y-88954062D01*
X131209669Y-88992011D01*
X131219979Y-89030490D01*
X131219980Y-89030491D01*
X131257258Y-89095059D01*
X131259540Y-89099011D01*
X131892540Y-89732011D01*
X131948489Y-89787960D01*
X132017011Y-89827521D01*
X132031194Y-89831321D01*
X132049729Y-89844843D01*
X132062357Y-89861286D01*
X132078502Y-89874296D01*
X132083208Y-89888436D01*
X132092286Y-89900256D01*
X132094019Y-89920917D01*
X132100568Y-89940590D01*
X132100051Y-89957165D01*
X132099501Y-89962752D01*
X132099501Y-90402252D01*
X132111132Y-90460729D01*
X132111133Y-90460730D01*
X132155448Y-90527052D01*
X132221770Y-90571367D01*
X132221771Y-90571368D01*
X132280248Y-90582999D01*
X132280251Y-90583000D01*
X132280253Y-90583000D01*
X133519751Y-90583000D01*
X133519752Y-90582999D01*
X133534569Y-90580052D01*
X133578230Y-90571368D01*
X133578230Y-90571367D01*
X133578232Y-90571367D01*
X133644553Y-90527052D01*
X133688868Y-90460731D01*
X133688868Y-90460729D01*
X133688869Y-90460729D01*
X133700500Y-90402252D01*
X133700501Y-90402250D01*
X133700501Y-89962749D01*
X133700500Y-89962747D01*
X133686486Y-89892290D01*
X133690016Y-89891587D01*
X133684787Y-89842995D01*
X133686794Y-89836157D01*
X133689691Y-89821593D01*
X133700501Y-89767248D01*
X133700501Y-89495544D01*
X133720186Y-89428505D01*
X133772990Y-89382750D01*
X133842148Y-89372806D01*
X133905704Y-89401831D01*
X133912182Y-89407863D01*
X136065681Y-91561362D01*
X136099166Y-91622685D01*
X136102000Y-91649043D01*
X136102000Y-93748645D01*
X136119528Y-93814063D01*
X136125884Y-93837784D01*
X136125887Y-93837791D01*
X136172027Y-93917708D01*
X136172031Y-93917713D01*
X136192137Y-93937819D01*
X136225622Y-93999142D01*
X136220638Y-94068834D01*
X136178766Y-94124767D01*
X136113302Y-94149184D01*
X136104456Y-94149500D01*
X131524898Y-94149500D01*
X131515150Y-94149116D01*
X131505111Y-94148324D01*
X131488334Y-94144206D01*
X131407123Y-94140597D01*
X131404986Y-94140429D01*
X131404458Y-94140228D01*
X131396319Y-94139438D01*
X131353149Y-94132955D01*
X131331563Y-94127701D01*
X131258043Y-94102645D01*
X131232067Y-94090264D01*
X131183428Y-94059698D01*
X131183428Y-94059699D01*
X131128269Y-94025037D01*
X131123979Y-94022216D01*
X131054395Y-93974360D01*
X131050683Y-93971921D01*
X131047192Y-93969626D01*
X131046408Y-93969134D01*
X131046399Y-93969128D01*
X131046371Y-93969111D01*
X131039566Y-93965023D01*
X130952443Y-93914959D01*
X130952424Y-93914948D01*
X130940891Y-93908800D01*
X130939552Y-93908140D01*
X130939539Y-93908134D01*
X130927565Y-93902701D01*
X130818762Y-93857485D01*
X130805681Y-93852564D01*
X130804708Y-93852236D01*
X130804175Y-93852056D01*
X130804164Y-93852052D01*
X130804159Y-93852051D01*
X130790797Y-93848037D01*
X130661968Y-93814070D01*
X130656158Y-93812627D01*
X130655523Y-93812479D01*
X130655506Y-93812477D01*
X130643346Y-93812267D01*
X130621300Y-93809904D01*
X130599142Y-93805496D01*
X130568993Y-93799500D01*
X130431007Y-93799500D01*
X130431005Y-93799500D01*
X130295677Y-93826418D01*
X130295667Y-93826421D01*
X130168195Y-93879221D01*
X130168182Y-93879228D01*
X130053458Y-93955885D01*
X130053454Y-93955888D01*
X129955888Y-94053454D01*
X129955885Y-94053458D01*
X129879228Y-94168182D01*
X129879221Y-94168195D01*
X129839061Y-94265153D01*
X129795220Y-94319557D01*
X129728926Y-94341622D01*
X129661227Y-94324343D01*
X129613616Y-94273206D01*
X129600500Y-94217701D01*
X129600500Y-91867752D01*
X132099500Y-91867752D01*
X132099500Y-91873509D01*
X132099500Y-92307252D01*
X132113515Y-92377710D01*
X132109986Y-92378411D01*
X132115211Y-92427020D01*
X132113204Y-92433854D01*
X132099501Y-92502747D01*
X132099501Y-92942252D01*
X132113516Y-93012710D01*
X132109989Y-93013411D01*
X132115208Y-93062038D01*
X132113201Y-93068873D01*
X132099501Y-93137747D01*
X132099501Y-93577252D01*
X132111132Y-93635729D01*
X132111133Y-93635730D01*
X132155448Y-93702052D01*
X132221770Y-93746367D01*
X132221771Y-93746368D01*
X132280248Y-93757999D01*
X132280251Y-93758000D01*
X132280253Y-93758000D01*
X133519751Y-93758000D01*
X133519752Y-93757999D01*
X133534569Y-93755052D01*
X133578230Y-93746368D01*
X133578230Y-93746367D01*
X133578232Y-93746367D01*
X133644553Y-93702052D01*
X133688868Y-93635731D01*
X133688868Y-93635729D01*
X133688869Y-93635729D01*
X133700500Y-93577252D01*
X133700501Y-93577250D01*
X133700501Y-93137749D01*
X133700500Y-93137747D01*
X133686486Y-93067290D01*
X133690016Y-93066587D01*
X133684787Y-93017995D01*
X133686794Y-93011157D01*
X133688868Y-93000731D01*
X133700501Y-92942248D01*
X133700501Y-92502752D01*
X133700501Y-92502749D01*
X133700500Y-92502747D01*
X133700409Y-92502292D01*
X133695667Y-92478448D01*
X133686486Y-92432290D01*
X133690016Y-92431587D01*
X133684785Y-92382999D01*
X133686792Y-92376164D01*
X133700499Y-92307252D01*
X133700500Y-92307250D01*
X133700500Y-91867749D01*
X133700499Y-91867747D01*
X133686485Y-91797290D01*
X133690016Y-91796587D01*
X133684784Y-91748010D01*
X133686792Y-91741171D01*
X133700500Y-91672252D01*
X133700501Y-91672250D01*
X133700501Y-91232749D01*
X133700500Y-91232747D01*
X133688869Y-91174270D01*
X133688868Y-91174269D01*
X133644553Y-91107947D01*
X133578231Y-91063632D01*
X133578230Y-91063631D01*
X133519753Y-91052000D01*
X133519749Y-91052000D01*
X132280253Y-91052000D01*
X132280248Y-91052000D01*
X132221771Y-91063631D01*
X132221770Y-91063632D01*
X132155448Y-91107947D01*
X132111133Y-91174269D01*
X132111132Y-91174270D01*
X132099501Y-91232747D01*
X132099501Y-91672252D01*
X132113516Y-91742709D01*
X132110639Y-91743281D01*
X132116622Y-91758231D01*
X132115069Y-91790713D01*
X132115210Y-91792022D01*
X132114967Y-91792848D01*
X132114937Y-91793485D01*
X132112200Y-91807671D01*
X132111133Y-91809269D01*
X132099500Y-91867752D01*
X129600500Y-91867752D01*
X129600500Y-84446544D01*
X129620185Y-84379505D01*
X129636819Y-84358863D01*
X130359863Y-83635819D01*
X130386790Y-83621115D01*
X130412609Y-83604523D01*
X130418809Y-83603631D01*
X130421186Y-83602334D01*
X130447544Y-83599500D01*
X130550595Y-83599500D01*
X130617634Y-83619185D01*
G37*
%TD.AperFunction*%
%TA.AperFunction,Conductor*%
G36*
X151967534Y-89685185D02*
G01*
X152013289Y-89737989D01*
X152023233Y-89807147D01*
X152020270Y-89821591D01*
X151999500Y-89899108D01*
X151999500Y-90030892D01*
X152008833Y-90065723D01*
X152033608Y-90158187D01*
X152055326Y-90195803D01*
X152099500Y-90272314D01*
X152099502Y-90272316D01*
X152113426Y-90286240D01*
X152146911Y-90347563D01*
X152141927Y-90417255D01*
X152113426Y-90461602D01*
X150815489Y-91759540D01*
X150759541Y-91815487D01*
X150759535Y-91815495D01*
X150719982Y-91884004D01*
X150719979Y-91884009D01*
X150716594Y-91896644D01*
X150704044Y-91943482D01*
X150699500Y-91960439D01*
X150699500Y-93291323D01*
X150679815Y-93358362D01*
X150663182Y-93379004D01*
X150599500Y-93442686D01*
X150533608Y-93556812D01*
X150505736Y-93660834D01*
X150499500Y-93684108D01*
X150499500Y-93815892D01*
X150533608Y-93943186D01*
X150540940Y-93955886D01*
X150545336Y-93963499D01*
X150561809Y-94031399D01*
X150538957Y-94097426D01*
X150484036Y-94140617D01*
X150437949Y-94149500D01*
X140489592Y-94149500D01*
X140422553Y-94129815D01*
X140379108Y-94081795D01*
X140348530Y-94021783D01*
X140348523Y-94021774D01*
X140253225Y-93926476D01*
X140253221Y-93926473D01*
X140253220Y-93926472D01*
X140133126Y-93865281D01*
X140133124Y-93865280D01*
X140133121Y-93865279D01*
X140033493Y-93849500D01*
X140033488Y-93849500D01*
X139466512Y-93849500D01*
X139466507Y-93849500D01*
X139366878Y-93865279D01*
X139366874Y-93865280D01*
X139366874Y-93865281D01*
X139298143Y-93900301D01*
X139246778Y-93926473D01*
X139246774Y-93926476D01*
X139151476Y-94021774D01*
X139151469Y-94021783D01*
X139120892Y-94081795D01*
X139072918Y-94132591D01*
X139010408Y-94149500D01*
X137446543Y-94149500D01*
X137379504Y-94129815D01*
X137358862Y-94113181D01*
X136839319Y-93593637D01*
X136805834Y-93532314D01*
X136803000Y-93505956D01*
X136803000Y-91927000D01*
X136805550Y-91918314D01*
X136804262Y-91909353D01*
X136815240Y-91885312D01*
X136822685Y-91859961D01*
X136829525Y-91854033D01*
X136833287Y-91845797D01*
X136855521Y-91831507D01*
X136875489Y-91814206D01*
X136886003Y-91811918D01*
X136892065Y-91808023D01*
X136927000Y-91803000D01*
X137170500Y-91803000D01*
X137237539Y-91822685D01*
X137283294Y-91875489D01*
X137294500Y-91927000D01*
X137294500Y-92126006D01*
X137298791Y-92165907D01*
X137299124Y-92169484D01*
X137299502Y-92174312D01*
X137299502Y-92307248D01*
X137311135Y-92365731D01*
X137314933Y-92371416D01*
X137316805Y-92395319D01*
X137313494Y-92411046D01*
X137315211Y-92427022D01*
X137313203Y-92433862D01*
X137299501Y-92502747D01*
X137299501Y-92942252D01*
X137313516Y-93012710D01*
X137309989Y-93013411D01*
X137315208Y-93062038D01*
X137313201Y-93068873D01*
X137299501Y-93137747D01*
X137299501Y-93577252D01*
X137311132Y-93635729D01*
X137311133Y-93635730D01*
X137355448Y-93702052D01*
X137421770Y-93746367D01*
X137421771Y-93746368D01*
X137480248Y-93757999D01*
X137480251Y-93758000D01*
X137480253Y-93758000D01*
X138719751Y-93758000D01*
X138719752Y-93757999D01*
X138734569Y-93755052D01*
X138778230Y-93746368D01*
X138778232Y-93746367D01*
X138844553Y-93702052D01*
X138844555Y-93702048D01*
X138852286Y-93694319D01*
X138913609Y-93660834D01*
X138939967Y-93658000D01*
X139039562Y-93658000D01*
X139039564Y-93658000D01*
X139115991Y-93637521D01*
X139184513Y-93597960D01*
X139205654Y-93576819D01*
X139266977Y-93543334D01*
X139293335Y-93540500D01*
X143082404Y-93540500D01*
X143082406Y-93540500D01*
X143158833Y-93520021D01*
X143227355Y-93480460D01*
X143283304Y-93424511D01*
X143863496Y-92844319D01*
X143890423Y-92829615D01*
X143916242Y-92813023D01*
X143922442Y-92812131D01*
X143924819Y-92810834D01*
X143951177Y-92808000D01*
X143989967Y-92808000D01*
X144059403Y-92808000D01*
X144126442Y-92827685D01*
X144172197Y-92880489D01*
X144183403Y-92932000D01*
X144183403Y-92996375D01*
X144183395Y-92996479D01*
X144183395Y-93002189D01*
X144183359Y-93002311D01*
X144183366Y-93053577D01*
X144183374Y-93114475D01*
X144210491Y-93233215D01*
X144263340Y-93342927D01*
X144263349Y-93342944D01*
X144263348Y-93342944D01*
X144339294Y-93438162D01*
X144392342Y-93480460D01*
X144434526Y-93514096D01*
X144544264Y-93566936D01*
X144663008Y-93594035D01*
X144723907Y-93594034D01*
X144771501Y-93594034D01*
X144796309Y-93594034D01*
X144796312Y-93594035D01*
X144843907Y-93594034D01*
X144883465Y-93594034D01*
X144891334Y-93594034D01*
X144891808Y-93594003D01*
X144904798Y-93594003D01*
X144904801Y-93594003D01*
X144978205Y-93577250D01*
X145023533Y-93566905D01*
X145023534Y-93566904D01*
X145023536Y-93566904D01*
X145133265Y-93514065D01*
X145228487Y-93438136D01*
X145286940Y-93364849D01*
X145344129Y-93324714D01*
X145413941Y-93321869D01*
X145474209Y-93357219D01*
X145480817Y-93364845D01*
X145492110Y-93379004D01*
X145539294Y-93438162D01*
X145592342Y-93480460D01*
X145634526Y-93514096D01*
X145744264Y-93566936D01*
X145863008Y-93594035D01*
X145923907Y-93594034D01*
X145971501Y-93594034D01*
X145996309Y-93594034D01*
X145996312Y-93594035D01*
X146043907Y-93594034D01*
X146083465Y-93594034D01*
X146091334Y-93594034D01*
X146091808Y-93594003D01*
X146104798Y-93594003D01*
X146104801Y-93594003D01*
X146178205Y-93577250D01*
X146223533Y-93566905D01*
X146223534Y-93566904D01*
X146223536Y-93566904D01*
X146333265Y-93514065D01*
X146428487Y-93438136D01*
X146504428Y-93342924D01*
X146557280Y-93233202D01*
X146584395Y-93114471D01*
X146584397Y-93093115D01*
X146584403Y-93093096D01*
X146584403Y-93050952D01*
X146584410Y-93005982D01*
X146584408Y-93005978D01*
X146584410Y-92996480D01*
X146584403Y-92996376D01*
X146584403Y-92944624D01*
X146589305Y-92927928D01*
X146589183Y-92910526D01*
X146598945Y-92895098D01*
X146604088Y-92877585D01*
X146617237Y-92866190D01*
X146626544Y-92851484D01*
X146643097Y-92843783D01*
X146656892Y-92831830D01*
X146674309Y-92829263D01*
X146689894Y-92822013D01*
X146725181Y-92821765D01*
X146768912Y-92827739D01*
X146787951Y-92831887D01*
X146801201Y-92835887D01*
X146836296Y-92846482D01*
X146850134Y-92851576D01*
X146872241Y-92861242D01*
X146925780Y-92906135D01*
X146933049Y-92918560D01*
X146946949Y-92945840D01*
X146946954Y-92945847D01*
X147036652Y-93035545D01*
X147036654Y-93035546D01*
X147036658Y-93035550D01*
X147149598Y-93093096D01*
X147149698Y-93093147D01*
X147243475Y-93107999D01*
X147243481Y-93108000D01*
X147856518Y-93107999D01*
X147950304Y-93093146D01*
X148063342Y-93035550D01*
X148153050Y-92945842D01*
X148210646Y-92832804D01*
X148210646Y-92832802D01*
X148210647Y-92832801D01*
X148225499Y-92739024D01*
X148225500Y-92739019D01*
X148225499Y-92531999D01*
X148245183Y-92464961D01*
X148297987Y-92419206D01*
X148349499Y-92408000D01*
X148378626Y-92408000D01*
X148627176Y-92408000D01*
X148649383Y-92414520D01*
X148672441Y-92416557D01*
X148689703Y-92426360D01*
X148694215Y-92427685D01*
X148703125Y-92433981D01*
X148713145Y-92441747D01*
X148744970Y-92478448D01*
X148753755Y-92493892D01*
X148761868Y-92511111D01*
X148768321Y-92528073D01*
X148773684Y-92546238D01*
X148776759Y-92560620D01*
X148779500Y-92586546D01*
X148779500Y-92658126D01*
X148778311Y-92672213D01*
X148779500Y-92704320D01*
X148779500Y-92739012D01*
X148779501Y-92739018D01*
X148794354Y-92832804D01*
X148851950Y-92945842D01*
X148851952Y-92945844D01*
X148851954Y-92945847D01*
X148941652Y-93035545D01*
X148941654Y-93035546D01*
X148941658Y-93035550D01*
X149054598Y-93093096D01*
X149054698Y-93093147D01*
X149148475Y-93107999D01*
X149148481Y-93108000D01*
X149761518Y-93107999D01*
X149855304Y-93093146D01*
X149968342Y-93035550D01*
X150058050Y-92945842D01*
X150115646Y-92832804D01*
X150115646Y-92832802D01*
X150115647Y-92832801D01*
X150130499Y-92739024D01*
X150130500Y-92739019D01*
X150130499Y-92275982D01*
X150115646Y-92182196D01*
X150058050Y-92069158D01*
X150058046Y-92069154D01*
X150058045Y-92069152D01*
X149968347Y-91979454D01*
X149968344Y-91979452D01*
X149968342Y-91979450D01*
X149865404Y-91927000D01*
X149855301Y-91921852D01*
X149761524Y-91907000D01*
X149761519Y-91907000D01*
X149584028Y-91907000D01*
X149577364Y-91906821D01*
X149566569Y-91906240D01*
X149546746Y-91901647D01*
X149389661Y-91896719D01*
X149388260Y-91896644D01*
X149387809Y-91896484D01*
X149377620Y-91895610D01*
X149284219Y-91882447D01*
X149239523Y-91867047D01*
X149209470Y-91849696D01*
X149177966Y-91831507D01*
X149170990Y-91827479D01*
X149132083Y-91817054D01*
X149094562Y-91807000D01*
X149094560Y-91807000D01*
X148745511Y-91807000D01*
X148737016Y-91805817D01*
X148722788Y-91804338D01*
X148721176Y-91804227D01*
X148718577Y-91804065D01*
X148701305Y-91807000D01*
X148514897Y-91807000D01*
X148447858Y-91787315D01*
X148427216Y-91770681D01*
X148222574Y-91566039D01*
X148205024Y-91555907D01*
X148192224Y-91548517D01*
X148174098Y-91538052D01*
X148147147Y-91522491D01*
X148098933Y-91471923D01*
X148085711Y-91403316D01*
X148111680Y-91338452D01*
X148121469Y-91327423D01*
X148153046Y-91295846D01*
X148153050Y-91295842D01*
X148210646Y-91182804D01*
X148210646Y-91182802D01*
X148210647Y-91182801D01*
X148225499Y-91089024D01*
X148225500Y-91089019D01*
X148225499Y-90625982D01*
X148210646Y-90532196D01*
X148153050Y-90419158D01*
X148153046Y-90419154D01*
X148153045Y-90419152D01*
X148063347Y-90329454D01*
X148063344Y-90329452D01*
X148063342Y-90329450D01*
X147963976Y-90278820D01*
X147952232Y-90268310D01*
X147940089Y-90262923D01*
X147916689Y-90236502D01*
X147915299Y-90234390D01*
X147908386Y-90223885D01*
X147895401Y-90197999D01*
X147869559Y-90126725D01*
X147863254Y-90101071D01*
X147860520Y-90080836D01*
X147861742Y-90040262D01*
X147868270Y-90007136D01*
X147900546Y-89945169D01*
X147902249Y-89943433D01*
X147937319Y-89908363D01*
X147998642Y-89874878D01*
X148068334Y-89879862D01*
X148112681Y-89908363D01*
X148143514Y-89939196D01*
X148143515Y-89939196D01*
X148143517Y-89939198D01*
X148248607Y-89990573D01*
X148276843Y-89994687D01*
X148316739Y-90000500D01*
X148316740Y-90000500D01*
X148683261Y-90000500D01*
X148705971Y-89997191D01*
X148751393Y-89990573D01*
X148856483Y-89939198D01*
X148887317Y-89908364D01*
X148895263Y-89904024D01*
X148900689Y-89896777D01*
X148925445Y-89887543D01*
X148948639Y-89874878D01*
X148957670Y-89875523D01*
X148966153Y-89872360D01*
X148991974Y-89877977D01*
X149018331Y-89879862D01*
X149027384Y-89885680D01*
X149034426Y-89887212D01*
X149062680Y-89908363D01*
X149096149Y-89941832D01*
X149129634Y-90003155D01*
X149131420Y-90013428D01*
X149137108Y-90056906D01*
X149136691Y-90091994D01*
X149131369Y-90126311D01*
X149126127Y-90147536D01*
X149114984Y-90180026D01*
X149108588Y-90195277D01*
X149093862Y-90224713D01*
X149046263Y-90275861D01*
X149039261Y-90279718D01*
X148941659Y-90329449D01*
X148941652Y-90329454D01*
X148851954Y-90419152D01*
X148851951Y-90419157D01*
X148851950Y-90419158D01*
X148839556Y-90443482D01*
X148794352Y-90532198D01*
X148779500Y-90625975D01*
X148779500Y-91089017D01*
X148785290Y-91125573D01*
X148794354Y-91182804D01*
X148851950Y-91295842D01*
X148851952Y-91295844D01*
X148851954Y-91295847D01*
X148941652Y-91385545D01*
X148941654Y-91385546D01*
X148941658Y-91385550D01*
X149045713Y-91438569D01*
X149054698Y-91443147D01*
X149142116Y-91456991D01*
X149146435Y-91457676D01*
X149148475Y-91457999D01*
X149148481Y-91458000D01*
X149761518Y-91457999D01*
X149855304Y-91443146D01*
X149968342Y-91385550D01*
X150058050Y-91295842D01*
X150115646Y-91182804D01*
X150115646Y-91182802D01*
X150115647Y-91182801D01*
X150130499Y-91089024D01*
X150130500Y-91089019D01*
X150130499Y-90625982D01*
X150115646Y-90532196D01*
X150058050Y-90419158D01*
X150058046Y-90419154D01*
X150058045Y-90419152D01*
X149968347Y-90329454D01*
X149968338Y-90329447D01*
X149863533Y-90276046D01*
X149851981Y-90265774D01*
X149840253Y-90260661D01*
X149816684Y-90234390D01*
X149808868Y-90222677D01*
X149795659Y-90196719D01*
X149769894Y-90126791D01*
X149763407Y-90100841D01*
X149760640Y-90080747D01*
X149761819Y-90039864D01*
X149768269Y-90007135D01*
X149800543Y-89945169D01*
X149802248Y-89943431D01*
X149806480Y-89939198D01*
X149806482Y-89939198D01*
X149889197Y-89856483D01*
X149898117Y-89838234D01*
X149945242Y-89786654D01*
X150012775Y-89768737D01*
X150079275Y-89790176D01*
X150097199Y-89805013D01*
X150099499Y-89807313D01*
X150099500Y-89807314D01*
X150192686Y-89900500D01*
X150279375Y-89950550D01*
X150306810Y-89966390D01*
X150306814Y-89966392D01*
X150434108Y-90000500D01*
X150434110Y-90000500D01*
X150565890Y-90000500D01*
X150565892Y-90000500D01*
X150693186Y-89966392D01*
X150807314Y-89900500D01*
X150811217Y-89896596D01*
X150817894Y-89890394D01*
X150899044Y-89820444D01*
X150913313Y-89806901D01*
X150914861Y-89805284D01*
X150927774Y-89790432D01*
X150983425Y-89719869D01*
X150984542Y-89718440D01*
X150984641Y-89718311D01*
X150984696Y-89718242D01*
X150984742Y-89718278D01*
X151006821Y-89702259D01*
X151026891Y-89683466D01*
X151036688Y-89680589D01*
X151041120Y-89677374D01*
X151060347Y-89672224D01*
X151065037Y-89671363D01*
X151073479Y-89670480D01*
X151080234Y-89668576D01*
X151085921Y-89667534D01*
X151090271Y-89667989D01*
X151108288Y-89665500D01*
X151900495Y-89665500D01*
X151967534Y-89685185D01*
G37*
%TD.AperFunction*%
%TA.AperFunction,Conductor*%
G36*
X157391206Y-87570185D02*
G01*
X157411848Y-87586819D01*
X159067389Y-89242360D01*
X159078270Y-89254798D01*
X159084531Y-89263000D01*
X159090626Y-89270983D01*
X159131280Y-89306814D01*
X159133102Y-89308420D01*
X159138793Y-89313764D01*
X159263181Y-89438152D01*
X159296666Y-89499475D01*
X159299500Y-89525833D01*
X159299500Y-89548260D01*
X159309426Y-89616391D01*
X159360803Y-89721485D01*
X159443514Y-89804196D01*
X159443515Y-89804196D01*
X159443517Y-89804198D01*
X159548607Y-89855573D01*
X159554860Y-89856484D01*
X159616739Y-89865500D01*
X159616740Y-89865500D01*
X161333261Y-89865500D01*
X161362182Y-89861286D01*
X161401393Y-89855573D01*
X161506483Y-89804198D01*
X161589198Y-89721483D01*
X161589198Y-89721481D01*
X161591833Y-89718847D01*
X161611939Y-89707868D01*
X161629439Y-89693089D01*
X161649065Y-89687595D01*
X161653156Y-89685362D01*
X161663420Y-89683577D01*
X161710934Y-89677360D01*
X161742165Y-89677243D01*
X161821877Y-89687059D01*
X161839920Y-89690657D01*
X161893873Y-89705653D01*
X161909027Y-89710943D01*
X161913612Y-89712885D01*
X161965881Y-89755696D01*
X161966218Y-89755452D01*
X161967150Y-89756735D01*
X161967665Y-89757157D01*
X161968592Y-89758720D01*
X161971952Y-89763345D01*
X162061652Y-89853045D01*
X162061654Y-89853046D01*
X162061658Y-89853050D01*
X162133225Y-89889515D01*
X162184021Y-89937490D01*
X162200816Y-90005311D01*
X162178278Y-90071446D01*
X162133226Y-90110484D01*
X162061658Y-90146950D01*
X162061657Y-90146951D01*
X162061656Y-90146951D01*
X161971948Y-90236660D01*
X161967309Y-90243045D01*
X161954251Y-90253449D01*
X161945811Y-90265882D01*
X161915648Y-90284209D01*
X161898314Y-90291603D01*
X161875621Y-90298798D01*
X161758635Y-90323844D01*
X161740922Y-90326318D01*
X161734965Y-90326715D01*
X161717874Y-90326673D01*
X161709386Y-90326066D01*
X161694257Y-90324042D01*
X161657136Y-90316727D01*
X161595167Y-90284453D01*
X161593428Y-90282748D01*
X161589198Y-90278518D01*
X161589198Y-90278517D01*
X161506483Y-90195802D01*
X161401393Y-90144427D01*
X161401391Y-90144426D01*
X161333261Y-90134500D01*
X161333260Y-90134500D01*
X159616740Y-90134500D01*
X159616739Y-90134500D01*
X159548608Y-90144426D01*
X159443516Y-90195802D01*
X159358168Y-90281150D01*
X159338605Y-90291831D01*
X159321728Y-90306385D01*
X159301240Y-90312233D01*
X159296844Y-90314634D01*
X159287840Y-90316248D01*
X159287140Y-90316346D01*
X159183521Y-90329904D01*
X159176778Y-90331945D01*
X159167334Y-90333280D01*
X159162748Y-90332609D01*
X159149981Y-90334500D01*
X156839656Y-90334500D01*
X156806845Y-90330080D01*
X156805402Y-90329684D01*
X156803803Y-90329245D01*
X156759378Y-90326066D01*
X156744257Y-90324042D01*
X156707136Y-90316727D01*
X156645167Y-90284453D01*
X156643428Y-90282748D01*
X156639198Y-90278518D01*
X156639198Y-90278517D01*
X156556483Y-90195802D01*
X156451393Y-90144427D01*
X156451391Y-90144426D01*
X156383261Y-90134500D01*
X156383260Y-90134500D01*
X154666740Y-90134500D01*
X154666739Y-90134500D01*
X154598608Y-90144426D01*
X154493514Y-90195803D01*
X154410803Y-90278514D01*
X154359426Y-90383608D01*
X154349500Y-90451739D01*
X154349500Y-90818260D01*
X154359426Y-90886391D01*
X154410803Y-90991485D01*
X154493514Y-91074196D01*
X154493515Y-91074196D01*
X154493517Y-91074198D01*
X154598607Y-91125573D01*
X154632673Y-91130536D01*
X154666739Y-91135500D01*
X154666740Y-91135500D01*
X156383261Y-91135500D01*
X156405971Y-91132191D01*
X156451393Y-91125573D01*
X156556483Y-91074198D01*
X156639198Y-90991483D01*
X156639198Y-90991481D01*
X156641833Y-90988847D01*
X156661937Y-90977868D01*
X156679443Y-90963086D01*
X156699064Y-90957595D01*
X156703156Y-90955361D01*
X156713408Y-90953578D01*
X156809417Y-90941019D01*
X156878443Y-90951841D01*
X156930660Y-90998264D01*
X156949500Y-91063971D01*
X156949500Y-92573886D01*
X156946122Y-92602632D01*
X156945008Y-92607303D01*
X156929760Y-92718901D01*
X156925611Y-92737949D01*
X156911019Y-92786287D01*
X156905924Y-92800130D01*
X156896255Y-92822243D01*
X156851361Y-92875781D01*
X156838939Y-92883048D01*
X156811657Y-92896949D01*
X156811657Y-92896950D01*
X156721954Y-92986652D01*
X156721951Y-92986657D01*
X156721950Y-92986658D01*
X156712115Y-93005960D01*
X156664352Y-93099698D01*
X156649500Y-93193475D01*
X156649500Y-93806517D01*
X156657573Y-93857487D01*
X156664354Y-93900304D01*
X156699462Y-93969208D01*
X156712358Y-94037874D01*
X156686082Y-94102614D01*
X156628976Y-94142872D01*
X156588977Y-94149500D01*
X151562051Y-94149500D01*
X151495012Y-94129815D01*
X151449257Y-94077011D01*
X151439313Y-94007853D01*
X151454664Y-93963499D01*
X151459058Y-93955888D01*
X151466392Y-93943186D01*
X151500500Y-93815892D01*
X151500500Y-93684108D01*
X151466392Y-93556814D01*
X151400500Y-93442686D01*
X151336818Y-93379004D01*
X151303334Y-93317680D01*
X151300500Y-93291323D01*
X151300500Y-92175833D01*
X151320185Y-92108794D01*
X151336819Y-92088152D01*
X152036224Y-91388747D01*
X152740460Y-90684511D01*
X152748552Y-90670495D01*
X152780021Y-90615989D01*
X152800500Y-90539562D01*
X152800500Y-90423676D01*
X152820185Y-90356637D01*
X152836819Y-90335995D01*
X152866429Y-90306385D01*
X152900500Y-90272314D01*
X152966392Y-90158186D01*
X153000500Y-90030892D01*
X153000500Y-89899108D01*
X152979730Y-89821592D01*
X152981393Y-89751743D01*
X153020556Y-89693881D01*
X153084784Y-89666377D01*
X153099505Y-89665500D01*
X154210347Y-89665500D01*
X154224347Y-89666293D01*
X154233894Y-89667377D01*
X154246195Y-89670753D01*
X154293211Y-89674117D01*
X154295774Y-89674409D01*
X154296512Y-89674720D01*
X154305739Y-89675954D01*
X154342860Y-89683269D01*
X154404828Y-89715543D01*
X154406568Y-89717248D01*
X154410801Y-89721481D01*
X154410802Y-89721483D01*
X154493517Y-89804198D01*
X154598607Y-89855573D01*
X154604860Y-89856484D01*
X154666739Y-89865500D01*
X154666740Y-89865500D01*
X156383261Y-89865500D01*
X156412182Y-89861286D01*
X156451393Y-89855573D01*
X156556483Y-89804198D01*
X156639198Y-89721483D01*
X156690573Y-89616393D01*
X156700500Y-89548260D01*
X156700500Y-89181740D01*
X156690573Y-89113607D01*
X156639198Y-89008517D01*
X156639196Y-89008515D01*
X156639196Y-89008514D01*
X156556485Y-88925803D01*
X156451391Y-88874426D01*
X156383261Y-88864500D01*
X156383260Y-88864500D01*
X154666740Y-88864500D01*
X154666739Y-88864500D01*
X154598608Y-88874426D01*
X154493516Y-88925802D01*
X154408168Y-89011150D01*
X154388605Y-89021831D01*
X154371728Y-89036385D01*
X154351240Y-89042233D01*
X154346844Y-89044634D01*
X154337840Y-89046248D01*
X154337140Y-89046346D01*
X154233521Y-89059904D01*
X154226778Y-89061945D01*
X154217334Y-89063280D01*
X154212748Y-89062609D01*
X154199981Y-89064500D01*
X153099505Y-89064500D01*
X153032466Y-89044815D01*
X152986711Y-88992011D01*
X152976767Y-88922853D01*
X152979730Y-88908407D01*
X152981849Y-88900499D01*
X153000500Y-88830892D01*
X153000500Y-88699108D01*
X152966392Y-88571814D01*
X152966388Y-88571807D01*
X152964932Y-88568290D01*
X152964586Y-88565077D01*
X152964288Y-88563963D01*
X152964461Y-88563916D01*
X152962793Y-88548391D01*
X152955807Y-88529639D01*
X152959135Y-88514364D01*
X152957465Y-88498821D01*
X152966422Y-88480925D01*
X152970684Y-88461372D01*
X152987340Y-88439138D01*
X152988740Y-88436342D01*
X152991827Y-88433143D01*
X152993185Y-88431786D01*
X153054521Y-88398324D01*
X153080834Y-88395500D01*
X154210347Y-88395500D01*
X154243157Y-88399920D01*
X154246191Y-88400752D01*
X154246195Y-88400753D01*
X154290634Y-88403933D01*
X154305739Y-88405954D01*
X154342860Y-88413269D01*
X154404828Y-88445543D01*
X154406568Y-88447248D01*
X154410801Y-88451481D01*
X154410802Y-88451483D01*
X154493517Y-88534198D01*
X154598607Y-88585573D01*
X154632673Y-88590536D01*
X154666739Y-88595500D01*
X154666740Y-88595500D01*
X156383261Y-88595500D01*
X156409073Y-88591739D01*
X156451393Y-88585573D01*
X156556483Y-88534198D01*
X156639198Y-88451483D01*
X156690573Y-88346393D01*
X156700500Y-88278260D01*
X156700500Y-87911740D01*
X156690573Y-87843607D01*
X156639198Y-87738517D01*
X156639197Y-87738516D01*
X156634685Y-87729286D01*
X156638324Y-87727506D01*
X156622004Y-87680616D01*
X156638358Y-87612687D01*
X156688841Y-87564383D01*
X156745853Y-87550500D01*
X157324167Y-87550500D01*
X157391206Y-87570185D01*
G37*
%TD.AperFunction*%
%TA.AperFunction,Conductor*%
G36*
X143161770Y-86157452D02*
G01*
X144950203Y-87945885D01*
X144967732Y-87968614D01*
X145008560Y-88004242D01*
X145284788Y-88280470D01*
X145284791Y-88280472D01*
X145291237Y-88285418D01*
X145289728Y-88287384D01*
X145329326Y-88328918D01*
X145335989Y-88349256D01*
X145337264Y-88348842D01*
X145340279Y-88358123D01*
X145349388Y-88376000D01*
X145401472Y-88478220D01*
X145401474Y-88478222D01*
X145401476Y-88478225D01*
X145496774Y-88573523D01*
X145496778Y-88573526D01*
X145496780Y-88573528D01*
X145616874Y-88634719D01*
X145616876Y-88634719D01*
X145616878Y-88634720D01*
X145716507Y-88650500D01*
X145716512Y-88650500D01*
X146283493Y-88650500D01*
X146383121Y-88634720D01*
X146383121Y-88634719D01*
X146383126Y-88634719D01*
X146503220Y-88573528D01*
X146598528Y-88478220D01*
X146606425Y-88462720D01*
X146629678Y-88438097D01*
X146652495Y-88413056D01*
X146653887Y-88412461D01*
X146654395Y-88411924D01*
X146684951Y-88399202D01*
X146790457Y-88371062D01*
X146810525Y-88367448D01*
X146931486Y-88355822D01*
X147000100Y-88369003D01*
X147050697Y-88417187D01*
X147067211Y-88485077D01*
X147061822Y-88515857D01*
X147059427Y-88523606D01*
X147049501Y-88591739D01*
X147049501Y-89683260D01*
X147059427Y-89751391D01*
X147059428Y-89751393D01*
X147110803Y-89856483D01*
X147193518Y-89939198D01*
X147193519Y-89939198D01*
X147196152Y-89941831D01*
X147207131Y-89961939D01*
X147221911Y-89979440D01*
X147227402Y-89999061D01*
X147229637Y-90003154D01*
X147231423Y-90013428D01*
X147237075Y-90056632D01*
X147236636Y-90091861D01*
X147231494Y-90124767D01*
X147226180Y-90146125D01*
X147215214Y-90177857D01*
X147208773Y-90193110D01*
X147194106Y-90222246D01*
X147146380Y-90273276D01*
X147139644Y-90276975D01*
X147036659Y-90329449D01*
X147036652Y-90329454D01*
X146946954Y-90419152D01*
X146946951Y-90419157D01*
X146946950Y-90419158D01*
X146934556Y-90443482D01*
X146889352Y-90532198D01*
X146874500Y-90625975D01*
X146874500Y-91089017D01*
X146880290Y-91125573D01*
X146889354Y-91182804D01*
X146946950Y-91295842D01*
X146946952Y-91295844D01*
X146946954Y-91295847D01*
X146978531Y-91327424D01*
X146990511Y-91349364D01*
X147005966Y-91369016D01*
X147006967Y-91379501D01*
X147012016Y-91388747D01*
X147010232Y-91413682D01*
X147012610Y-91438569D01*
X147007783Y-91447931D01*
X147007032Y-91458439D01*
X146992050Y-91478452D01*
X146980595Y-91500673D01*
X146967999Y-91510578D01*
X146965160Y-91514372D01*
X146952853Y-91522491D01*
X146928960Y-91536286D01*
X146907776Y-91548517D01*
X146900448Y-91552748D01*
X146877425Y-91566039D01*
X146877423Y-91566041D01*
X146672784Y-91770681D01*
X146611461Y-91804166D01*
X146585103Y-91807000D01*
X143570094Y-91807000D01*
X143538391Y-91815495D01*
X143493665Y-91827479D01*
X143468013Y-91842290D01*
X143455186Y-91849696D01*
X143447674Y-91854033D01*
X143425145Y-91867039D01*
X143425143Y-91867041D01*
X142789004Y-92503181D01*
X142727681Y-92536666D01*
X142701323Y-92539500D01*
X139293335Y-92539500D01*
X139271338Y-92533040D01*
X139248494Y-92531108D01*
X139235165Y-92522419D01*
X139226296Y-92519815D01*
X139217740Y-92513792D01*
X139211352Y-92508879D01*
X139184513Y-92482040D01*
X139159292Y-92467479D01*
X139152193Y-92463380D01*
X139152190Y-92463378D01*
X139115996Y-92442481D01*
X139115993Y-92442479D01*
X139039561Y-92421999D01*
X139031505Y-92420939D01*
X139031769Y-92418932D01*
X138975177Y-92402315D01*
X138929422Y-92349511D01*
X138919478Y-92280353D01*
X138925760Y-92257685D01*
X138925528Y-92257617D01*
X138927488Y-92250938D01*
X138927490Y-92250937D01*
X138947175Y-92183898D01*
X138955500Y-92126000D01*
X138955500Y-91824376D01*
X138975185Y-91757337D01*
X139027989Y-91711582D01*
X139097143Y-91701638D01*
X139124000Y-91705500D01*
X139124001Y-91705500D01*
X140538594Y-91705500D01*
X140538606Y-91705500D01*
X140540115Y-91705494D01*
X140541885Y-91705481D01*
X140601079Y-91696317D01*
X140601083Y-91696315D01*
X140601088Y-91696315D01*
X140639269Y-91684508D01*
X140667831Y-91675678D01*
X140691351Y-91666796D01*
X140764341Y-91611690D01*
X140809337Y-91558238D01*
X140824318Y-91538054D01*
X140850931Y-91465803D01*
X140855929Y-91452235D01*
X140864034Y-91389514D01*
X140864884Y-91382940D01*
X140864049Y-91324455D01*
X140856527Y-91276962D01*
X140855000Y-91257564D01*
X140855000Y-90742439D01*
X140856526Y-90723043D01*
X140860085Y-90700570D01*
X140872075Y-90663670D01*
X140872239Y-90663348D01*
X140909602Y-90590021D01*
X140909601Y-90590020D01*
X140922180Y-90565333D01*
X140922171Y-90564985D01*
X140926223Y-90552366D01*
X140927482Y-90549059D01*
X140927490Y-90549044D01*
X140947175Y-90482005D01*
X140955500Y-90424107D01*
X140955500Y-90075892D01*
X140955416Y-90070028D01*
X140955214Y-90062952D01*
X140943348Y-89999761D01*
X140943098Y-89999061D01*
X140929248Y-89960240D01*
X140923263Y-89943466D01*
X140913932Y-89917314D01*
X140913779Y-89917178D01*
X140908572Y-89907957D01*
X140872073Y-89836324D01*
X140860086Y-89799432D01*
X140856526Y-89776950D01*
X140855001Y-89757563D01*
X140855001Y-89242438D01*
X140856527Y-89223043D01*
X140860086Y-89200569D01*
X140872073Y-89163674D01*
X140909605Y-89090016D01*
X140909603Y-89090015D01*
X140922180Y-89065334D01*
X140922171Y-89064988D01*
X140926222Y-89052372D01*
X140927486Y-89049050D01*
X140927490Y-89049044D01*
X140947175Y-88982005D01*
X140955500Y-88924107D01*
X140955500Y-87636481D01*
X140975185Y-87569442D01*
X140991819Y-87548800D01*
X141798800Y-86741819D01*
X141860123Y-86708334D01*
X141886481Y-86705500D01*
X142448639Y-86705500D01*
X142451180Y-86705363D01*
X142470607Y-86704322D01*
X142470614Y-86704321D01*
X142470618Y-86704321D01*
X142496965Y-86701488D01*
X142573482Y-86677529D01*
X142634805Y-86644044D01*
X142681629Y-86608991D01*
X142858991Y-86431629D01*
X142873693Y-86415262D01*
X142890327Y-86394620D01*
X142927490Y-86323575D01*
X142947175Y-86256536D01*
X142951352Y-86227484D01*
X142980376Y-86163931D01*
X143039153Y-86126156D01*
X143109023Y-86126156D01*
X143161770Y-86157452D01*
G37*
%TD.AperFunction*%
%TA.AperFunction,Conductor*%
G36*
X135987539Y-83619185D02*
G01*
X136033294Y-83671989D01*
X136044500Y-83723500D01*
X136044500Y-85626007D01*
X136049197Y-85669686D01*
X136060397Y-85721174D01*
X136062342Y-85729133D01*
X136062890Y-85731373D01*
X136102933Y-85806518D01*
X136105899Y-85812083D01*
X136105901Y-85812086D01*
X136151660Y-85864895D01*
X136165072Y-85878583D01*
X136169246Y-85882843D01*
X136169247Y-85882844D01*
X136169249Y-85882845D01*
X136249059Y-85927488D01*
X136249063Y-85927490D01*
X136316102Y-85947175D01*
X136374000Y-85955500D01*
X138037323Y-85955500D01*
X138054203Y-85960456D01*
X138071799Y-85960389D01*
X138087032Y-85970096D01*
X138104362Y-85975185D01*
X138115883Y-85988481D01*
X138130722Y-85997937D01*
X138138289Y-86014339D01*
X138150117Y-86027989D01*
X138152620Y-86045403D01*
X138159992Y-86061380D01*
X138157490Y-86079268D01*
X138160061Y-86097147D01*
X138152735Y-86113270D01*
X138150315Y-86130576D01*
X138134441Y-86153532D01*
X138131348Y-86160341D01*
X138128300Y-86163885D01*
X138099500Y-86192686D01*
X138091243Y-86206985D01*
X138083681Y-86215782D01*
X138080530Y-86217824D01*
X138080039Y-86218444D01*
X138080525Y-86218867D01*
X138076524Y-86223461D01*
X137982893Y-86355113D01*
X137979410Y-86360012D01*
X137979408Y-86360013D01*
X137976687Y-86363841D01*
X137976617Y-86363946D01*
X137912925Y-86453670D01*
X137904799Y-86466038D01*
X137903948Y-86467440D01*
X137896713Y-86480397D01*
X137852200Y-86567331D01*
X137852195Y-86567341D01*
X137842309Y-86589883D01*
X137842308Y-86589885D01*
X137841345Y-86592496D01*
X137841339Y-86592515D01*
X137834236Y-86616018D01*
X137834229Y-86616045D01*
X137825530Y-86652614D01*
X137812276Y-86708334D01*
X137808669Y-86723496D01*
X137808660Y-86723538D01*
X137805190Y-86741744D01*
X137805188Y-86741757D01*
X137804892Y-86743809D01*
X137804884Y-86743874D01*
X137803084Y-86762158D01*
X137803081Y-86762200D01*
X137795449Y-86905295D01*
X137795234Y-86910611D01*
X137795216Y-86911242D01*
X137795217Y-86911245D01*
X137797437Y-86923259D01*
X137799501Y-86945791D01*
X137799501Y-87118000D01*
X137779816Y-87185039D01*
X137727012Y-87230794D01*
X137675501Y-87242000D01*
X137480248Y-87242000D01*
X137421771Y-87253631D01*
X137421770Y-87253632D01*
X137355448Y-87297947D01*
X137311133Y-87364269D01*
X137311132Y-87364270D01*
X137299501Y-87422747D01*
X137299501Y-87862252D01*
X137313516Y-87932710D01*
X137309989Y-87933411D01*
X137315208Y-87982038D01*
X137313201Y-87988873D01*
X137299501Y-88057747D01*
X137299501Y-88325168D01*
X137279816Y-88392207D01*
X137227012Y-88437962D01*
X137157854Y-88447906D01*
X137094298Y-88418881D01*
X137087820Y-88412849D01*
X136934511Y-88259540D01*
X136934507Y-88259537D01*
X136905294Y-88242672D01*
X136887416Y-88232350D01*
X136887414Y-88232348D01*
X136887414Y-88232349D01*
X136887412Y-88232348D01*
X136882886Y-88229734D01*
X136865990Y-88219979D01*
X136865991Y-88219979D01*
X136827775Y-88209739D01*
X136789562Y-88199500D01*
X136789560Y-88199500D01*
X136458676Y-88199500D01*
X136391637Y-88179815D01*
X136370995Y-88163181D01*
X136307316Y-88099502D01*
X136307314Y-88099500D01*
X136235005Y-88057752D01*
X136193187Y-88033608D01*
X136129539Y-88016554D01*
X136065892Y-87999500D01*
X135934108Y-87999500D01*
X135806812Y-88033608D01*
X135692686Y-88099500D01*
X135692683Y-88099502D01*
X135599502Y-88192683D01*
X135599500Y-88192686D01*
X135533608Y-88306812D01*
X135503580Y-88418881D01*
X135499500Y-88434108D01*
X135499500Y-88565892D01*
X135512603Y-88614795D01*
X135533608Y-88693187D01*
X135566554Y-88750250D01*
X135599500Y-88807314D01*
X135692686Y-88900500D01*
X135785458Y-88954062D01*
X135806810Y-88966390D01*
X135806814Y-88966392D01*
X135934108Y-89000500D01*
X135934110Y-89000500D01*
X136065890Y-89000500D01*
X136065892Y-89000500D01*
X136193186Y-88966392D01*
X136282760Y-88914675D01*
X136350660Y-88898202D01*
X136416687Y-88921054D01*
X136459878Y-88975975D01*
X136466520Y-89045528D01*
X136434505Y-89107631D01*
X136432443Y-89109743D01*
X136349500Y-89192686D01*
X136283608Y-89306812D01*
X136249500Y-89434108D01*
X136249500Y-89565891D01*
X136283608Y-89693187D01*
X136309475Y-89737989D01*
X136349500Y-89807314D01*
X136442686Y-89900500D01*
X136529375Y-89950550D01*
X136556810Y-89966390D01*
X136556814Y-89966392D01*
X136684108Y-90000500D01*
X136684110Y-90000500D01*
X136815890Y-90000500D01*
X136815892Y-90000500D01*
X136943186Y-89966392D01*
X137057314Y-89900500D01*
X137120995Y-89836819D01*
X137147922Y-89822115D01*
X137173741Y-89805523D01*
X137179941Y-89804631D01*
X137182318Y-89803334D01*
X137208676Y-89800500D01*
X137227996Y-89800500D01*
X137295035Y-89820185D01*
X137331098Y-89855609D01*
X137355448Y-89892052D01*
X137421770Y-89936367D01*
X137421771Y-89936368D01*
X137480248Y-89947999D01*
X137480251Y-89948000D01*
X138670500Y-89948000D01*
X138679185Y-89950550D01*
X138688147Y-89949262D01*
X138712187Y-89960240D01*
X138737539Y-89967685D01*
X138743466Y-89974525D01*
X138751703Y-89978287D01*
X138765992Y-90000521D01*
X138783294Y-90020489D01*
X138785581Y-90031003D01*
X138789477Y-90037065D01*
X138794500Y-90072000D01*
X138794500Y-90247064D01*
X138774815Y-90314103D01*
X138739391Y-90350166D01*
X138729759Y-90356602D01*
X138723510Y-90358558D01*
X138722011Y-90359858D01*
X138717109Y-90360562D01*
X138663082Y-90377480D01*
X138660868Y-90377500D01*
X137623992Y-90377500D01*
X137580313Y-90382197D01*
X137528805Y-90393402D01*
X137518628Y-90395889D01*
X137518625Y-90395889D01*
X137494431Y-90408782D01*
X137460315Y-90420965D01*
X137421768Y-90428633D01*
X137355448Y-90472947D01*
X137311133Y-90539269D01*
X137311132Y-90539270D01*
X137299501Y-90597747D01*
X137299501Y-90663348D01*
X137298239Y-90680995D01*
X137294500Y-90707000D01*
X137294500Y-90875999D01*
X137296592Y-90905247D01*
X137298239Y-90916700D01*
X137299501Y-90934348D01*
X137299501Y-90978000D01*
X137279816Y-91045039D01*
X137227012Y-91090794D01*
X137175501Y-91102000D01*
X136649044Y-91102000D01*
X136582005Y-91082315D01*
X136561363Y-91065681D01*
X135361182Y-89865500D01*
X134127713Y-88632030D01*
X134127712Y-88632029D01*
X134127709Y-88632027D01*
X134047791Y-88585887D01*
X134047787Y-88585885D01*
X134044818Y-88585090D01*
X134044818Y-88585089D01*
X133973166Y-88565891D01*
X133958645Y-88562000D01*
X133958644Y-88562000D01*
X133824501Y-88562000D01*
X133757462Y-88542315D01*
X133711707Y-88489511D01*
X133700501Y-88438000D01*
X133700501Y-88057749D01*
X133700500Y-88057747D01*
X133686486Y-87987290D01*
X133690016Y-87986587D01*
X133684787Y-87937995D01*
X133686794Y-87931157D01*
X133690656Y-87911740D01*
X133700501Y-87862248D01*
X133700501Y-87422752D01*
X133700501Y-87422749D01*
X133700500Y-87422747D01*
X133688869Y-87364270D01*
X133688868Y-87364269D01*
X133644553Y-87297947D01*
X133578231Y-87253632D01*
X133578230Y-87253631D01*
X133519753Y-87242000D01*
X133519749Y-87242000D01*
X132280253Y-87242000D01*
X132280248Y-87242000D01*
X132221771Y-87253631D01*
X132221770Y-87253632D01*
X132155448Y-87297947D01*
X132111133Y-87364269D01*
X132111132Y-87364270D01*
X132099501Y-87422747D01*
X132099501Y-87862252D01*
X132113516Y-87932710D01*
X132109989Y-87933411D01*
X132115208Y-87982038D01*
X132113201Y-87988873D01*
X132099501Y-88057747D01*
X132099501Y-88497252D01*
X132113516Y-88567709D01*
X132109987Y-88568410D01*
X132111360Y-88581196D01*
X132115591Y-88614795D01*
X132115141Y-88616381D01*
X132115210Y-88617022D01*
X132113509Y-88622289D01*
X132113515Y-88622291D01*
X132099500Y-88692747D01*
X132099500Y-88789667D01*
X132079815Y-88856706D01*
X132027011Y-88902461D01*
X131957853Y-88912405D01*
X131894297Y-88883380D01*
X131887819Y-88877348D01*
X131836819Y-88826348D01*
X131825702Y-88805990D01*
X131810819Y-88788192D01*
X131809271Y-88775897D01*
X131803334Y-88765025D01*
X131800500Y-88738667D01*
X131800500Y-86925833D01*
X131820185Y-86858794D01*
X131836819Y-86838152D01*
X132838152Y-85836819D01*
X132899475Y-85803334D01*
X132925833Y-85800500D01*
X134291324Y-85800500D01*
X134358363Y-85820185D01*
X134379005Y-85836819D01*
X134442686Y-85900500D01*
X134537949Y-85955500D01*
X134546532Y-85960456D01*
X134556814Y-85966392D01*
X134684108Y-86000500D01*
X134684110Y-86000500D01*
X134815890Y-86000500D01*
X134815892Y-86000500D01*
X134943186Y-85966392D01*
X135057314Y-85900500D01*
X135150500Y-85807314D01*
X135216392Y-85693186D01*
X135250500Y-85565892D01*
X135250500Y-85434108D01*
X135216392Y-85306814D01*
X135150500Y-85192686D01*
X135057314Y-85099500D01*
X134990698Y-85061039D01*
X134943187Y-85033608D01*
X134833690Y-85004269D01*
X134815892Y-84999500D01*
X134684108Y-84999500D01*
X134556812Y-85033608D01*
X134442686Y-85099500D01*
X134442683Y-85099502D01*
X134379005Y-85163181D01*
X134317682Y-85196666D01*
X134291324Y-85199500D01*
X132710438Y-85199500D01*
X132634011Y-85219979D01*
X132634010Y-85219979D01*
X132634008Y-85219980D01*
X132620050Y-85228039D01*
X132552150Y-85244511D01*
X132486123Y-85221658D01*
X132442933Y-85166736D01*
X132436292Y-85097183D01*
X132447566Y-85064356D01*
X132449256Y-85061039D01*
X132519873Y-84922445D01*
X132573402Y-84757701D01*
X132600500Y-84586611D01*
X132600500Y-84413389D01*
X132573402Y-84242299D01*
X132519873Y-84077555D01*
X132441232Y-83923212D01*
X132349086Y-83796385D01*
X132325607Y-83730579D01*
X132341432Y-83662525D01*
X132391538Y-83613830D01*
X132449405Y-83599500D01*
X135920500Y-83599500D01*
X135987539Y-83619185D01*
G37*
%TD.AperFunction*%
%TA.AperFunction,Conductor*%
G36*
X148255703Y-85080120D02*
G01*
X148262181Y-85086152D01*
X148315489Y-85139460D01*
X148315491Y-85139461D01*
X148315495Y-85139464D01*
X148375025Y-85173833D01*
X148384011Y-85179021D01*
X148460438Y-85199500D01*
X148539562Y-85199500D01*
X148825500Y-85199500D01*
X148892539Y-85219185D01*
X148938294Y-85271989D01*
X148949500Y-85323500D01*
X148949500Y-85908898D01*
X148945955Y-85937408D01*
X148949500Y-85986120D01*
X148949500Y-86312324D01*
X148949499Y-86312339D01*
X148949499Y-86348104D01*
X148949121Y-86357774D01*
X148947881Y-86373615D01*
X148948353Y-86377057D01*
X148949499Y-86393874D01*
X148949499Y-87408260D01*
X148959425Y-87476392D01*
X148962269Y-87485595D01*
X148959443Y-87486467D01*
X148968567Y-87539922D01*
X148941219Y-87604217D01*
X148883452Y-87643520D01*
X148845408Y-87649500D01*
X148154592Y-87649500D01*
X148087553Y-87629815D01*
X148041798Y-87577011D01*
X148031854Y-87507853D01*
X148038623Y-87485870D01*
X148037731Y-87485595D01*
X148040574Y-87476392D01*
X148047848Y-87426472D01*
X148050501Y-87408260D01*
X148050501Y-86376801D01*
X148052561Y-86369862D01*
X148053255Y-86360935D01*
X148050501Y-86337857D01*
X148050501Y-86316740D01*
X148050501Y-86316739D01*
X148050501Y-86312339D01*
X148050500Y-86312324D01*
X148050500Y-85986120D01*
X148054045Y-85937411D01*
X148054450Y-85929993D01*
X148054481Y-85929144D01*
X148050500Y-85907028D01*
X148050500Y-85173833D01*
X148070185Y-85106794D01*
X148122989Y-85061039D01*
X148192147Y-85051095D01*
X148255703Y-85080120D01*
G37*
%TD.AperFunction*%
%TA.AperFunction,Conductor*%
G36*
X144240727Y-82062382D02*
G01*
X144312409Y-82076640D01*
X144335671Y-82083697D01*
X144369428Y-82097679D01*
X144403187Y-82111662D01*
X144424624Y-82123120D01*
X144464804Y-82149968D01*
X144466379Y-82151011D01*
X144468231Y-82152224D01*
X144468236Y-82152226D01*
X144468239Y-82152228D01*
X144522914Y-82177484D01*
X144522921Y-82177487D01*
X144522928Y-82177490D01*
X144589967Y-82197175D01*
X144647865Y-82205500D01*
X145019082Y-82205500D01*
X145086121Y-82225185D01*
X145131876Y-82277989D01*
X145141820Y-82347147D01*
X145126470Y-82391497D01*
X145120312Y-82402164D01*
X145084500Y-82535817D01*
X145084500Y-82674183D01*
X145118347Y-82800500D01*
X145120312Y-82807835D01*
X145120313Y-82807838D01*
X145189492Y-82927661D01*
X145189494Y-82927664D01*
X145189495Y-82927665D01*
X145287335Y-83025505D01*
X145407164Y-83094688D01*
X145507595Y-83121598D01*
X145567254Y-83157962D01*
X145597783Y-83220809D01*
X145599500Y-83241372D01*
X145599500Y-84138260D01*
X145609426Y-84206391D01*
X145660803Y-84311485D01*
X145743514Y-84394196D01*
X145743515Y-84394196D01*
X145743517Y-84394198D01*
X145848607Y-84445573D01*
X145882622Y-84450529D01*
X145916739Y-84455500D01*
X145916740Y-84455500D01*
X146283258Y-84455500D01*
X146283260Y-84455500D01*
X146307622Y-84451950D01*
X146325385Y-84454469D01*
X146343147Y-84451916D01*
X146359260Y-84459274D01*
X146376797Y-84461762D01*
X146390380Y-84473486D01*
X146406703Y-84480941D01*
X146416279Y-84495841D01*
X146429688Y-84507416D01*
X146434776Y-84524624D01*
X146444477Y-84539719D01*
X146449433Y-84574194D01*
X146449500Y-84574418D01*
X146449500Y-84669936D01*
X146429815Y-84736975D01*
X146419316Y-84751018D01*
X146414401Y-84756706D01*
X146411070Y-84760560D01*
X146390001Y-84779893D01*
X146387048Y-84782032D01*
X146371075Y-84791852D01*
X146352149Y-84801597D01*
X146335146Y-84808805D01*
X146314782Y-84815699D01*
X146296915Y-84820299D01*
X146292985Y-84821004D01*
X146284348Y-84822552D01*
X146262461Y-84824500D01*
X146197878Y-84824500D01*
X146184038Y-84823725D01*
X146181416Y-84823430D01*
X146177281Y-84822966D01*
X146177266Y-84822965D01*
X146126865Y-84823525D01*
X146123049Y-84823803D01*
X146123042Y-84823712D01*
X146111310Y-84824500D01*
X146093488Y-84824500D01*
X146093482Y-84824501D01*
X145999696Y-84839354D01*
X145886658Y-84896950D01*
X145886657Y-84896951D01*
X145886652Y-84896954D01*
X145796954Y-84986652D01*
X145796951Y-84986657D01*
X145796950Y-84986658D01*
X145787977Y-85004269D01*
X145739352Y-85099698D01*
X145724500Y-85193475D01*
X145724500Y-85806517D01*
X145731741Y-85852235D01*
X145739354Y-85900304D01*
X145796950Y-86013342D01*
X145796952Y-86013344D01*
X145796954Y-86013347D01*
X145886652Y-86103045D01*
X145886654Y-86103046D01*
X145886658Y-86103050D01*
X145999097Y-86160341D01*
X145999698Y-86160647D01*
X146093475Y-86175499D01*
X146093481Y-86175500D01*
X146556518Y-86175499D01*
X146650304Y-86160646D01*
X146763342Y-86103050D01*
X146853050Y-86013342D01*
X146910646Y-85900304D01*
X146910646Y-85900302D01*
X146910647Y-85900301D01*
X146921282Y-85833147D01*
X146925500Y-85806519D01*
X146925499Y-85636647D01*
X146925720Y-85629250D01*
X146926363Y-85618482D01*
X146930899Y-85599397D01*
X146936385Y-85450826D01*
X146936471Y-85449402D01*
X146936656Y-85448886D01*
X146937748Y-85437584D01*
X146949689Y-85361468D01*
X146954813Y-85328800D01*
X146984649Y-85265622D01*
X146989623Y-85260347D01*
X146990460Y-85259511D01*
X147030022Y-85190988D01*
X147050500Y-85114562D01*
X147050500Y-85035438D01*
X147050500Y-84794825D01*
X147052087Y-84783318D01*
X147052282Y-84781193D01*
X147052819Y-84773932D01*
X147050500Y-84760284D01*
X147050500Y-84579498D01*
X147070185Y-84512459D01*
X147122989Y-84466704D01*
X147174496Y-84455498D01*
X147325500Y-84455498D01*
X147392539Y-84475183D01*
X147438294Y-84527987D01*
X147449500Y-84579498D01*
X147449500Y-85852235D01*
X147447039Y-85876819D01*
X147446682Y-85878582D01*
X147446682Y-85878583D01*
X147441273Y-85905327D01*
X147441211Y-85905632D01*
X147408626Y-85967438D01*
X147347799Y-86001816D01*
X147337551Y-86003752D01*
X147298610Y-86009426D01*
X147193515Y-86060803D01*
X147110804Y-86143514D01*
X147059427Y-86248608D01*
X147049501Y-86316739D01*
X147049501Y-87408260D01*
X147059427Y-87476390D01*
X147062032Y-87484821D01*
X147062468Y-87515935D01*
X147064901Y-87546952D01*
X147062955Y-87550574D01*
X147063013Y-87554684D01*
X147046564Y-87581086D01*
X147031837Y-87608503D01*
X147028241Y-87610498D01*
X147026068Y-87613987D01*
X146997950Y-87627308D01*
X146970744Y-87642407D01*
X146965745Y-87642566D01*
X146962927Y-87643902D01*
X146935558Y-87645166D01*
X146927888Y-87644670D01*
X146926114Y-87644207D01*
X146863053Y-87640479D01*
X146862741Y-87640459D01*
X146862613Y-87640412D01*
X146851067Y-87639146D01*
X146829056Y-87635609D01*
X146776251Y-87627123D01*
X146763851Y-87624474D01*
X146697399Y-87606679D01*
X146682912Y-87601825D01*
X146670877Y-87596949D01*
X146616135Y-87553531D01*
X146606957Y-87538323D01*
X146598528Y-87521780D01*
X146598524Y-87521776D01*
X146598523Y-87521774D01*
X146503225Y-87426476D01*
X146503221Y-87426473D01*
X146503220Y-87426472D01*
X146383126Y-87365281D01*
X146383124Y-87365280D01*
X146383121Y-87365279D01*
X146283493Y-87349500D01*
X146283488Y-87349500D01*
X145716512Y-87349500D01*
X145716507Y-87349500D01*
X145616877Y-87365279D01*
X145527612Y-87410761D01*
X145458943Y-87423656D01*
X145394203Y-87397378D01*
X145383638Y-87387956D01*
X143636819Y-85641137D01*
X143603334Y-85579814D01*
X143600500Y-85553456D01*
X143600500Y-84453856D01*
X143600500Y-84453854D01*
X143576614Y-84364710D01*
X143576611Y-84364704D01*
X143530473Y-84284792D01*
X143530470Y-84284789D01*
X143530469Y-84284786D01*
X143465212Y-84219529D01*
X142265212Y-83019528D01*
X142265209Y-83019526D01*
X142258763Y-83014580D01*
X142259991Y-83012978D01*
X142219275Y-82970264D01*
X142208032Y-82938391D01*
X142205500Y-82926054D01*
X142205500Y-82874000D01*
X142200803Y-82830316D01*
X142189597Y-82778805D01*
X142187110Y-82768627D01*
X142164469Y-82726139D01*
X142160865Y-82708579D01*
X142162337Y-82690908D01*
X142158745Y-82673544D01*
X142165180Y-82656813D01*
X142166669Y-82638951D01*
X142177461Y-82624882D01*
X142183827Y-82608332D01*
X142194645Y-82595975D01*
X142548801Y-82241818D01*
X142610124Y-82208334D01*
X142636482Y-82205500D01*
X143712131Y-82205500D01*
X143712135Y-82205500D01*
X143712877Y-82205496D01*
X143713997Y-82205492D01*
X143714939Y-82205483D01*
X143716205Y-82205472D01*
X143775756Y-82196091D01*
X143775758Y-82196090D01*
X143775760Y-82196090D01*
X143790640Y-82191430D01*
X143842433Y-82175213D01*
X143895198Y-82149968D01*
X143935383Y-82123115D01*
X143956816Y-82111660D01*
X144024334Y-82083693D01*
X144047588Y-82076638D01*
X144119266Y-82062381D01*
X144143456Y-82060000D01*
X144216537Y-82060000D01*
X144240727Y-82062382D01*
G37*
%TD.AperFunction*%
%TD*%
%TA.AperFunction,Conductor*%
%TO.N,Net-(U1A-+)*%
G36*
X161750000Y-90535000D02*
G01*
X161674458Y-90529593D01*
X161583896Y-90511747D01*
X161506310Y-90485293D01*
X161436348Y-90446843D01*
X161396211Y-90411825D01*
X161366882Y-90369646D01*
X161357403Y-90346418D01*
X160474000Y-90635000D01*
X161357403Y-90923582D01*
X161398212Y-90856016D01*
X161476048Y-90799032D01*
X161596023Y-90755144D01*
X161750000Y-90735000D01*
X161750000Y-90535000D01*
G37*
%TD.AperFunction*%
%TD*%
%TA.AperFunction,Conductor*%
%TO.N,Net-(D4-A)*%
G36*
X155575000Y-98312500D02*
G01*
X155555526Y-98435781D01*
X155527628Y-98515876D01*
X155488271Y-98597426D01*
X155440479Y-98672667D01*
X155383269Y-98741331D01*
X155327225Y-98791947D01*
X155264984Y-98832494D01*
X155207694Y-98857153D01*
X155146392Y-98871393D01*
X155562499Y-99501000D01*
X156031445Y-98950471D01*
X155961415Y-98900763D01*
X155893855Y-98805392D01*
X155831791Y-98653262D01*
X155786367Y-98450521D01*
X155775000Y-98312500D01*
X155575000Y-98312500D01*
G37*
%TD.AperFunction*%
%TD*%
%TA.AperFunction,Conductor*%
%TO.N,VUSB*%
G36*
X141943039Y-82769685D02*
G01*
X141988794Y-82822489D01*
X142000000Y-82874000D01*
X142000000Y-84198638D01*
X141980315Y-84265677D01*
X141963681Y-84286319D01*
X141786319Y-84463681D01*
X141724996Y-84497166D01*
X141698638Y-84500000D01*
X141499999Y-84500000D01*
X141250000Y-84749999D01*
X141250000Y-85626000D01*
X141230315Y-85693039D01*
X141177511Y-85738794D01*
X141126000Y-85750000D01*
X136374000Y-85750000D01*
X136306961Y-85730315D01*
X136261206Y-85677511D01*
X136250000Y-85626000D01*
X136250000Y-82874000D01*
X136269685Y-82806961D01*
X136322489Y-82761206D01*
X136374000Y-82750000D01*
X141876000Y-82750000D01*
X141943039Y-82769685D01*
G37*
%TD.AperFunction*%
%TD*%
%TA.AperFunction,Conductor*%
%TO.N,/CIRCUIT/D+*%
G36*
X147850000Y-84405000D02*
G01*
X147847822Y-84369185D01*
X147847388Y-84274198D01*
X147861763Y-84233507D01*
X147894291Y-84208701D01*
X147750000Y-83679000D01*
X147605709Y-84208701D01*
X147641225Y-84238490D01*
X147654929Y-84297060D01*
X147652179Y-84369185D01*
X147650000Y-84405000D01*
X147850000Y-84405000D01*
G37*
%TD.AperFunction*%
%TD*%
%TA.AperFunction,Conductor*%
%TO.N,/CIRCUIT/RX*%
G36*
X161700000Y-89465000D02*
G01*
X161871333Y-89486099D01*
X161969482Y-89513378D01*
X162062760Y-89552878D01*
X162122230Y-89590133D01*
X162169512Y-89634729D01*
X162203963Y-89696746D01*
X162501000Y-89250000D01*
X162114646Y-88901367D01*
X162092960Y-89003972D01*
X162035543Y-89097483D01*
X161941910Y-89180151D01*
X161818366Y-89242037D01*
X161700000Y-89265000D01*
X161700000Y-89465000D01*
G37*
%TD.AperFunction*%
%TD*%
%TA.AperFunction,Conductor*%
%TO.N,/CIRCUIT/D+*%
G36*
X147650000Y-82955000D02*
G01*
X147652179Y-82990815D01*
X147652612Y-83085803D01*
X147638237Y-83126494D01*
X147605709Y-83151299D01*
X147750000Y-83681000D01*
X147894291Y-83151299D01*
X147858776Y-83121511D01*
X147845071Y-83062940D01*
X147847822Y-82990815D01*
X147850000Y-82955000D01*
X147650000Y-82955000D01*
G37*
%TD.AperFunction*%
%TD*%
%TA.AperFunction,Conductor*%
%TO.N,Net-(U1A-+)*%
G36*
X156800000Y-90535000D02*
G01*
X156724458Y-90529593D01*
X156633896Y-90511747D01*
X156556310Y-90485293D01*
X156486348Y-90446843D01*
X156446211Y-90411825D01*
X156416882Y-90369646D01*
X156407403Y-90346418D01*
X155524000Y-90635000D01*
X156407403Y-90923582D01*
X156448212Y-90856016D01*
X156526048Y-90799032D01*
X156646023Y-90755144D01*
X156800000Y-90735000D01*
X156800000Y-90535000D01*
G37*
%TD.AperFunction*%
%TD*%
%TA.AperFunction,Conductor*%
%TO.N,/CIRCUIT/CC1*%
G36*
X149850000Y-84404999D02*
G01*
X149847822Y-84369184D01*
X149847388Y-84274197D01*
X149861763Y-84233506D01*
X149894291Y-84208700D01*
X149750000Y-83678999D01*
X149605709Y-84208700D01*
X149641225Y-84238489D01*
X149654929Y-84297059D01*
X149652179Y-84369184D01*
X149650000Y-84404999D01*
X149850000Y-84404999D01*
G37*
%TD.AperFunction*%
%TD*%
%TA.AperFunction,Conductor*%
%TO.N,/CIRCUIT/RX*%
G36*
X159217158Y-89108579D02*
G01*
X159301095Y-89182559D01*
X159433722Y-89301673D01*
X159481361Y-89358859D01*
X159500000Y-89407632D01*
X160475707Y-89365707D01*
X160513786Y-89065000D01*
X160276294Y-89102808D01*
X160052826Y-89125202D01*
X159896666Y-89129792D01*
X159752674Y-89122237D01*
X159645324Y-89106020D01*
X159548305Y-89079907D01*
X159474580Y-89049267D01*
X159409679Y-89010371D01*
X159358579Y-88967158D01*
X159217158Y-89108579D01*
G37*
%TD.AperFunction*%
%TD*%
%TA.AperFunction,Conductor*%
%TO.N,Net-(U1A-+)*%
G36*
X161700000Y-90735000D02*
G01*
X161808506Y-90754638D01*
X161876652Y-90782278D01*
X161944179Y-90821385D01*
X162000926Y-90866438D01*
X162049781Y-90920323D01*
X162082076Y-90972053D01*
X162104306Y-91029614D01*
X162114646Y-91098632D01*
X162501000Y-90750000D01*
X162203963Y-90303253D01*
X162162762Y-90373102D01*
X162080802Y-90437183D01*
X161949709Y-90493094D01*
X161778352Y-90529782D01*
X161700000Y-90535000D01*
X161700000Y-90735000D01*
G37*
%TD.AperFunction*%
%TD*%
%TA.AperFunction,Conductor*%
%TO.N,/CIRCUIT/RX*%
G36*
X132038956Y-89594876D02*
G01*
X132153876Y-89617583D01*
X132217751Y-89640215D01*
X132269814Y-89671974D01*
X132291667Y-89698197D01*
X132299995Y-89729156D01*
X132300001Y-89730043D01*
X132900708Y-89548207D01*
X132300001Y-89347500D01*
X132295363Y-89385454D01*
X132282896Y-89413583D01*
X132241757Y-89446241D01*
X132180376Y-89453456D01*
X132038956Y-89594876D01*
G37*
%TD.AperFunction*%
%TD*%
%TA.AperFunction,Conductor*%
%TO.N,VUSB*%
G36*
X138125000Y-97350000D02*
G01*
X138040725Y-97344391D01*
X137938998Y-97325131D01*
X137857749Y-97298239D01*
X137783282Y-97259051D01*
X137738569Y-97222659D01*
X137703948Y-97178509D01*
X137677393Y-97100000D01*
X137324000Y-97500000D01*
X137677393Y-97900000D01*
X137705615Y-97818734D01*
X137768045Y-97751789D01*
X137869175Y-97697186D01*
X138009936Y-97660009D01*
X138125000Y-97650000D01*
X138125000Y-97350000D01*
G37*
%TD.AperFunction*%
%TD*%
%TA.AperFunction,Conductor*%
%TO.N,Net-(R8-Pad2)*%
G36*
X149549999Y-90100000D02*
G01*
X149555406Y-90024458D01*
X149573252Y-89933896D01*
X149599706Y-89856310D01*
X149638156Y-89786348D01*
X149673174Y-89746211D01*
X149715353Y-89716882D01*
X149738581Y-89707403D01*
X149449999Y-89136500D01*
X149161417Y-89707403D01*
X149228983Y-89748212D01*
X149285967Y-89826048D01*
X149329855Y-89946023D01*
X149349999Y-90100000D01*
X149549999Y-90100000D01*
G37*
%TD.AperFunction*%
%TD*%
%TA.AperFunction,Conductor*%
%TO.N,/CIRCUIT/D-*%
G36*
X149150000Y-85909945D02*
G01*
X149159587Y-86041688D01*
X149172187Y-86221899D01*
X149167825Y-86297865D01*
X149149999Y-86350000D01*
X149449999Y-86863500D01*
X149618119Y-86203604D01*
X149526972Y-86187003D01*
X149450697Y-86136669D01*
X149389621Y-86053875D01*
X149353509Y-85948568D01*
X149350000Y-85909945D01*
X149150000Y-85909945D01*
G37*
%TD.AperFunction*%
%TD*%
%TA.AperFunction,Conductor*%
%TO.N,/CIRCUIT/TX*%
G36*
X138000001Y-87242500D02*
G01*
X137998439Y-87297333D01*
X137987501Y-87363463D01*
X137957814Y-87419111D01*
X137933009Y-87436199D01*
X137900001Y-87442500D01*
X138100001Y-87643500D01*
X138300001Y-87442500D01*
X138271083Y-87437789D01*
X138248358Y-87424812D01*
X138216792Y-87376545D01*
X138201264Y-87292967D01*
X138200001Y-87242500D01*
X138000001Y-87242500D01*
G37*
%TD.AperFunction*%
%TD*%
%TA.AperFunction,Conductor*%
%TO.N,/CIRCUIT/RX_LED*%
G36*
X137300001Y-89600000D02*
G01*
X137355438Y-89602612D01*
X137421501Y-89616316D01*
X137476813Y-89649915D01*
X137493759Y-89676926D01*
X137500001Y-89712211D01*
X138101001Y-89547500D01*
X137500001Y-89347500D01*
X137495293Y-89368526D01*
X137482335Y-89383693D01*
X137432051Y-89400987D01*
X137332519Y-89401392D01*
X137300001Y-89400000D01*
X137300001Y-89600000D01*
G37*
%TD.AperFunction*%
%TD*%
%TA.AperFunction,Conductor*%
%TO.N,/CIRCUIT/PWR_LED*%
G36*
X135775000Y-98375000D02*
G01*
X135795148Y-98227529D01*
X135822921Y-98135532D01*
X135862720Y-98044508D01*
X135904643Y-97975594D01*
X135954902Y-97916704D01*
X136000433Y-97880124D01*
X136051228Y-97854468D01*
X136059776Y-97851537D01*
X135675000Y-97499000D01*
X135290224Y-97851537D01*
X135373599Y-97897671D01*
X135450913Y-97983546D01*
X135518845Y-98113856D01*
X135565431Y-98277933D01*
X135575000Y-98375000D01*
X135775000Y-98375000D01*
G37*
%TD.AperFunction*%
%TD*%
%TA.AperFunction,Conductor*%
%TO.N,/CIRCUIT/VBUS*%
G36*
X146248442Y-82786802D02*
G01*
X146157948Y-82908944D01*
X146061884Y-83041733D01*
X146014625Y-83087402D01*
X145970441Y-83105000D01*
X146099293Y-83680707D01*
X146400000Y-83725904D01*
X146344389Y-83543120D01*
X146328668Y-83365305D01*
X146335391Y-83280690D01*
X146351067Y-83202661D01*
X146375160Y-83131322D01*
X146406545Y-83068915D01*
X146460574Y-82998934D01*
X146248442Y-82786802D01*
G37*
%TD.AperFunction*%
%TD*%
%TA.AperFunction,Conductor*%
%TO.N,+3V3*%
G36*
X138693039Y-91269685D02*
G01*
X138738794Y-91322489D01*
X138750000Y-91374000D01*
X138750000Y-92126000D01*
X138730315Y-92193039D01*
X138677511Y-92238794D01*
X138626000Y-92250000D01*
X137624000Y-92249999D01*
X137556960Y-92230314D01*
X137511206Y-92177510D01*
X137500000Y-92125999D01*
X137500000Y-91374000D01*
X137519685Y-91306961D01*
X137572489Y-91261206D01*
X137623999Y-91250000D01*
X138626003Y-91250000D01*
X138693039Y-91269685D01*
G37*
%TD.AperFunction*%
%TD*%
%TA.AperFunction,Conductor*%
%TO.N,+3V3*%
G36*
X130609552Y-94012773D02*
G01*
X130643717Y-94021781D01*
X130738409Y-94046748D01*
X130739904Y-94047253D01*
X130802429Y-94073237D01*
X130848697Y-94092465D01*
X130850036Y-94093125D01*
X130891827Y-94117139D01*
X130937174Y-94143198D01*
X130937958Y-94143690D01*
X131013157Y-94195408D01*
X131074084Y-94233694D01*
X131155312Y-94284740D01*
X131155318Y-94284743D01*
X131155320Y-94284744D01*
X131293328Y-94331777D01*
X131382863Y-94345222D01*
X131382870Y-94345222D01*
X131382876Y-94345223D01*
X131450178Y-94348213D01*
X131479212Y-94349503D01*
X131487325Y-94353293D01*
X131490393Y-94361191D01*
X131490393Y-94639149D01*
X131486966Y-94647422D01*
X131479574Y-94650816D01*
X131322454Y-94662679D01*
X131197507Y-94696690D01*
X131197495Y-94696695D01*
X131099690Y-94746004D01*
X131099681Y-94746009D01*
X131013127Y-94804612D01*
X130935523Y-94857869D01*
X130934322Y-94858591D01*
X130789775Y-94934131D01*
X130788204Y-94934811D01*
X130702439Y-94964678D01*
X130701371Y-94964994D01*
X130609392Y-94987494D01*
X130600542Y-94986131D01*
X130595247Y-94978909D01*
X130595149Y-94978471D01*
X130499463Y-94502304D01*
X130499463Y-94497695D01*
X130528481Y-94353293D01*
X130595098Y-94021779D01*
X130600088Y-94014345D01*
X130608874Y-94012615D01*
X130609552Y-94012773D01*
G37*
%TD.AperFunction*%
%TD*%
%TA.AperFunction,Conductor*%
%TO.N,Net-(D3-A)*%
G36*
X159775000Y-98375000D02*
G01*
X159795148Y-98227529D01*
X159822921Y-98135532D01*
X159862720Y-98044508D01*
X159904643Y-97975594D01*
X159954902Y-97916704D01*
X160000433Y-97880124D01*
X160051228Y-97854468D01*
X160059776Y-97851537D01*
X159675000Y-97499000D01*
X159290224Y-97851537D01*
X159373599Y-97897671D01*
X159450913Y-97983546D01*
X159518845Y-98113856D01*
X159565431Y-98277933D01*
X159575000Y-98375000D01*
X159775000Y-98375000D01*
G37*
%TD.AperFunction*%
%TD*%
%TA.AperFunction,Conductor*%
%TO.N,Net-(R9-Pad2)*%
G36*
X147450001Y-90057500D02*
G01*
X147430001Y-90185498D01*
X147402244Y-90265814D01*
X147362596Y-90344576D01*
X147320810Y-90403551D01*
X147270888Y-90452679D01*
X147225491Y-90482015D01*
X147174972Y-90500662D01*
X147150000Y-90505106D01*
X147550000Y-90858499D01*
X147950000Y-90505106D01*
X147863888Y-90476298D01*
X147785301Y-90410672D01*
X147715417Y-90304476D01*
X147664332Y-90163578D01*
X147650000Y-90057501D01*
X147450001Y-90057500D01*
G37*
%TD.AperFunction*%
%TD*%
%TA.AperFunction,Conductor*%
%TO.N,Net-(U1A-+)*%
G36*
X159200000Y-90735000D02*
G01*
X159275542Y-90740407D01*
X159366104Y-90758253D01*
X159443691Y-90784707D01*
X159513652Y-90823157D01*
X159553789Y-90858174D01*
X159583118Y-90900354D01*
X159592597Y-90923582D01*
X160476000Y-90635000D01*
X159592597Y-90346418D01*
X159551788Y-90413983D01*
X159473953Y-90470967D01*
X159353979Y-90514855D01*
X159200000Y-90535000D01*
X159200000Y-90735000D01*
G37*
%TD.AperFunction*%
%TD*%
%TA.AperFunction,Conductor*%
%TO.N,/CIRCUIT/A-*%
G36*
X148695359Y-92207500D02*
G01*
X148779447Y-92233141D01*
X148870221Y-92303490D01*
X148910792Y-92354337D01*
X148944917Y-92414324D01*
X148969369Y-92478598D01*
X148984560Y-92549662D01*
X148988882Y-92620860D01*
X148982467Y-92696790D01*
X148980360Y-92709310D01*
X149456000Y-92507500D01*
X149554763Y-92107500D01*
X149366680Y-92101600D01*
X149001896Y-92050189D01*
X148695359Y-92007500D01*
X148695359Y-92207500D01*
G37*
%TD.AperFunction*%
%TD*%
%TA.AperFunction,Conductor*%
%TO.N,VUSB*%
G36*
X146925000Y-87850000D02*
G01*
X146834788Y-87844668D01*
X146726988Y-87827344D01*
X146624592Y-87799923D01*
X146525509Y-87759778D01*
X146458470Y-87720533D01*
X146401402Y-87672744D01*
X146365646Y-87628539D01*
X146340000Y-87578323D01*
X146336104Y-87567127D01*
X145999000Y-88000000D01*
X146336104Y-88432873D01*
X146382768Y-88348134D01*
X146466712Y-88273884D01*
X146593956Y-88210789D01*
X146763775Y-88165496D01*
X146925000Y-88150000D01*
X146925000Y-87850000D01*
G37*
%TD.AperFunction*%
%TD*%
%TA.AperFunction,Conductor*%
%TO.N,/CIRCUIT/A-*%
G36*
X138900001Y-92622500D02*
G01*
X138845168Y-92620938D01*
X138779038Y-92610000D01*
X138723390Y-92580313D01*
X138706302Y-92555508D01*
X138700001Y-92522500D01*
X138099001Y-92722500D01*
X138700001Y-92922500D01*
X138704712Y-92893582D01*
X138717689Y-92870857D01*
X138765956Y-92839291D01*
X138849534Y-92823763D01*
X138900001Y-92822500D01*
X138900001Y-92622500D01*
G37*
%TD.AperFunction*%
%TD*%
%TA.AperFunction,Conductor*%
%TO.N,VUSB*%
G36*
X137175000Y-96625000D02*
G01*
X137169161Y-96727584D01*
X137148288Y-96851243D01*
X137121156Y-96941908D01*
X137081768Y-97025523D01*
X137045079Y-97076784D01*
X137000494Y-97117871D01*
X136940224Y-97148463D01*
X137325000Y-97501000D01*
X137709776Y-97148463D01*
X137632252Y-97104207D01*
X137567285Y-97023921D01*
X137515104Y-96901117D01*
X137481853Y-96736662D01*
X137475000Y-96625000D01*
X137175000Y-96625000D01*
G37*
%TD.AperFunction*%
%TD*%
%TA.AperFunction,Conductor*%
%TO.N,/CIRCUIT/D-*%
G36*
X148350000Y-84405000D02*
G01*
X148347822Y-84369185D01*
X148347388Y-84274198D01*
X148361763Y-84233507D01*
X148394291Y-84208701D01*
X148250000Y-83679000D01*
X148105709Y-84208701D01*
X148141225Y-84238490D01*
X148154929Y-84297060D01*
X148152179Y-84369185D01*
X148150000Y-84405000D01*
X148350000Y-84405000D01*
G37*
%TD.AperFunction*%
%TD*%
%TA.AperFunction,Conductor*%
%TO.N,/CIRCUIT/TX*%
G36*
X150657252Y-89225817D02*
G01*
X150657281Y-89225823D01*
X150667711Y-89227969D01*
X150780045Y-89247268D01*
X150841754Y-89257871D01*
X151051239Y-89264634D01*
X151059396Y-89268326D01*
X151062560Y-89276328D01*
X151062560Y-89454461D01*
X151059133Y-89462734D01*
X151052079Y-89466097D01*
X150970270Y-89474663D01*
X150970269Y-89474663D01*
X150906998Y-89501403D01*
X150906995Y-89501405D01*
X150861387Y-89541844D01*
X150861385Y-89541846D01*
X150822132Y-89592531D01*
X150822069Y-89592612D01*
X150766418Y-89663175D01*
X150764870Y-89664792D01*
X150676661Y-89740829D01*
X150668157Y-89743635D01*
X150660160Y-89739606D01*
X150659316Y-89738500D01*
X150501726Y-89504056D01*
X150499956Y-89495279D01*
X150499969Y-89495210D01*
X150547985Y-89257871D01*
X150556205Y-89217239D01*
X150561205Y-89209811D01*
X150569990Y-89208092D01*
X150657252Y-89225817D01*
G37*
%TD.AperFunction*%
%TD*%
%TA.AperFunction,Conductor*%
%TO.N,/CIRCUIT/VBUS*%
G36*
X146248442Y-82786802D02*
G01*
X146157948Y-82908944D01*
X146061884Y-83041733D01*
X146014625Y-83087402D01*
X145970441Y-83105000D01*
X146099293Y-83680707D01*
X146400000Y-83725904D01*
X146344389Y-83543120D01*
X146328668Y-83365305D01*
X146335391Y-83280690D01*
X146351067Y-83202661D01*
X146375160Y-83131322D01*
X146406545Y-83068915D01*
X146460574Y-82998934D01*
X146248442Y-82786802D01*
G37*
%TD.AperFunction*%
%TD*%
%TA.AperFunction,Conductor*%
%TO.N,/CIRCUIT/CC1*%
G36*
X149949985Y-84916406D02*
G01*
X150067455Y-85062160D01*
X150130571Y-85164637D01*
X150187334Y-85277655D01*
X150229426Y-85384924D01*
X150259596Y-85493995D01*
X150273065Y-85581139D01*
X150275000Y-85665685D01*
X150675707Y-85500707D01*
X150765685Y-85025000D01*
X150644210Y-85033276D01*
X150495514Y-85005556D01*
X150324067Y-84936382D01*
X150155864Y-84830966D01*
X150091406Y-84774985D01*
X149949985Y-84916406D01*
G37*
%TD.AperFunction*%
%TD*%
%TA.AperFunction,Conductor*%
%TO.N,/CIRCUIT/PWR_LED*%
G36*
X135575000Y-98312500D02*
G01*
X135555526Y-98435781D01*
X135527628Y-98515876D01*
X135488271Y-98597426D01*
X135440479Y-98672667D01*
X135383269Y-98741331D01*
X135327225Y-98791947D01*
X135264984Y-98832494D01*
X135207694Y-98857153D01*
X135146392Y-98871393D01*
X135562499Y-99501000D01*
X136031445Y-98950471D01*
X135961415Y-98900763D01*
X135893855Y-98805392D01*
X135831791Y-98653262D01*
X135786367Y-98450521D01*
X135775000Y-98312500D01*
X135575000Y-98312500D01*
G37*
%TD.AperFunction*%
%TD*%
%TA.AperFunction,Conductor*%
%TO.N,Net-(Q1-C)*%
G36*
X161713924Y-92005000D02*
G01*
X161805922Y-92024387D01*
X161911643Y-92088305D01*
X161962672Y-92137000D01*
X162008644Y-92195533D01*
X162045754Y-92259699D01*
X162074581Y-92331553D01*
X162092254Y-92404077D01*
X162099938Y-92482169D01*
X162100000Y-92510968D01*
X162501000Y-92250000D01*
X162300000Y-91775000D01*
X162232138Y-91800285D01*
X162084761Y-91813927D01*
X161841129Y-91808904D01*
X161713924Y-91805000D01*
X161713924Y-92005000D01*
G37*
%TD.AperFunction*%
%TD*%
%TA.AperFunction,Conductor*%
%TO.N,/CIRCUIT/D-*%
G36*
X149350000Y-84405000D02*
G01*
X149347822Y-84369185D01*
X149347388Y-84274198D01*
X149361763Y-84233507D01*
X149394291Y-84208701D01*
X149250000Y-83679000D01*
X149105709Y-84208701D01*
X149141225Y-84238490D01*
X149154929Y-84297060D01*
X149152179Y-84369185D01*
X149150000Y-84405000D01*
X149350000Y-84405000D01*
G37*
%TD.AperFunction*%
%TD*%
M02*
