M48
; DRILL file {KiCad 9.0.7+1} date 2026-04-24T11:57:07+0000
; FORMAT={-:-/ absolute / metric / decimal}
; #@! TF.CreationDate,2026-04-24T11:57:07+00:00
; #@! TF.GenerationSoftware,Kicad,Pcbnew,9.0.7+1
; #@! TF.FileFunction,Plated,1,2,PTH
FMAT,2
METRIC
; #@! TA.AperFunction,Plated,PTH,ViaDrill
T1C0.300
; #@! TA.AperFunction,Plated,PTH,ComponentDrill
T2C0.600
; #@! TA.AperFunction,Plated,PTH,ComponentDrill
T3C0.900
; #@! TA.AperFunction,Plated,PTH,ComponentDrill
T4C2.700
%
G90
G05
T1
X130.25Y-90.0
X130.25Y-91.0
X131.25Y-90.0
X131.25Y-91.0
X133.25Y-84.5
X134.25Y-84.5
X134.25Y-91.25
X134.25Y-92.25
X134.75Y-85.5
X135.25Y-89.0
X135.25Y-91.25
X135.25Y-92.25
X135.5Y-78.25
X135.5Y-79.25
X135.5Y-86.5
X135.5Y-87.5
X136.0Y-88.5
X136.5Y-86.5
X136.5Y-87.5
X136.75Y-89.5
X137.9Y-101.5
X138.5Y-86.5
X138.5Y-96.0
X138.5Y-100.75
X139.0Y-99.0
X139.0Y-100.0
X139.5Y-78.25
X139.5Y-79.25
X140.0Y-99.0
X140.0Y-100.0
X141.75Y-92.0
X143.75Y-93.5
X144.0Y-90.105
X144.0Y-91.105
X145.0Y-90.105
X145.0Y-91.105
X148.0Y-93.5
X148.5Y-85.604
X148.5Y-96.5
X148.5Y-97.5
X149.0Y-93.5
X150.5Y-89.5
X150.75Y-86.5
X151.0Y-93.75
X151.25Y-95.15
X151.875Y-87.625
X152.5Y-88.765
X152.5Y-89.965
X152.8Y-91.4
X153.25Y-95.5
X153.8Y-91.4
X153.8Y-92.4
X155.0Y-84.5
X155.0Y-85.5
X156.0Y-84.5
X156.0Y-85.5
X158.5Y-91.75
X160.25Y-95.0
X160.5Y-83.0
X160.5Y-84.0
X161.5Y-83.0
X161.5Y-84.0
X161.5Y-93.75
X161.5Y-94.75
X162.5Y-93.75
X162.5Y-94.75
T3
X143.735Y-97.0
X146.275Y-97.0
X150.735Y-97.0
X153.275Y-97.0
T4
X131.5Y-80.5
X131.5Y-99.5
X165.5Y-80.5
X165.5Y-99.5
T2
G00X144.18Y-79.325
M15
G01X144.18Y-78.525
M16
G05
G00X144.18Y-83.655
M15
G01X144.18Y-82.555
M16
G05
G00X152.82Y-79.325
M15
G01X152.82Y-78.525
M16
G05
G00X152.82Y-83.655
M15
G01X152.82Y-82.555
M16
G05
M30
